<svg width="75" height="30" viewBox="0 0 75 30" fill="none" xmlns="http://www.w3.org/2000/svg">
<g clip-path="url(#clip0_268_126)">
<mask id="mask0_268_126" style="mask-type:luminance" maskUnits="userSpaceOnUse" x="0" y="0" width="75" height="30">
<path d="M75 0H0V29.3182H75V0Z" fill="white"/>
</mask>
<g mask="url(#mask0_268_126)">
<path d="M74.9877 15.3674V7.82911H67.1112V15.3674H69.0239V9.44809H69.9743V20.3128H65.0483C65.0609 20.2622 65.0858 20.2242 65.0858 20.1736C65.2359 19.5665 65.3734 18.9721 65.3359 17.4164C65.3359 15.0006 65.1359 14.3176 64.2107 12.3824C63.373 10.6117 62.6729 9.11925 62.1603 7.96827L61.7978 7.15882C61.2477 5.96988 61.1977 5.70427 61.1727 5.00863C61.1352 4.56595 61.1352 4.14856 61.1352 3.71853C61.1352 2.264 61.3227 1.78338 61.9728 1.78338C62.548 1.78338 62.6729 2.01104 62.6729 3.07348V7.76591H64.6858V0.227665H62.9355V1.03714C62.6104 0.290905 62.1354 0 61.2852 0C60.4351 0 59.6599 0.417386 59.3474 1.07508C59.0598 1.65689 58.9723 2.40313 58.9723 3.9209C58.9723 5.29953 59.0348 6.1849 59.2599 6.85527C59.3599 7.18411 59.4474 7.43707 59.81 8.22123L62.1228 13.2678C62.4479 14.014 62.6729 14.4946 62.7355 14.6465C62.8355 14.9373 62.923 15.3168 62.9605 15.7721C62.998 16.1895 63.023 16.8472 63.023 17.3785C63.023 19.6677 62.8355 20.1483 61.9603 20.1483C61.2977 20.1483 61.0102 19.7689 61.0102 18.8583V13.584H58.9973V20.3254H52.6588V19.2503H55.1967V17.644H52.6588V9.44809H54.3466V15.38H56.3594V7.82911H49.2457V9.43548H50.5334V20.3001H46.5828V2.02369H47.858V0.417386H43.7823L41.8695 16.3287L39.9442 0.417386H35.6185V2.02369H36.8937V20.3001H30.055V19.225H32.6054V17.6187H30.055V9.44809H31.7428V15.38H33.7556V7.82911H26.6545V9.43548H27.9297V20.3001H22.8163V2.02369H23.779V7.95559H25.6918V0.417386H17.8155V7.95559H19.7283V2.03634H20.6785V20.3128H17.0028C16.9904 19.0227 16.6278 18.6179 15.19 18.2764C16.5027 17.935 16.8778 17.467 16.8778 16.2022V10.2323C16.8778 8.52477 16.2152 7.8165 14.4899 7.8165H9.77666V9.4228H11.0519V20.2875H8.00134L5.90099 0.417386H3.21303L1.13769 20.3001H0V21.9064H3.70062V20.3001H2.63794L3.07551 15.4685H5.17587L5.61344 20.3001H4.55076V21.9064H11.0268V27.6992H9.75164V29.3182H14.1149V27.6992H13.1522V21.9064H14.8775V27.6107C14.8775 28.7617 15.29 29.3182 16.1902 29.3182H18.2905V27.6992H17.678C17.1153 27.6992 17.0153 27.5095 17.0153 26.6621V21.8811H27.9421V27.6739H26.6545V29.2929H33.7681V21.8811H50.5209V27.6739H49.2457V29.2929H56.3594V21.8811H70.0118V27.6739H68.7361V29.2929H73.412V27.6739H72.137V9.3975H73.0875V15.3295H75V15.3674H74.9877ZM3.23804 13.8623L4.12569 4.26239L5.01333 13.8623H3.23804ZM13.1897 9.44809H14.1774C14.6149 9.44809 14.7775 9.67575 14.7775 10.2196V16.3792C14.7775 17.1507 14.6275 17.4164 14.1149 17.4164H13.1897V9.44809ZM13.1897 20.3001V19.01H14.1149C14.6275 19.01 14.8775 19.263 14.8775 19.7815V20.3001H13.1897ZM31.7553 27.7119H30.0675V21.9191H31.7553V27.7119ZM39.119 20.3001H38.1564L38.0063 4.27504L40.0817 20.3001H39.119ZM43.3572 20.3001H42.5946L44.4324 4.27504L44.3074 20.3001H43.3572ZM54.334 27.7119H52.6463V21.9191H54.334V27.7119Z" fill="#0B0C0D"/>
</g>
</g>
<defs>
<clipPath id="clip0_268_126">
<rect width="75" height="30" fill="white"/>
</clipPath>
</defs>
</svg>
