<svg width="54" height="33" viewBox="0 0 54 33" fill="none" xmlns="http://www.w3.org/2000/svg">
<g clip-path="url(#clip0_272_3455)">
<path d="M15.4152 11.7744C15.4152 12.4279 15.4858 12.9577 15.6094 13.3462C15.7507 13.7347 15.9273 14.1585 16.1746 14.6177C16.2629 14.759 16.2982 14.9003 16.2982 15.0239C16.2982 15.2005 16.1922 15.3771 15.9626 15.5537L14.8501 16.2954C14.6911 16.4014 14.5322 16.4544 14.3909 16.4544C14.2143 16.4544 14.0377 16.3661 13.8611 16.2071C13.6139 15.9422 13.4019 15.6597 13.2253 15.3771C13.0487 15.0769 12.8721 14.7413 12.6779 14.3351C11.3004 15.9599 9.56971 16.7722 7.48582 16.7722C6.00238 16.7722 4.81916 16.3484 3.95382 15.5007C3.08847 14.653 2.64697 13.5228 2.64697 12.11C2.64697 10.6089 3.17677 9.39034 4.25404 8.47201C5.3313 7.55369 6.76176 7.09453 8.58075 7.09453C9.18119 7.09453 9.79929 7.14751 10.4527 7.23581C11.1061 7.32411 11.7772 7.46539 12.4836 7.62433V6.33515C12.4836 4.99298 12.2011 4.057 11.6536 3.50954C11.0885 2.96208 10.1348 2.69718 8.77501 2.69718C8.15691 2.69718 7.52114 2.76782 6.86772 2.92676C6.2143 3.0857 5.57854 3.27996 4.96044 3.5272C4.67788 3.65082 4.46596 3.72146 4.34234 3.75678C4.21872 3.7921 4.13042 3.80976 4.05978 3.80976C3.81254 3.80976 3.68892 3.63316 3.68892 3.2623V2.39696C3.68892 2.1144 3.72424 1.90248 3.81254 1.77886C3.90084 1.65524 4.05978 1.53161 4.30702 1.40799C4.92512 1.09011 5.66684 0.825213 6.53218 0.613293C7.39752 0.383712 8.31585 0.277752 9.28715 0.277752C11.3887 0.277752 12.9251 0.754573 13.9141 1.70822C14.8854 2.66186 15.3799 4.10998 15.3799 6.05259V11.7744H15.4152ZM8.24521 14.4588C8.82799 14.4588 9.42843 14.3528 10.0642 14.1409C10.7 13.929 11.2651 13.5404 11.7419 13.0106C12.0245 12.6751 12.2364 12.3042 12.3423 11.8804C12.4483 11.4566 12.5189 10.9444 12.5189 10.344V9.60226C12.0068 9.47864 11.4593 9.37268 10.8942 9.30204C10.3291 9.2314 9.78163 9.19607 9.23417 9.19607C8.05095 9.19607 7.1856 9.42566 6.60282 9.90248C6.02004 10.3793 5.73748 11.0504 5.73748 11.9334C5.73748 12.7634 5.9494 13.3815 6.3909 13.8053C6.81474 14.2468 7.43284 14.4588 8.24521 14.4588ZM22.4262 16.3661C22.1083 16.3661 21.8964 16.3131 21.7551 16.1895C21.6139 16.0835 21.4902 15.8363 21.3843 15.5007L17.2342 1.8495C17.1282 1.49629 17.0752 1.26671 17.0752 1.14309C17.0752 0.860533 17.2165 0.701593 17.4991 0.701593H19.2298C19.5653 0.701593 19.7949 0.754573 19.9185 0.878193C20.0598 0.984154 20.1657 1.23139 20.2717 1.56694L23.2386 13.2579L25.9936 1.56694C26.0819 1.21373 26.1878 0.984154 26.3291 0.878193C26.4704 0.772233 26.7176 0.701593 27.0355 0.701593H28.4483C28.7838 0.701593 29.0134 0.754573 29.1547 0.878193C29.296 0.984154 29.4196 1.23139 29.4902 1.56694L32.2805 13.3992L35.3357 1.56694C35.4417 1.21373 35.5653 0.984154 35.6889 0.878193C35.8302 0.772233 36.0598 0.701593 36.3777 0.701593H38.02C38.3026 0.701593 38.4615 0.842873 38.4615 1.14309C38.4615 1.23139 38.4439 1.31969 38.4262 1.42565C38.4086 1.53162 38.3732 1.6729 38.3026 1.86716L34.0465 15.5184C33.9406 15.8716 33.8169 16.1012 33.6757 16.2071C33.5344 16.3131 33.3048 16.3837 33.0046 16.3837H31.4858C31.1503 16.3837 30.9207 16.3307 30.7794 16.2071C30.6381 16.0835 30.5145 15.8539 30.4439 15.5007L27.7066 4.10998L24.9869 15.4831C24.8986 15.8363 24.7927 16.0658 24.6514 16.1895C24.5101 16.3131 24.2629 16.3661 23.945 16.3661H22.4262ZM45.1194 16.8429C44.2011 16.8429 43.2827 16.7369 42.3997 16.525C41.5167 16.3131 40.828 16.0835 40.3688 15.8186C40.0863 15.6597 39.892 15.4831 39.8214 15.3241C39.7507 15.1652 39.7154 14.9886 39.7154 14.8296V13.929C39.7154 13.5581 39.8567 13.3815 40.1216 13.3815C40.2275 13.3815 40.3335 13.3992 40.4395 13.4345C40.5454 13.4698 40.7044 13.5404 40.881 13.6111C41.4814 13.876 42.1348 14.0879 42.8236 14.2292C43.53 14.3705 44.2187 14.4411 44.9251 14.4411C46.0377 14.4411 46.903 14.2468 47.5035 13.8583C48.1039 13.4698 48.4218 12.9047 48.4218 12.1806C48.4218 11.6861 48.2629 11.28 47.945 10.9444C47.6271 10.6089 47.0267 10.3087 46.1613 10.0261L43.6006 9.23139C42.3114 8.82521 41.3578 8.22477 40.775 7.43007C40.1922 6.65303 39.892 5.78769 39.892 4.86936C39.892 4.12764 40.0509 3.47422 40.3688 2.9091C40.6867 2.34398 41.1105 1.8495 41.6403 1.46097C42.1702 1.05479 42.7706 0.754573 43.477 0.542652C44.1834 0.330732 44.9251 0.242432 45.7022 0.242432C46.0907 0.242432 46.4969 0.260092 46.8854 0.313072C47.2916 0.366052 47.6624 0.436692 48.0333 0.507332C48.3865 0.595633 48.722 0.683933 49.0399 0.789893C49.3578 0.895853 49.605 1.00181 49.7816 1.10777C50.0289 1.24905 50.2055 1.39033 50.3114 1.54928C50.4174 1.69056 50.4704 1.88482 50.4704 2.13206V2.96208C50.4704 3.33294 50.3291 3.5272 50.0642 3.5272C49.9229 3.5272 49.6933 3.45656 49.3931 3.31528C48.3865 2.85612 47.2562 2.62654 46.0024 2.62654C44.9958 2.62654 44.2011 2.78548 43.6536 3.12102C43.1061 3.45656 42.8236 3.9687 42.8236 4.69276C42.8236 5.18724 43.0002 5.61109 43.3534 5.94663C43.7066 6.28217 44.36 6.61771 45.296 6.91793L47.8037 7.71263C49.0752 8.11881 49.9935 8.68393 50.541 9.408C51.0885 10.1321 51.3534 10.9621 51.3534 11.8804C51.3534 12.6398 51.1944 13.3285 50.8942 13.929C50.5763 14.5294 50.1525 15.0592 49.605 15.4831C49.0576 15.9246 48.4041 16.2424 47.6448 16.472C46.8501 16.7193 46.02 16.8429 45.1194 16.8429Z" fill="#0B0C0D"/>
<path fill-rule="evenodd" clip-rule="evenodd" d="M48.4573 25.4257C42.6472 29.717 34.2057 31.9952 26.9474 31.9952C16.7752 31.9952 7.60963 28.2336 0.686895 21.9819C0.139434 21.4875 0.633915 20.8164 1.28734 21.2049C8.77519 25.5493 18.0114 28.1806 27.5655 28.1806C34.0114 28.1806 41.0931 26.8385 47.6096 24.0835C48.5809 23.642 49.4109 24.7193 48.4573 25.4257Z" fill="#0B0C0D"/>
<path fill-rule="evenodd" clip-rule="evenodd" d="M50.8769 22.6707C50.1352 21.717 45.9674 22.2115 44.0778 22.4411C43.5127 22.5117 43.4244 22.0173 43.9365 21.6464C47.2566 19.3153 52.7136 19.9864 53.3493 20.7634C53.9851 21.5581 53.1727 27.0151 50.0646 29.6287C49.5878 30.0349 49.1286 29.823 49.3405 29.2932C50.0469 27.5449 51.6187 23.6067 50.8769 22.6707Z" fill="#0B0C0D"/>
</g>
<defs>
<clipPath id="clip0_272_3455">
<rect width="53.3333" height="31.7881" fill="white" transform="translate(0.333496 0.224731)"/>
</clipPath>
</defs>
</svg>
