<svg width="47" height="78" viewBox="0 0 47 78" fill="none" xmlns="http://www.w3.org/2000/svg">
<g clip-path="url(#clip0_272_3461)">
<mask id="mask0_272_3461" style="mask-type:luminance" maskUnits="userSpaceOnUse" x="0" y="0" width="47" height="79">
<path d="M47.0002 0.229858H0.333496V78.0076H47.0002V0.229858Z" fill="white"/>
</mask>
<g mask="url(#mask0_272_3461)">
<mask id="mask1_272_3461" style="mask-type:luminance" maskUnits="userSpaceOnUse" x="0" y="0" width="47" height="79">
<path d="M47.0002 0.229858H0.333496V78.0076H47.0002V0.229858Z" fill="white"/>
</mask>
<g mask="url(#mask1_272_3461)">
<path fill-rule="evenodd" clip-rule="evenodd" d="M13.9424 22.553H23.5943C25.9589 22.553 29.0475 22.553 30.6401 23.5029C32.3774 24.5479 33.7769 26.4002 33.7769 28.965C33.7769 31.7672 32.2808 33.8571 29.8197 34.807V34.902C33.1013 35.567 34.8868 37.9892 34.8868 41.219C34.8868 45.0662 32.0878 48.7233 26.8276 48.7233H13.9424V22.553ZM17.5166 33.8093H24.6107C28.6163 33.8093 30.257 32.3845 30.257 29.6298C30.257 26.02 27.6511 25.4975 24.6107 25.4975H17.5166V33.8093ZM26.3963 45.7784H17.5166V36.7066H25.5759C28.5679 36.7066 31.3671 37.6565 31.3671 41.0763C31.3671 43.9261 29.4366 45.7784 26.3963 45.7784Z" fill="#0B0C0D"/>
<path fill-rule="evenodd" clip-rule="evenodd" d="M0.383301 35.6618C0.383301 22.9803 10.8073 12.7212 23.6924 12.7212C36.5776 12.7212 47.0015 22.9803 47.0015 35.6618C47.0015 48.3433 36.5776 58.6024 23.6924 58.6024C10.8073 58.6024 0.383301 48.3433 0.383301 35.6618ZM23.6898 55.5633C34.8376 55.5633 43.9104 46.6341 43.9104 35.6624C43.9104 24.6433 34.8859 15.7615 23.6898 15.7615C12.5419 15.7615 3.46924 24.6909 3.46924 35.6624C3.46924 46.6341 12.5419 55.5633 23.6898 55.5633Z" fill="#0B0C0D"/>
<path d="M46.95 63.3993H0.476562V66.3915H46.95V63.3993Z" fill="#0B0C0D"/>
<path fill-rule="evenodd" clip-rule="evenodd" d="M44.5408 59.2198L44.2512 59.6473C44.1547 59.7898 44.1064 59.9797 44.1547 60.1697C44.1547 60.3597 44.1547 60.5497 44.2512 60.6922C44.2994 60.8347 44.396 60.9772 44.5408 61.1196C44.6372 61.2622 44.782 61.3572 44.9751 61.4046C45.1199 61.4522 45.3129 61.4996 45.5059 61.4996C45.6659 61.4996 45.7927 61.4671 45.9412 61.4288C45.972 61.421 46.0037 61.4128 46.0368 61.4046C46.1815 61.3572 46.3263 61.2622 46.4711 61.1196C46.5677 61.0247 46.7124 60.8822 46.7607 60.6922C46.8089 60.5497 46.8572 60.3597 46.8572 60.1697C46.8572 59.9797 46.8572 59.8373 46.7607 59.6473C46.7124 59.5048 46.6159 59.3623 46.4711 59.2198C46.3745 59.1248 46.2781 59.0721 46.1815 59.0193C46.1333 58.993 46.085 58.9665 46.0368 58.9348C45.892 58.8874 45.699 58.8398 45.5059 58.8398C45.3129 58.8398 45.1199 58.8874 44.9751 58.9348C44.8303 58.9824 44.6855 59.0774 44.5408 59.2198ZM44.4405 60.6448C44.4889 60.7873 44.5853 60.9298 44.6819 61.0248C44.7784 61.1198 44.9232 61.2148 45.068 61.2623C45.2128 61.3098 45.3575 61.3573 45.5023 61.3573C45.6471 61.3573 45.8401 61.3098 45.9367 61.2623C46.0382 61.229 46.116 61.1723 46.2034 61.1086C46.2405 61.0815 46.2794 61.0532 46.3227 61.0248C46.4192 60.9298 46.5158 60.7873 46.564 60.6448C46.6122 60.5024 46.6605 60.3598 46.6605 60.1698C46.6605 59.98 46.6122 59.8374 46.564 59.695C46.5158 59.5524 46.4192 59.41 46.3227 59.315C46.2262 59.22 46.0814 59.125 45.9367 59.0775C45.7919 59.03 45.6471 58.9825 45.5023 58.9825C45.3575 58.9825 45.1644 59.03 45.068 59.0775C44.9664 59.1108 44.8885 59.1675 44.8012 59.2312C44.764 59.2583 44.7251 59.2866 44.6819 59.315C44.5853 59.41 44.4889 59.5524 44.4405 59.695C44.3923 59.8374 44.3441 59.98 44.3441 60.1698C44.3682 60.2412 44.3802 60.3243 44.3923 60.4074C44.4044 60.4905 44.4164 60.5736 44.4405 60.6448ZM46.0373 59.4575C45.9408 59.4101 45.796 59.3625 45.603 59.3625H44.9755V60.9774H45.2169V60.3125H45.5064L45.9408 60.9774H46.2303L45.7478 60.265L46.0373 60.1225C46.1338 60.0275 46.1821 59.9325 46.1821 59.79C46.1821 59.6475 46.1338 59.5525 46.0373 59.4575ZM45.6508 60.0741H45.506V60.0266H45.2164V59.5042H45.5543H45.6991C45.7232 59.5042 45.7352 59.516 45.7473 59.5278C45.7594 59.5397 45.7714 59.5516 45.7955 59.5516C45.814 59.5697 45.8324 59.581 45.8482 59.5905C45.8737 59.6061 45.8921 59.6173 45.8921 59.6466C45.9403 59.6941 45.9403 59.7416 45.9403 59.7891C45.9403 59.8366 45.9403 59.8841 45.8921 59.9316C45.8921 59.9791 45.8439 60.0266 45.7955 60.0266C45.7473 60.0741 45.6991 60.0741 45.6508 60.0741Z" fill="#0B0C0D"/>
<path d="M6.07633 2.65216C5.97981 2.46218 5.83503 2.31969 5.642 2.1772C5.49722 2.03471 5.30419 1.93971 5.06289 1.89223C4.91811 1.79723 4.67681 1.74974 4.48377 1.74974C4.04944 1.74974 3.71163 1.84473 3.42207 1.98721C3.13252 2.1772 2.89123 2.36718 2.69819 2.65216C2.50515 2.88964 2.40864 3.22211 2.31212 3.55459C2.2156 3.88706 2.16734 4.21954 2.16734 4.5995C2.16734 4.93197 2.2156 5.26445 2.31212 5.59693C2.40864 5.92939 2.50515 6.21437 2.69819 6.49935C2.89123 6.78433 3.13252 6.9743 3.42207 7.11679C3.71163 7.30678 4.04944 7.35428 4.48377 7.35428C5.06289 7.35428 5.49722 7.16429 5.78677 6.83182C6.12459 6.49935 6.31762 6.02438 6.36587 5.50193H8.15146C8.10321 6.02438 8.00669 6.49935 7.7654 6.92682C7.57235 7.35428 7.33106 7.68675 6.99325 7.97173C6.65543 8.2567 6.31762 8.49418 5.88329 8.63667C5.44895 8.77916 4.96636 8.87416 4.43552 8.87416C3.80815 8.87416 3.22904 8.77916 2.74645 8.54168C2.2156 8.3042 1.78126 8.01923 1.44345 7.63926C1.10564 7.25928 0.816087 6.78433 0.623051 6.26187C0.430014 5.7869 0.333496 5.21695 0.333496 4.5995C0.333496 3.98205 0.430014 3.4121 0.623051 2.88964C0.816087 2.36718 1.10564 1.89223 1.44345 1.51226C1.78126 1.08479 2.2156 0.799812 2.74645 0.562332C3.22904 0.324851 3.80815 0.229858 4.48377 0.229858C4.96636 0.229858 5.4007 0.277355 5.78677 0.419843C6.22111 0.562332 6.55892 0.752316 6.89673 0.989796C7.23454 1.22728 7.47584 1.55975 7.71713 1.93971C7.91017 2.31969 8.05495 2.74716 8.10321 3.22211H6.31762C6.26936 2.98464 6.22111 2.79465 6.07633 2.65216Z" fill="#0B0C0D"/>
<path fill-rule="evenodd" clip-rule="evenodd" d="M11.6222 7.64056C11.1878 7.64056 10.8017 7.49807 10.5604 7.26059C10.3191 7.02311 10.1743 6.64314 10.0778 6.12068H14.4694C14.5176 5.64573 14.4694 5.21826 14.3728 4.79079C14.2764 4.36333 14.0833 3.98336 13.842 3.65088C13.6007 3.31842 13.2629 3.03344 12.8768 2.84345C12.4908 2.65347 12.0565 2.55847 11.5256 2.55847C11.0913 2.55847 10.6569 2.65347 10.2709 2.79596C9.88478 2.93845 9.59522 3.17593 9.30568 3.46091C9.01612 3.74588 8.82308 4.07835 8.6783 4.45832C8.53353 4.83829 8.43701 5.26575 8.43701 5.69322C8.43701 6.16818 8.53353 6.59565 8.6783 6.97562C8.82308 7.35558 9.01612 7.68806 9.30568 7.97303C9.54697 8.25801 9.88478 8.49549 10.2709 8.63798C10.6569 8.78047 11.0913 8.87546 11.5738 8.87546C12.2977 8.87546 12.8768 8.73297 13.3595 8.40049C13.842 8.11552 14.1798 7.59306 14.4212 6.88063H12.9252C12.8768 7.07061 12.732 7.26059 12.4908 7.40308C12.2495 7.54557 11.9599 7.64056 11.6222 7.64056ZM11.5227 3.79342C11.957 3.79342 12.2466 3.88842 12.4396 4.12589C12.6809 4.31588 12.7775 4.64835 12.8739 5.07582H10.1232C10.1493 5.02438 10.1613 4.95904 10.1745 4.88731C10.1856 4.82654 10.1976 4.76119 10.2197 4.69585C10.268 4.55336 10.3645 4.41087 10.461 4.26838C10.5575 4.12589 10.7023 4.03091 10.8471 3.93591C11.0401 3.84092 11.2332 3.79342 11.5227 3.79342Z" fill="#0B0C0D"/>
<path d="M16.887 2.70061V3.79302C16.9835 3.60303 17.0801 3.41305 17.2249 3.27056C17.3697 3.12808 17.5144 2.98559 17.7074 2.8431C17.9004 2.74811 18.0452 2.65311 18.2383 2.60562C18.4313 2.55812 18.6243 2.51062 18.8657 2.51062C18.9622 2.51062 19.107 2.51062 19.2518 2.55812V4.078C19.1552 4.078 19.0587 4.0305 18.9622 4.0305C18.8657 4.0305 18.7691 4.0305 18.6243 4.0305C18.3348 4.0305 18.0452 4.078 17.8522 4.17299C17.6592 4.26799 17.4661 4.41046 17.3213 4.60045C17.1765 4.79044 17.0801 4.98042 17.0318 5.21791C16.9835 5.45539 16.9353 5.69287 16.9353 5.97784V8.68512H15.2944V2.70061H16.887Z" fill="#0B0C0D"/>
<path d="M23.6928 2.69987V3.79228H22.4864V6.73704C22.4864 7.02202 22.5346 7.21201 22.6311 7.30699C22.7276 7.40198 22.9206 7.44948 23.2101 7.44948C23.3067 7.44948 23.4033 7.44948 23.4997 7.44948C23.5963 7.44948 23.6445 7.44948 23.741 7.40198V8.68438C23.5963 8.68438 23.4515 8.73188 23.2585 8.73188C23.0654 8.73188 22.9206 8.73188 22.7758 8.73188C22.5346 8.73188 22.2933 8.73188 22.052 8.68438C21.8107 8.63688 21.6177 8.58939 21.4246 8.49439C21.2316 8.39941 21.0868 8.25692 20.9903 8.06694C20.8938 7.87695 20.8455 7.63947 20.8455 7.35449V3.79228H19.832V2.69987H20.8455V0.89502H22.5346V2.69987H23.6928Z" fill="#0B0C0D"/>
<path fill-rule="evenodd" clip-rule="evenodd" d="M24.6562 0.4198V1.79719H26.3454V0.4198H24.6562ZM26.3454 8.68458V2.70007H24.6562V8.68458H26.3454Z" fill="#0B0C0D"/>
<path d="M27.0195 3.79069V2.69828H28.033V2.22332C28.033 1.70087 28.1778 1.2734 28.5155 0.89343C28.8533 0.560956 29.3842 0.370972 30.0599 0.370972C30.2046 0.370972 30.3494 0.370972 30.4942 0.370972C30.639 0.370972 30.7838 0.370972 30.9285 0.418468V1.65337C30.7354 1.65337 30.5424 1.65337 30.3011 1.65337C30.0599 1.65337 29.9151 1.70087 29.8185 1.79586C29.722 1.89085 29.6738 2.08084 29.6738 2.31831V2.69828H30.832V3.79069H29.6738V8.68279H27.9846V3.79069H27.0195Z" fill="#0B0C0D"/>
<path fill-rule="evenodd" clip-rule="evenodd" d="M31.996 0.4198V1.79719H33.6367V0.4198H31.996ZM33.633 8.68458V2.70007H31.9438V8.68458H33.633Z" fill="#0B0C0D"/>
<path fill-rule="evenodd" clip-rule="evenodd" d="M37.3472 7.64056C36.9129 7.64056 36.5268 7.49807 36.2854 7.26059C36.0442 7.02311 35.8994 6.64314 35.7547 6.12068H40.1462C40.1944 5.64573 40.1462 5.21826 40.0497 4.79079C39.9532 4.36333 39.7601 3.98336 39.5189 3.65088C39.2775 3.31842 38.9398 3.03344 38.5537 2.84345C38.1675 2.65347 37.7332 2.55847 37.2024 2.55847C36.7681 2.55847 36.3338 2.65347 35.9477 2.79596C35.5615 2.93845 35.272 3.17593 34.9824 3.46091C34.6929 3.74588 34.4999 4.07835 34.3551 4.45832C34.2103 4.83829 34.1138 5.26575 34.1138 5.69322C34.1138 6.16818 34.2103 6.59565 34.3551 6.97562C34.4999 7.35558 34.6929 7.68806 34.9824 7.97303C35.2238 8.25801 35.5615 8.49549 35.9477 8.63798C36.3338 8.78047 36.7681 8.87546 37.2507 8.87546C37.9745 8.87546 38.5537 8.73297 39.0362 8.40049C39.5189 8.11552 39.8567 7.59306 40.098 6.88063H38.6502C38.6019 7.07061 38.4571 7.26059 38.2159 7.40308C37.9745 7.54557 37.685 7.64056 37.3472 7.64056ZM37.2517 3.79342C37.686 3.79342 37.9755 3.88842 38.1685 4.12589C38.3615 4.31588 38.5063 4.64835 38.5547 5.02832H35.8521C35.8782 4.97689 35.8902 4.91155 35.9033 4.83982C35.9145 4.77905 35.9264 4.71369 35.9487 4.64835C35.9969 4.50586 36.0451 4.36337 36.1417 4.26838C36.2382 4.12589 36.383 4.03091 36.576 3.93591C36.769 3.84092 36.9621 3.79342 37.2517 3.79342Z" fill="#0B0C0D"/>
<path fill-rule="evenodd" clip-rule="evenodd" d="M44.5889 8.63663C44.9267 8.49414 45.168 8.25666 45.361 7.92419L45.3128 8.68413H46.9053V0.4198H45.2163V3.45956C45.0233 3.17458 44.7819 2.93709 44.4441 2.7946C44.1546 2.65211 43.7685 2.55712 43.4307 2.55712C42.9964 2.55712 42.6103 2.60462 42.2725 2.7946C41.9346 2.98459 41.6934 3.22207 41.452 3.50705C41.259 3.79202 41.0659 4.1245 40.9695 4.50447C40.8247 4.88444 40.7764 5.3119 40.7764 5.69187C40.7764 6.07184 40.8729 6.4993 40.9695 6.87927C41.0659 7.30674 41.2107 7.63921 41.452 7.92419C41.6934 8.20917 41.9829 8.44665 42.3207 8.63663C42.6585 8.77911 43.0928 8.87411 43.5271 8.87411C43.9133 8.87411 44.251 8.77911 44.5889 8.63663ZM45.0204 4.36134C45.1168 4.55132 45.2134 4.7413 45.2616 4.97878C45.3099 5.21627 45.3581 5.50125 45.3581 5.73873C45.3581 5.9762 45.3581 6.21368 45.3099 6.45117C45.2616 6.68865 45.1651 6.87864 45.0686 7.06861C44.972 7.2586 44.8273 7.40109 44.6343 7.49608C44.4413 7.59107 44.2481 7.63857 43.9586 7.63857C43.669 7.63857 43.476 7.54358 43.283 7.44858C43.0899 7.35359 42.9451 7.2111 42.8004 7.02111C42.7039 6.83114 42.6074 6.64115 42.5591 6.40367C42.5108 6.16619 42.4626 5.9287 42.4626 5.69123C42.4626 5.45375 42.5108 5.21627 42.5591 4.97878C42.6074 4.7413 42.7039 4.55132 42.8004 4.36134C42.8969 4.17135 43.0417 4.02886 43.2347 3.93387C43.4278 3.83888 43.6208 3.79138 43.9104 3.79138C44.1999 3.79138 44.3929 3.83888 44.586 3.93387C44.779 4.02886 44.9238 4.17135 45.0204 4.36134Z" fill="#0B0C0D"/>
<path d="M4.53204 72.3284C4.43552 71.7584 3.90466 71.331 3.22904 71.331C2.07082 71.331 1.6365 72.3284 1.6365 73.3257C1.6365 74.2757 2.07082 75.2731 3.22904 75.2731C4.00119 75.2731 4.48377 74.7506 4.5803 73.9908H5.83503C5.69025 75.4631 4.67681 76.3655 3.22904 76.3655C1.3952 76.3655 0.333496 75.0356 0.333496 73.3257C0.333496 71.616 1.3952 70.2385 3.22904 70.2385C4.53204 70.2385 5.642 70.9985 5.78677 72.3284H4.53204Z" fill="#0B0C0D"/>
<path fill-rule="evenodd" clip-rule="evenodd" d="M10.8104 74.0854C10.8104 72.7555 9.94178 71.853 8.59053 71.853C7.23927 71.853 6.37061 72.708 6.37061 74.0854C6.37061 75.4153 7.23927 76.3177 8.59053 76.3177C9.94178 76.3177 10.8104 75.4153 10.8104 74.0854ZM9.64954 74.0854C9.64954 74.7504 9.40825 75.4153 8.58784 75.4153C7.76744 75.4153 7.52614 74.7504 7.57441 74.0854C7.57441 73.3729 7.81569 72.7079 8.58784 72.7079C9.40825 72.7079 9.64954 73.4204 9.64954 74.0854Z" fill="#0B0C0D"/>
<path d="M11.5278 71.9479H12.6377V72.7079C12.8308 72.1853 13.4099 71.8054 13.989 71.8054C14.0855 71.8054 14.182 71.8054 14.2303 71.8529V72.9453C14.1338 72.8978 13.9407 72.8978 13.7959 72.8978C12.9273 72.8978 12.6377 73.5152 12.6377 74.2752V76.1751H11.4795V71.9479H11.5278Z" fill="#0B0C0D"/>
<path fill-rule="evenodd" clip-rule="evenodd" d="M15.8277 71.9479H14.7178H14.6694V77.6474H15.8277V75.6525C16.1172 76.0325 16.5999 76.27 17.1307 76.27C18.3854 76.27 19.0128 75.2251 19.0128 74.0852C19.0128 72.8503 18.4337 71.8054 17.0824 71.8054C16.5515 71.8054 16.1172 72.0429 15.8277 72.4703V71.9479ZM16.8873 72.7081C17.6112 72.7081 17.9008 73.4205 17.9008 74.0855C17.9008 74.7504 17.6595 75.4154 16.8873 75.4154C16.1152 75.4154 15.8739 74.7504 15.8739 74.0855C15.8739 73.3731 16.1152 72.7081 16.8873 72.7081Z" fill="#0B0C0D"/>
<path fill-rule="evenodd" clip-rule="evenodd" d="M23.8837 74.0854C23.8837 72.7555 23.0151 71.853 21.6637 71.853C20.3125 71.853 19.4438 72.708 19.4438 74.0854C19.4438 75.4153 20.3125 76.3177 21.6637 76.3177C23.0151 76.3177 23.8837 75.4153 23.8837 74.0854ZM22.7234 74.0854C22.7234 74.7504 22.4822 75.4153 21.6617 75.4153C20.8896 75.4153 20.6483 74.7504 20.6483 74.0854C20.6483 73.3729 20.8896 72.7079 21.6617 72.7079C22.4822 72.7079 22.7234 73.4204 22.7234 74.0854Z" fill="#0B0C0D"/>
<path d="M24.6069 71.9479H25.7168V72.7079C25.9099 72.1853 26.489 71.8054 27.0682 71.8054C27.1646 71.8054 27.2612 71.8054 27.3094 71.8529V72.9453C27.2129 72.8978 27.0198 72.8978 26.875 72.8978C26.0064 72.8978 25.7168 73.5152 25.7168 74.2752V76.1751H24.5586V71.9479H24.6069Z" fill="#0B0C0D"/>
<path fill-rule="evenodd" clip-rule="evenodd" d="M27.7507 73.1829C27.7476 73.2139 27.7452 73.2456 27.7439 73.2779V73.1829H27.7507ZM27.7507 73.1829H28.9021C28.9503 72.7555 29.2399 72.5655 29.6742 72.5655C30.1086 72.5655 30.4463 72.6605 30.4463 73.1355C30.4463 73.5441 29.9461 73.6011 29.3453 73.6697C29.2479 73.6808 29.1479 73.6921 29.0469 73.7054C28.323 73.8004 27.5991 74.0379 27.5991 74.9878C27.5991 75.8903 28.2265 76.2703 29.0469 76.2703C29.5777 76.2703 30.1086 76.1277 30.4947 75.7477C30.4947 75.8903 30.5429 76.0327 30.5911 76.1752H31.7976C31.7011 75.9852 31.6528 75.6053 31.6528 75.2253V73.0405C31.6528 72.043 30.6395 71.853 29.7708 71.853C28.8341 71.853 27.852 72.1661 27.7507 73.1829ZM29.7028 74.3448C29.9896 74.3148 30.292 74.2832 30.4443 74.1334H30.4926V74.5608C30.4926 74.7983 30.4443 75.5107 29.5273 75.5107C29.1413 75.5107 28.8035 75.4157 28.8035 74.9883C28.8035 74.5608 29.093 74.4658 29.4791 74.3708C29.5505 74.3608 29.626 74.3529 29.7028 74.3448Z" fill="#0B0C0D"/>
<path d="M34.0188 71.9485H34.8875V72.7085H34.0188V74.7983C34.0188 75.1783 34.1154 75.2732 34.5015 75.2732C34.6463 75.2732 34.7427 75.2732 34.8875 75.2257V76.1281C34.6945 76.1757 34.4532 76.1757 34.2119 76.1757C33.4881 76.1757 32.8606 76.0331 32.8606 75.1782V72.7085H32.1367V71.9485H32.8606V70.6661H34.0188V71.9485Z" fill="#0B0C0D"/>
<path fill-rule="evenodd" clip-rule="evenodd" d="M35.8 71.2829H36.9582V70.333H35.8V71.2829ZM36.9126 71.948H35.7544V76.1751H36.9126V71.948Z" fill="#0B0C0D"/>
<path fill-rule="evenodd" clip-rule="evenodd" d="M42.1737 74.0854C42.1737 72.7555 41.305 71.853 39.9538 71.853C38.6026 71.853 37.7339 72.708 37.7339 74.0854C37.7339 75.4153 38.6026 76.3177 39.9538 76.3177C41.305 76.3177 42.1737 75.4153 42.1737 74.0854ZM41.0193 74.0854C41.0193 74.7504 40.778 75.4153 39.9576 75.4153C39.1372 75.4153 38.8959 74.7504 38.9441 74.0854C38.9441 73.3729 39.1854 72.7079 39.9576 72.7079C40.778 72.7079 41.0193 73.4204 41.0193 74.0854Z" fill="#0B0C0D"/>
<path d="M42.9443 71.9479H44.0543V72.5179H44.1026C44.3921 72.0429 44.923 71.8054 45.4056 71.8054C46.6603 71.8054 46.9499 72.5179 46.9499 73.5628V76.1751H45.7917V73.8002C45.7917 73.0878 45.5986 72.7553 45.0194 72.7553C44.3921 72.7553 44.1026 73.0878 44.1026 73.9428V76.1751H42.9443V71.9479Z" fill="#0B0C0D"/>
</g>
</g>
</g>
<defs>
<clipPath id="clip0_272_3461">
<rect width="46.6667" height="77.7778" fill="white" transform="translate(0.333496 0.229858)"/>
</clipPath>
</defs>
</svg>
