<svg width="94" height="21" viewBox="0 0 94 21" fill="none" xmlns="http://www.w3.org/2000/svg">
<g clip-path="url(#clip0_268_15)">
<path d="M11.9641 0.417358C13.9505 0.743476 15.8183 1.84042 17.0041 3.47101C17.2413 3.79712 17.4785 4.1529 17.6564 4.53829C16.8855 5.07193 16.1147 5.57593 15.3735 6.10961C15.255 6.19854 15.166 6.25783 15.0178 6.31711C14.662 5.42772 14.0394 4.62725 13.239 4.0936C12.646 3.70818 11.9641 3.44136 11.2823 3.29312C11.4898 2.34442 11.727 1.39571 11.9641 0.417358ZM4.78953 1.27712C5.70861 0.980651 6.77589 1.45501 7.16132 2.31477C7.48743 2.96701 7.39846 3.82677 6.95378 4.39007C6.39046 5.10161 5.32318 5.36843 4.52271 4.95336C3.98907 4.68654 3.57401 4.18254 3.45542 3.5896C3.36648 3.14489 3.39613 2.67053 3.6333 2.25548C3.87048 1.78112 4.31519 1.45501 4.78953 1.27712ZM0.698242 11.3868C1.79519 11.3571 2.86248 11.3868 3.95942 11.3868C4.16695 12.5726 4.67096 13.6993 5.47143 14.5887C6.094 15.3002 6.89446 15.8042 7.75425 16.1303C8.94014 16.575 10.2446 16.6343 11.4898 16.3378C12.6164 16.071 13.6244 15.4484 14.3655 14.5294C14.8695 13.9068 15.255 13.1953 15.4625 12.4244C16.4408 12.6913 17.3599 13.047 18.3383 13.3435C18.3086 13.6399 18.19 13.9364 18.0714 14.2329C17.4192 15.9228 16.2036 17.3755 14.6324 18.2945C13.6244 18.8875 12.4681 19.2729 11.3119 19.4211C9.02907 19.7176 6.62764 19.2433 4.7006 17.9684C3.66295 17.2865 2.74389 16.3675 2.09165 15.3002C1.32083 14.1736 0.876125 12.8098 0.698242 11.3868Z" fill="#0B0C0D"/>
<path d="M20.9474 8.7185C22.3408 6.46532 25.4241 5.42767 27.8848 6.46532C28.6557 6.76178 29.1893 7.38439 29.634 8.06624C29.6044 7.5326 29.6044 6.99896 29.6044 6.43567H32.569C32.6284 10.6752 32.4505 14.9147 32.6877 19.1542H29.7822C29.7526 18.5613 29.7229 17.998 29.6933 17.4051C28.1813 20.103 24.2382 20.014 22.1037 18.1759C19.465 15.8634 19.1093 11.5942 20.9474 8.7185ZM25.4538 8.77778C22.7262 9.45967 22.2519 13.1359 23.497 15.2705C24.4458 17.0197 27.114 17.3754 28.4778 15.9228C29.8415 14.4997 29.9601 12.1872 29.1597 10.438C28.537 9.07424 26.8768 8.42203 25.4538 8.77778ZM47.7186 7.35475C49.8828 5.57589 53.2331 5.60557 55.4567 7.29542C57.3244 8.77778 57.8284 11.3274 57.6504 13.5806C54.5375 13.6102 51.3948 13.5806 48.2819 13.5806C48.4302 14.8258 49.1122 16.1006 50.3278 16.575C52.0769 17.4348 54.3893 16.6046 55.012 14.7072C55.8718 14.974 56.7017 15.2409 57.5615 15.478C57.087 16.7825 56.2276 17.998 54.9822 18.6799C52.551 20.0733 49.1716 19.6582 47.1851 17.6422C44.4575 14.9147 44.6651 9.78578 47.7186 7.35475ZM49.1122 9.63757C48.6676 10.1119 48.519 10.7641 48.3413 11.3571C50.4461 11.3571 52.5809 11.4164 54.6857 11.2978C54.4781 10.527 54.2411 9.69685 53.559 9.19285C52.2844 8.24414 50.1796 8.36275 49.1122 9.63757ZM62.1864 7.23614C64.2322 5.66485 67.2264 5.66485 69.3906 6.99896C71.5253 8.39239 72.2369 11.1792 71.9404 13.5806C68.8276 13.551 65.7144 13.5806 62.6015 13.5806C62.7497 14.3218 62.9278 15.0926 63.4318 15.6559C64.5582 17.0493 66.8116 17.3161 68.2344 16.2489C68.7682 15.8634 69.0053 15.2112 69.3906 14.7369C70.2209 14.9444 71.0508 15.2409 71.8811 15.5077C71.4066 16.8418 70.5173 18.0573 69.2424 18.7392C66.8411 20.0437 63.58 19.6879 61.623 17.7609C58.7177 15.0037 58.9548 9.63757 62.1864 7.23614ZM63.3724 9.66721C62.9573 10.1416 62.8091 10.7641 62.631 11.3571H68.9459C68.7977 10.6159 68.5902 9.81542 67.9678 9.28178C66.6929 8.2145 64.4693 8.30342 63.3724 9.66721ZM77.751 7.97732C79.4411 5.36839 83.9177 5.39803 85.3409 8.24414C86.7047 5.90203 90.1139 5.36839 92.2487 6.93967C93.4049 7.82907 93.9384 9.31142 93.9384 10.7345C93.9682 13.5213 93.9384 16.3081 93.9384 19.095H91.0036V11.5942C91.0036 10.8234 90.8849 9.99332 90.351 9.43003C89.2247 8.30342 87.0604 8.59989 86.319 10.023C85.9337 10.6752 85.9337 11.4757 85.9337 12.1872V19.095H82.9691C82.9396 16.3971 82.9986 13.6992 82.9396 11.031C82.9396 9.84507 81.9611 8.74814 80.7455 8.77778C79.3224 8.57024 77.9884 9.7265 77.8996 11.1199C77.8104 13.7881 77.8996 16.4564 77.8697 19.095H74.8756V6.37639H77.7809C77.7809 6.93967 77.7809 7.47332 77.751 7.97732ZM36.4232 6.40603H39.388C39.388 7.05824 39.3581 7.74014 39.3581 8.39239C40.1884 6.73214 42.1156 6.05024 43.8647 6.28742V9.40039C42.8268 9.37075 41.6706 9.25214 40.7813 9.90439C39.8327 10.527 39.5064 11.7425 39.4769 12.8098C39.447 14.9147 39.4769 17.0197 39.447 19.1246H36.4232V6.40603Z" fill="#0B0C0D"/>
</g>
<defs>
<clipPath id="clip0_268_15">
<rect width="93.3333" height="19.7037" fill="white" transform="translate(0.666504 0.417358)"/>
</clipPath>
</defs>
</svg>
