<svg width="99" height="30" viewBox="0 0 99 30" fill="none" xmlns="http://www.w3.org/2000/svg">
<path d="M19.1108 20.4046C17.7056 21.5286 15.7383 22.3718 13.771 22.3718C9.27434 22.3718 6.18288 18.9993 6.18288 14.5026C6.18288 10.006 9.27434 6.91454 13.771 6.91454C15.7383 6.91454 17.7056 7.47661 19.1108 8.8818L19.9539 9.72493L24.4505 5.50933L23.3263 4.66621C20.6955 2.32016 17.2959 1.02028 13.771 1.0127C5.90185 1.0127 0 6.91454 0 14.7837C0 22.6528 5.90185 28.5547 13.771 28.5547C17.2959 28.547 20.6955 27.2472 23.3263 24.9011L24.4505 24.058L19.9539 19.5613L19.1108 20.4046Z" fill="#0B0C0D"/>
<path d="M13.4948 19.2794C15.9782 19.2794 17.9915 17.2662 17.9915 14.7828C17.9915 12.2993 15.9782 10.2861 13.4948 10.2861C11.0114 10.2861 8.99817 12.2993 8.99817 14.7828C8.99817 17.2662 11.0114 19.2794 13.4948 19.2794Z" fill="#0B0C0D"/>
<path d="M38.2426 3.04005L39.9783 6.55347C39.9916 6.57862 40.0109 6.60018 40.0343 6.61632C40.0578 6.63246 40.0849 6.64268 40.1131 6.64615L43.9887 7.21066C44.0204 7.21736 44.0497 7.23222 44.0738 7.25373C44.098 7.27526 44.1161 7.30271 44.1262 7.33337C44.1364 7.36402 44.1385 7.39682 44.1321 7.4285C44.1258 7.46018 44.1112 7.48964 44.0899 7.51397L41.2843 10.2522C41.2625 10.2722 41.2465 10.2975 41.2377 10.3255C41.2288 10.3536 41.2273 10.3836 41.2337 10.4123L41.8908 14.2712C41.8969 14.3042 41.8933 14.3384 41.8806 14.3695C41.8678 14.4005 41.8464 14.4273 41.8191 14.4467C41.7917 14.4663 41.7594 14.4774 41.7258 14.4792C41.6923 14.4809 41.6589 14.4731 41.6297 14.4566L38.1668 12.6366C38.1405 12.624 38.1118 12.6174 38.0825 12.6174C38.0534 12.6174 38.0247 12.624 37.9983 12.6366L34.5355 14.4566C34.5062 14.4731 34.4728 14.4809 34.4393 14.4792C34.4058 14.4774 34.3733 14.4663 34.346 14.4467C34.3186 14.4273 34.2972 14.4005 34.2847 14.3695C34.272 14.3384 34.2684 14.3042 34.2743 14.2712L34.9315 10.4123C34.9378 10.3836 34.9364 10.3536 34.9276 10.3255C34.9186 10.2975 34.9026 10.2722 34.8809 10.2522L32.0752 7.51397C32.054 7.48964 32.0394 7.46018 32.033 7.4285C32.0267 7.39682 32.0288 7.36402 32.0388 7.33337C32.0492 7.30271 32.0672 7.27526 32.0913 7.25373C32.1153 7.23222 32.1447 7.21736 32.1763 7.21066L36.052 6.64615C36.0804 6.64268 36.1073 6.63246 36.1308 6.61632C36.1543 6.60018 36.1736 6.57862 36.1868 6.55347L37.9226 3.04005C37.9368 3.00968 37.9594 2.98399 37.9878 2.96602C38.0161 2.94803 38.049 2.93848 38.0825 2.93848C38.1162 2.93848 38.149 2.94803 38.1774 2.96602C38.2057 2.98399 38.2284 3.00968 38.2426 3.04005Z" fill="#0B0C0D"/>
<path d="M51.8308 2.95216L53.5665 6.46559C53.5798 6.49073 53.5991 6.51231 53.6226 6.52843C53.6461 6.54458 53.673 6.5548 53.7012 6.55826L57.577 7.12277C57.6087 7.12947 57.6379 7.14433 57.662 7.16585C57.6861 7.18737 57.7042 7.21483 57.7144 7.24548C57.7246 7.27613 57.7267 7.30893 57.7202 7.34061C57.714 7.3723 57.6994 7.40175 57.6782 7.42608L54.8725 10.1644C54.8508 10.1843 54.8348 10.2096 54.8258 10.2377C54.817 10.2657 54.8156 10.2957 54.8219 10.3244L55.4791 14.1833C55.485 14.2164 55.4814 14.2505 55.4687 14.2815C55.4561 14.3127 55.4347 14.3395 55.4074 14.3589C55.38 14.3783 55.3476 14.3896 55.314 14.3913C55.2806 14.3931 55.2472 14.3852 55.2179 14.3686L51.755 12.5487C51.7287 12.5361 51.6999 12.5295 51.6708 12.5295C51.6416 12.5295 51.6128 12.5361 51.5865 12.5487L48.1237 14.3686C48.0943 14.3852 48.0611 14.3931 48.0276 14.3913C47.9939 14.3896 47.9616 14.3783 47.9343 14.3589C47.9068 14.3395 47.8855 14.3127 47.8728 14.2815C47.8601 14.2505 47.8565 14.2164 47.8626 14.1833L48.5197 10.3244C48.5259 10.2957 48.5246 10.2657 48.5157 10.2377C48.5069 10.2096 48.4907 10.1843 48.4691 10.1644L45.6635 7.42608C45.6422 7.40175 45.6276 7.3723 45.6213 7.34061C45.6149 7.30893 45.617 7.27613 45.6271 7.24548C45.6373 7.21483 45.6554 7.18737 45.6795 7.16585C45.7036 7.14433 45.733 7.12947 45.7645 7.12277L49.6403 6.55826C49.6685 6.5548 49.6956 6.54458 49.719 6.52843C49.7424 6.51231 49.7617 6.49073 49.775 6.46559L51.5107 2.95216C51.525 2.92179 51.5477 2.89611 51.576 2.87812C51.6044 2.86014 51.6372 2.85059 51.6708 2.85059C51.7044 2.85059 51.7372 2.86014 51.7655 2.87812C51.7938 2.89611 51.8166 2.92179 51.8308 2.95216Z" fill="#0B0C0D"/>
<path d="M65.4192 3.04005L67.1547 6.55347C67.1682 6.57862 67.1874 6.60018 67.2108 6.61632C67.2343 6.63246 67.2614 6.64268 67.2896 6.64615L71.1652 7.21066C71.1969 7.21736 71.2262 7.23222 71.2502 7.25373C71.2744 7.27526 71.2926 7.30271 71.3026 7.33337C71.3129 7.36402 71.3149 7.39682 71.3086 7.4285C71.3023 7.46018 71.2876 7.48964 71.2664 7.51397L68.4608 10.2522C68.439 10.2722 68.423 10.2975 68.4142 10.3255C68.4053 10.3536 68.4038 10.3836 68.4102 10.4123L69.0673 14.2712C69.0734 14.3042 69.0698 14.3384 69.0571 14.3695C69.0443 14.4005 69.0229 14.4273 68.9956 14.4467C68.9682 14.4663 68.936 14.4774 68.9023 14.4792C68.8688 14.4809 68.8354 14.4731 68.8062 14.4566L65.3432 12.6366C65.3171 12.624 65.2882 12.6174 65.259 12.6174C65.2299 12.6174 65.2011 12.624 65.1747 12.6366L61.7119 14.4566C61.6827 14.4731 61.6493 14.4809 61.6158 14.4792C61.5823 14.4774 61.5498 14.4663 61.5225 14.4467C61.495 14.4273 61.4738 14.4005 61.4611 14.3695C61.4485 14.3384 61.4448 14.3042 61.4508 14.2712L62.1079 10.4123C62.1143 10.3836 62.1129 10.3536 62.1041 10.3255C62.0951 10.2975 62.0791 10.2722 62.0573 10.2522L59.2517 7.51397C59.2305 7.48964 59.2158 7.46018 59.2095 7.4285C59.2032 7.39682 59.2052 7.36402 59.2153 7.33337C59.2257 7.30271 59.2437 7.27526 59.2677 7.25373C59.2918 7.23222 59.3212 7.21736 59.3528 7.21066L63.2285 6.64615C63.2569 6.64268 63.2838 6.63246 63.3073 6.61632C63.3308 6.60018 63.35 6.57862 63.3632 6.55347L65.099 3.04005C65.1133 3.00968 65.1359 2.98399 65.1643 2.96602C65.1926 2.94803 65.2255 2.93848 65.259 2.93848C65.2926 2.93848 65.3255 2.94803 65.3539 2.96602C65.3822 2.98399 65.4048 3.00968 65.4192 3.04005Z" fill="#0B0C0D"/>
<path d="M79.0073 3.04005L80.743 6.55347C80.7563 6.57862 80.7756 6.60018 80.799 6.61632C80.8226 6.63246 80.8495 6.64268 80.8777 6.64615L84.7534 7.21066C84.7852 7.21736 84.8144 7.23222 84.8385 7.25373C84.8625 7.27526 84.8807 7.30271 84.8909 7.33337C84.9011 7.36402 84.9032 7.39682 84.8967 7.4285C84.8905 7.46018 84.8759 7.48964 84.8546 7.51397L82.049 10.2522C82.0273 10.2722 82.0112 10.2975 82.0023 10.3255C81.9935 10.3536 81.9921 10.3836 81.9984 10.4123L82.6555 14.2712C82.6615 14.3042 82.6579 14.3384 82.6452 14.3695C82.6325 14.4005 82.6112 14.4273 82.5839 14.4467C82.5564 14.4663 82.5241 14.4774 82.4904 14.4792C82.457 14.4809 82.4236 14.4731 82.3944 14.4566L78.9315 12.6366C78.9052 12.624 78.8763 12.6174 78.8472 12.6174C78.8181 12.6174 78.7892 12.624 78.763 12.6366L75.3002 14.4566C75.2708 14.4731 75.2375 14.4809 75.204 14.4792C75.1705 14.4774 75.138 14.4663 75.1107 14.4467C75.0833 14.4273 75.0619 14.4005 75.0492 14.3695C75.0366 14.3384 75.0329 14.3042 75.039 14.2712L75.6962 10.4123C75.7025 10.3836 75.7011 10.3536 75.6922 10.3255C75.6834 10.2975 75.6672 10.2722 75.6456 10.2522L72.8399 7.51397C72.8187 7.48964 72.8041 7.46018 72.7977 7.4285C72.7914 7.39682 72.7935 7.36402 72.8036 7.33337C72.8138 7.30271 72.8319 7.27526 72.856 7.25373C72.88 7.23222 72.9094 7.21736 72.941 7.21066L76.8167 6.64615C76.845 6.64268 76.872 6.63246 76.8956 6.61632C76.9189 6.60018 76.9381 6.57862 76.9515 6.55347L78.6871 3.04005C78.7015 3.00968 78.7241 2.98399 78.7525 2.96602C78.7808 2.94803 78.8137 2.93848 78.8472 2.93848C78.8809 2.93848 78.9136 2.94803 78.9419 2.96602C78.9704 2.98399 78.9931 3.00968 79.0073 3.04005Z" fill="#0B0C0D"/>
<path d="M92.5956 3.04005L94.3312 6.55347C94.3447 6.57862 94.3638 6.60018 94.3874 6.61632C94.4108 6.63246 94.4378 6.64268 94.466 6.64615L98.3418 7.21066C98.3738 7.21736 98.403 7.23222 98.4272 7.25373C98.4505 7.27526 98.469 7.30271 98.4796 7.33337C98.4893 7.36402 98.4913 7.39682 98.4854 7.4285C98.4787 7.46018 98.4641 7.48964 98.4427 7.51397L95.6372 10.2522C95.6155 10.2722 95.5994 10.2975 95.5906 10.3255C95.5817 10.3536 95.5804 10.3836 95.5866 10.4123L96.2438 14.2712C96.2498 14.3042 96.2462 14.3384 96.2335 14.3695C96.2207 14.4005 96.1995 14.4273 96.1721 14.4467C96.1446 14.4663 96.1124 14.4774 96.0788 14.4792C96.0452 14.4809 96.0119 14.4731 95.9826 14.4566L92.5197 12.6366C92.4935 12.624 92.4647 12.6174 92.4354 12.6174C92.4063 12.6174 92.3776 12.624 92.3512 12.6366L88.8884 14.4566C88.8591 14.4731 88.8258 14.4809 88.7922 14.4792C88.7587 14.4774 88.7264 14.4663 88.6989 14.4467C88.6715 14.4273 88.6503 14.4005 88.6376 14.3695C88.6248 14.3384 88.6213 14.3042 88.6272 14.2712L89.2844 10.4123C89.2907 10.3836 89.2893 10.3536 89.2805 10.3255C89.2716 10.2975 89.2555 10.2722 89.2338 10.2522L86.4281 7.51397C86.4069 7.48964 86.3924 7.46018 86.386 7.4285C86.3796 7.39682 86.3817 7.36402 86.3919 7.33337C86.4021 7.30271 86.4201 7.27526 86.4442 7.25373C86.4683 7.23222 86.4976 7.21736 86.5292 7.21066L90.405 6.64615C90.4332 6.64268 90.4602 6.63246 90.4836 6.61632C90.5072 6.60018 90.5264 6.57862 90.5398 6.55347L92.2755 3.04005C92.2897 3.00968 92.3124 2.98399 92.3407 2.96602C92.3691 2.94803 92.4019 2.93848 92.4354 2.93848C92.4691 2.93848 92.502 2.94803 92.5303 2.96602C92.5586 2.98399 92.5813 3.00968 92.5956 3.04005Z" fill="#0B0C0D"/>
<path d="M93.3049 21.9663C94.2589 21.9663 94.8979 22.5243 94.8979 23.7753V26.4033H94.1689V23.9823C94.1689 22.9923 93.7369 22.6413 93.0979 22.6413C92.2249 22.6413 91.6759 23.2173 91.6759 24.1983V26.4033H90.9469V19.7793H91.6759V22.7403H91.6939C92.0539 22.2363 92.6299 21.9663 93.3049 21.9663Z" fill="#0B0C0D"/>
<path d="M88.1438 26.4578C86.8838 26.4578 85.9748 25.5488 85.9748 24.2168C85.9748 22.8938 86.8838 21.9668 88.1708 21.9668C88.8278 21.9668 89.5028 22.2368 89.9348 22.7498L89.4308 23.1908C89.1608 22.8578 88.7288 22.6418 88.2068 22.6418C87.3248 22.6418 86.7128 23.2898 86.7128 24.2168C86.7128 25.1528 87.3248 25.7918 88.2068 25.7918C88.7198 25.7918 89.1788 25.5668 89.4488 25.2698L89.9528 25.7198C89.5838 26.1338 88.9268 26.4578 88.1438 26.4578Z" fill="#0B0C0D"/>
<path d="M84.4106 26.4573C83.6276 26.4573 83.2676 25.9803 83.2676 25.0983V22.6503H82.7096V22.0203H83.2676V20.5263L83.9966 20.4453V22.0203H85.4546V22.6503H83.9966V24.9903C83.9966 25.5123 84.1226 25.7733 84.5366 25.7733C84.7976 25.7733 85.0676 25.6653 85.2746 25.5483L85.4726 26.1873C85.2296 26.3223 84.9236 26.4573 84.4106 26.4573Z" fill="#0B0C0D"/>
<path d="M81.0945 22.0205H81.8235V26.4035H81.0945V25.6745H81.0855C80.7345 26.1785 80.2125 26.4575 79.6455 26.4575C78.6375 26.4575 77.9985 25.8815 77.9985 24.6305V22.0205H78.7275V24.4235C78.7275 25.4225 79.0965 25.7915 79.7985 25.7915C80.4915 25.7915 81.0945 25.1885 81.0945 24.1445V22.0205Z" fill="#0B0C0D"/>
<path d="M75.9015 26.4033V19.7793H76.6305V26.4033H75.9015Z" fill="#0B0C0D"/>
<path d="M72.3147 26.4482C70.5867 26.4482 69.1287 25.3232 69.1287 23.2352C69.1287 21.4172 70.2627 19.9502 72.3147 19.9502C73.1967 19.9502 74.1147 20.3102 74.8077 21.1742L74.2227 21.6602C73.7367 21.0482 73.0527 20.6972 72.3147 20.6972C70.8567 20.6972 69.9477 21.7502 69.9477 23.2352C69.9477 24.7562 70.9647 25.7012 72.3147 25.7012C73.1427 25.7012 73.7727 25.3052 74.2227 24.7472L74.8077 25.2422C74.2497 25.9352 73.4397 26.4482 72.3147 26.4482Z" fill="#0B0C0D"/>
<path d="M63.9224 21.9668C64.8674 21.9668 65.4974 22.5518 65.4974 23.8028V26.4038H64.7684V24.0098C64.7684 22.9838 64.3364 22.6418 63.6974 22.6418C62.8694 22.6418 62.3204 23.2268 62.3204 24.2168V26.4038H61.5914V22.0208H62.3204V22.7858H62.3294C62.6984 22.2638 63.2744 21.9668 63.9224 21.9668Z" fill="#0B0C0D"/>
<path d="M58.2193 26.4578C56.8513 26.4578 55.9513 25.4768 55.9513 24.2168C55.9513 22.9568 56.8513 21.9668 58.2193 21.9668C59.5063 21.9668 60.4693 22.8848 60.4693 24.2168C60.4693 25.5488 59.5063 26.4578 58.2193 26.4578ZM58.2193 25.7918C59.0653 25.7918 59.7313 25.1438 59.7313 24.2168C59.7313 23.2808 59.0653 22.6418 58.2193 22.6418C57.3013 22.6418 56.6893 23.3438 56.6893 24.2168C56.6893 25.0898 57.3103 25.7918 58.2193 25.7918Z" fill="#0B0C0D"/>
<path d="M50.605 22.4797C51.703 22.4797 52.603 23.2087 52.603 24.4507C52.603 25.6477 51.649 26.4667 50.452 26.4667C49.597 26.4667 48.832 26.0797 48.4 25.4317L48.967 24.9997C49.246 25.4587 49.759 25.7557 50.398 25.7557C51.199 25.7557 51.838 25.1977 51.838 24.4417C51.838 23.6047 51.154 23.1457 50.407 23.1457C50.002 23.1457 49.606 23.2357 49.318 23.4877L48.877 23.3527L49.057 20.2207H52.324V20.9227H49.768L49.669 22.6597C50.002 22.5427 50.371 22.4797 50.605 22.4797Z" fill="#0B0C0D"/>
<path d="M44.6555 27.4206L44.0615 27.1506L47.5265 19.4736L48.1115 19.7526L44.6555 27.4206Z" fill="#0B0C0D"/>
<path d="M42.7187 23.056C43.3937 23.272 43.8977 23.857 43.8977 24.703C43.8977 25.774 42.9347 26.458 41.7197 26.458C40.4507 26.458 39.5507 25.711 39.5507 24.703C39.5507 23.866 40.0457 23.272 40.7207 23.056V23.047C40.2977 22.912 39.8567 22.408 39.8567 21.742C39.8567 20.752 40.6577 20.167 41.7197 20.167C42.8357 20.167 43.5917 20.797 43.5917 21.742C43.5917 22.408 43.1417 22.912 42.7187 23.047V23.056ZM41.7197 20.842C41.0357 20.842 40.5857 21.283 40.5857 21.796C40.5857 22.363 41.0537 22.732 41.7197 22.732C42.3947 22.732 42.8717 22.363 42.8717 21.796C42.8717 21.238 42.3767 20.842 41.7197 20.842ZM41.7197 25.774C42.5657 25.774 43.1147 25.234 43.1147 24.622C43.1147 23.92 42.5567 23.434 41.7197 23.434C40.8737 23.434 40.3157 23.92 40.3157 24.622C40.3157 25.288 40.9367 25.774 41.7197 25.774Z" fill="#0B0C0D"/>
<path d="M38.0548 26.4574C37.7578 26.4574 37.5328 26.2324 37.5328 25.9534C37.5328 25.6654 37.7578 25.4404 38.0548 25.4404C38.3338 25.4404 38.5678 25.6654 38.5678 25.9534C38.5678 26.2324 38.3338 26.4574 38.0548 26.4574Z" fill="#0B0C0D"/>
<path d="M35.15 26.4037V25.3147H32.279V24.7747L35.267 20.2207H35.906V24.6307H36.806V25.3147H35.906V26.4037H35.15ZM33.188 24.6487H35.168V21.5977L33.188 24.6487Z" fill="#0B0C0D"/>
</svg>
