<svg width="87" height="23" viewBox="0 0 87 23" fill="none" xmlns="http://www.w3.org/2000/svg">
<g clip-path="url(#clip0_289_4970)">
<mask id="mask0_289_4970" style="mask-type:luminance" maskUnits="userSpaceOnUse" x="0" y="0" width="87" height="23">
<path d="M86.6667 0.895752H0V22.1376H86.6667V0.895752Z" fill="white"/>
</mask>
<g mask="url(#mask0_289_4970)">
<mask id="mask1_289_4970" style="mask-type:luminance" maskUnits="userSpaceOnUse" x="0" y="0" width="87" height="23">
<path d="M86.6667 0.895752H0V22.1376H86.6667V0.895752Z" fill="white"/>
</mask>
<g mask="url(#mask1_289_4970)">
<path d="M10.327 21.4784C13.7528 21.4784 16.363 19.9014 18.0216 17.835L15.2211 15.4151C14.0792 16.829 12.339 17.8622 10.327 17.8622C6.87392 17.8622 4.48123 15.2792 4.48123 11.6901C4.48123 7.82923 6.98267 5.38217 10.327 5.38217C12.339 5.38217 14.0792 6.49694 15.2211 7.82923L18.0216 5.43655C15.9009 2.85354 12.9915 1.73877 10.327 1.73877C4.01902 1.73877 0.484375 6.17067 0.484375 11.6901C0.484375 18.0525 5.05222 21.4784 10.327 21.4784Z" fill="#0B0C0D"/>
<path d="M26.8771 21.5056C31.0099 21.5056 33.9464 18.7322 33.9464 14.6538C33.9464 10.5754 31.0099 7.802 26.8771 7.802C22.6627 7.802 19.835 10.6841 19.835 14.6538C19.835 18.6234 22.6627 21.5056 26.8771 21.5056ZM26.8771 18.3244C24.8651 18.3244 23.424 16.7202 23.424 14.6538C23.424 12.5602 24.8107 10.9832 26.8771 10.9832C28.8619 10.9832 30.3301 12.4786 30.3301 14.6538C30.3301 16.8017 28.8075 18.3244 26.8771 18.3244Z" fill="#0B0C0D"/>
<path d="M41.0876 21.5056C44.5679 21.5056 46.2537 19.7383 46.2537 17.3728C46.2537 14.7626 44.5679 14.1372 41.6858 13.0768C40.3807 12.5874 39.6738 12.2068 39.6738 11.6629C39.6738 10.956 40.4079 10.657 40.9788 10.657C41.9577 10.657 43.1268 11.0919 44.16 12.0708L45.8729 9.46059C44.3775 8.29142 42.8822 7.802 41.0332 7.802C38.3143 7.802 36.2479 9.379 36.2479 11.7717C36.2479 14.3275 38.1511 15.3607 40.3263 16.0948C42.0665 16.6386 42.7462 16.9377 42.7462 17.5631C42.7462 18.2156 42.148 18.6506 41.1148 18.6506C39.6738 18.6506 38.5317 18.1341 37.4442 17.1009L35.7041 19.5751C37.1723 20.8258 38.9668 21.5056 41.0876 21.5056Z" fill="#0B0C0D"/>
<path d="M65.1572 7.802C63.254 7.802 61.6226 8.53612 60.535 9.9228H60.4807C59.665 8.45455 58.2783 7.802 56.5382 7.802C55.0427 7.802 53.6017 8.48174 52.5685 9.78687H52.5413V8.01952H48.9795V21.2881H52.5413V14.6538C52.5413 12.2611 53.7377 10.9832 55.3419 10.9832C57.0004 10.9832 57.6801 12.3155 57.6801 14.4362V21.2881H61.242V14.6538C61.242 12.2611 62.4655 10.9832 63.9609 10.9832C65.6195 10.9832 66.272 12.3155 66.272 14.4362V21.2881H69.8339V13.5662C69.8339 9.51495 68.0394 7.802 65.1572 7.802Z" fill="#0B0C0D"/>
<path d="M79.5568 21.5056C83.6896 21.5056 86.626 18.7322 86.626 14.6538C86.626 10.5754 83.6896 7.802 79.5568 7.802C75.3424 7.802 72.5146 10.6841 72.5146 14.6538C72.5146 18.6234 75.3424 21.5056 79.5568 21.5056ZM79.5568 18.3244C77.5447 18.3244 76.1037 16.7202 76.1037 14.6538C76.1037 12.5602 77.4903 10.9832 79.5568 10.9832C81.5415 10.9832 83.0098 12.4786 83.0098 14.6538C83.0098 16.8017 81.4872 18.3244 79.5568 18.3244Z" fill="#0B0C0D"/>
</g>
</g>
</g>
<defs>
<clipPath id="clip0_289_4970">
<rect width="86.6667" height="21.4521" fill="white" transform="translate(0 0.895752)"/>
</clipPath>
</defs>
</svg>
