<svg width="80" height="45" viewBox="0 0 80 45" fill="none" xmlns="http://www.w3.org/2000/svg">
<path fill-rule="evenodd" clip-rule="evenodd" d="M44.6157 1.56772C42.0567 1.7453 39.6875 2.84879 37.9341 4.68022C37.6035 5.02538 26.9994 16.4005 26.9452 16.4681C26.8586 16.5759 26.8752 16.7282 26.9808 16.7934C27.0236 16.82 27.1106 16.8268 28.5042 16.9126C29.6079 16.9808 29.9943 17.0088 30.0295 17.0234C30.1249 17.0634 30.1593 17.1912 30.1003 17.2866C30.0839 17.3132 28.4956 19.0344 26.5708 21.1114C24.646 23.1884 23.0602 24.9064 23.047 24.9292C22.9848 25.036 23.081 25.1904 23.2099 25.1906C23.2349 25.1906 25.5117 24.4773 28.2694 23.6056C31.0272 22.7339 33.2984 22.0173 33.3168 22.0131C33.3792 21.9989 33.4539 22.0265 33.5067 22.0831C33.6073 22.1907 33.6475 22.1025 32.8702 23.478C32.1275 24.7921 32.1535 24.7383 32.2069 24.8431C32.2391 24.906 32.3167 24.9646 32.3788 24.973C32.4172 24.9782 34.2831 24.5669 39.6163 23.3778C43.5686 22.4967 46.8832 21.7614 46.9824 21.744C53.7376 20.5527 57.4158 13.2258 54.3275 7.11238C52.5035 3.50153 48.6287 1.28935 44.6157 1.56772ZM47.1762 6.74182C47.2322 6.80321 47.216 6.63543 47.3638 8.68563C47.4348 9.67173 47.4936 10.4795 47.4942 10.4803C47.4948 10.4811 48.2003 10.8942 49.0618 11.3982C50.7401 12.3799 50.7023 12.3557 50.7115 12.4539C50.7259 12.6086 50.8664 12.5395 48.9428 13.3248C48.0599 13.6853 47.316 13.9905 47.29 14.0027L47.2426 14.0251L46.9134 15.5316C46.7324 16.3601 46.5557 17.17 46.5207 17.3314C46.4497 17.6584 46.4291 17.6987 46.3249 17.7183C46.2163 17.7387 46.2533 17.7785 44.989 16.2787C44.3437 15.5132 43.8097 14.8844 43.8023 14.8814C43.7951 14.8784 40.8076 16.1567 37.1634 17.7219C30.857 20.4309 30.5362 20.5671 30.504 20.5491C30.4796 20.5353 30.4692 20.5173 30.4664 20.4827L30.4622 20.4351L36.1891 16.1447C39.3388 13.7851 41.9159 11.8493 41.9159 11.8431C41.9159 11.8367 41.5897 11.0862 41.1912 10.1753C40.7926 9.26417 40.4625 8.50224 40.4577 8.48165C40.4361 8.39225 40.5397 8.27367 40.6406 8.27247C40.6542 8.27247 41.4562 8.46725 42.4229 8.70562C43.3898 8.9438 44.1897 9.13878 44.2009 9.13878C44.2119 9.13878 44.829 8.59723 45.572 7.9351C46.3151 7.27296 46.9378 6.72062 46.9558 6.70762C47.0128 6.66662 47.1228 6.68362 47.1762 6.74182ZM18.9456 31.6828C17.9389 32.0546 17.6175 32.1785 17.6095 32.1977C17.6039 32.2117 17.1729 34.2241 16.6518 36.6695C16.1306 39.1149 15.7011 41.1263 15.6971 41.1391C15.6905 41.1613 15.7549 41.1625 16.9224 41.1625H18.1546L18.1688 41.0925C18.1892 40.9921 20.278 31.256 20.2868 31.22C20.2966 31.1804 20.4348 31.1326 18.9456 31.6828ZM22.5112 31.2054C21.8941 31.2748 21.4165 31.676 21.2715 32.2473C21.0184 33.2454 21.6431 34.019 22.6644 33.9722C23.4563 33.936 23.9767 33.4816 24.0899 32.7273C24.235 31.7616 23.5385 31.0902 22.5112 31.2054ZM1.68704 32.3525C1.67824 32.3795 0 41.0205 0 41.0399C0 41.0743 3.95321 41.0541 4.23239 41.0183C5.97702 40.7945 7.2007 40.0656 8.01562 38.7643C8.87734 37.3886 9.14791 35.169 8.59856 33.9804C8.52897 33.8298 8.42458 33.6564 8.40338 33.6564C8.39398 33.6564 7.89263 33.836 7.28949 34.0554C6.68635 34.2747 6.1418 34.4727 6.07941 34.4953L5.96602 34.5363L6.02821 34.4797C6.1838 34.3381 7.63926 32.9319 7.63926 32.9231C7.63926 32.9065 7.30709 32.7423 7.1459 32.6795C6.74134 32.5213 6.31878 32.4301 5.69945 32.3673C5.40707 32.3377 1.69663 32.3239 1.68704 32.3525ZM53.5748 32.3533C53.5606 32.3933 51.8799 41.0501 51.8848 41.0591C51.8876 41.0645 52.4923 41.0691 53.2286 41.0691H54.5675L54.5745 41.0391C54.5783 41.0225 54.7197 40.2921 54.8887 39.4158C55.0578 38.5397 55.1994 37.8092 55.2034 37.7928L55.2108 37.7628H56.3359C56.9893 37.7628 57.461 37.7678 57.461 37.7746C57.461 37.7812 57.32 38.5165 57.1478 39.4084C56.9755 40.3005 56.8345 41.0391 56.8345 41.0497C56.8345 41.0665 57.0142 41.0691 58.1793 41.0691H59.524L59.5388 40.9925C59.644 40.4453 61.2108 32.3885 61.2162 32.3665L61.2236 32.3365H59.8756C59.1342 32.3365 58.5275 32.3381 58.5275 32.3399C58.5273 32.3417 58.3905 33.0393 58.2231 33.8898L57.9192 35.4362L56.7887 35.4396L55.6584 35.443L55.6658 35.413C55.6698 35.3964 55.8024 34.7231 55.9605 33.9164C56.1185 33.1098 56.2531 32.4245 56.2595 32.3933L56.2713 32.3365H54.9259C53.8618 32.3365 53.5794 32.3401 53.5748 32.3533ZM12.7072 34.2967C10.4482 34.4745 9.03392 36.2343 9.03292 38.8693C9.03232 40.2032 9.46808 40.8535 10.5516 41.1367C11.5267 41.3914 13.3353 41.3069 14.482 40.9531L14.6386 40.9047V39.979C14.6386 39.2439 14.6352 39.0545 14.622 39.0595C14.0666 39.2702 12.8186 39.443 12.229 39.3906C11.7019 39.3436 11.5343 39.2021 11.5481 38.8153C11.5549 38.6229 11.5201 38.6473 11.8125 38.6299C14.4796 38.4709 15.8649 37.547 15.7323 36.015C15.6281 34.8105 14.4784 34.1575 12.7072 34.2967ZM33.9633 34.2911C33.1224 34.3563 32.5522 34.5353 31.9903 34.9109C30.8962 35.642 30.2303 37.0601 30.1879 38.7493C30.1483 40.3231 30.7512 41.0519 32.2435 41.2345C33.3148 41.3654 34.983 41.2123 35.7731 40.9105L35.8099 40.8965V39.9762C35.8099 39.47 35.8047 39.0559 35.7985 39.0559C35.7925 39.0559 35.7521 39.0681 35.7093 39.0829C35.1002 39.2922 33.9417 39.4428 33.3587 39.3882C32.869 39.3424 32.7098 39.2093 32.7104 38.8463C32.7108 38.6295 32.6898 38.6467 32.9768 38.6295C35.4879 38.4801 36.8272 37.6786 36.898 36.2829C36.9486 35.2856 36.3565 34.6041 35.2428 34.3779C34.903 34.3089 34.2789 34.2665 33.9633 34.2911ZM41.6693 34.2973C41.1776 34.3653 40.7576 34.6421 40.2739 35.2174L40.1495 35.3656L40.1407 35.2942C40.1361 35.255 40.1215 35.0625 40.1085 34.8663L40.0851 34.5095L39.1244 34.5129L38.1637 34.5163L37.5345 37.7428C37.1884 39.5172 36.9012 40.9917 36.8964 41.0191L36.8874 41.0691H38.1685C38.873 41.0691 39.4496 41.0655 39.4496 41.0609C39.4496 41.0259 39.9921 38.2393 40.0237 38.1118C40.2229 37.3088 40.5954 36.8311 41.0752 36.7629C41.2062 36.7443 41.5758 36.7773 41.7641 36.8245C41.7857 36.8299 41.7943 36.8241 41.8003 36.8005C41.8047 36.7835 41.9615 36.2237 42.1485 35.557C42.3839 34.7179 42.4841 34.3415 42.4737 34.3351C42.4163 34.2995 41.8465 34.2729 41.6693 34.2973ZM64.6937 34.2923C62.4977 34.4089 61.0826 36.0376 60.9403 38.6119C60.8595 40.0722 61.336 40.8505 62.4895 41.1429C63.4742 41.3926 65.2508 41.3039 66.4169 40.9467L66.5535 40.9049V39.979C66.5535 39.1979 66.5507 39.0543 66.5351 39.0601C66.1424 39.2109 65.1601 39.3794 64.5671 39.398C63.7022 39.4248 63.4018 39.2514 63.459 38.7585C63.4738 38.6299 63.4406 38.6463 63.721 38.6295C66.209 38.4799 67.5354 37.7064 67.6474 36.3395C67.7598 34.9713 66.6317 34.1895 64.6937 34.2923ZM72.4233 34.2977C71.9452 34.3533 71.494 34.6519 71.0089 35.2338C70.9469 35.3084 70.8973 35.3572 70.8941 35.3472C70.8911 35.3376 70.8791 35.1856 70.8673 35.0097C70.8555 34.8337 70.8423 34.6493 70.8379 34.5997L70.8297 34.5097H69.8724H68.9151L68.9007 34.5797C68.8537 34.8081 67.6468 41.0363 67.6468 41.0511C67.6468 41.0661 67.8596 41.0691 68.9197 41.0691H70.1926L70.1998 41.0391C70.2038 41.0225 70.3208 40.4181 70.4599 39.6958C70.7909 37.9774 70.7987 37.9434 70.9333 37.621C71.2503 36.8617 71.7376 36.6153 72.5087 36.8243C72.5347 36.8313 72.5403 36.8231 72.5643 36.7409C72.7271 36.1843 73.2333 34.3569 73.2283 34.3437C73.2109 34.2985 72.6779 34.2681 72.4233 34.2977ZM76.7259 34.2921C74.5127 34.4153 73.1097 35.7886 72.8391 38.096C72.5895 40.2244 73.5568 41.2812 75.7552 41.2822C78.07 41.2833 79.5589 40.0256 79.9254 37.7594C80.3118 35.3708 79.1899 34.1549 76.7259 34.2921ZM5.00851 34.4221C5.81223 34.5579 6.1724 35.1376 6.09401 36.1696C5.97402 37.7512 5.1293 38.8041 3.85322 38.9619C3.71464 38.9791 3.0797 38.9807 3.0797 38.9639C3.0797 38.9469 3.95901 34.4417 3.96821 34.4111C3.97841 34.3781 4.79873 34.3867 5.00851 34.4221ZM20.6616 35.5262C20.5466 36.0854 20.2568 37.5448 20.0177 38.7693C19.7787 39.9938 19.5797 41.0093 19.5757 41.0257L19.5685 41.0557H20.8482H22.1276L22.1426 40.9791C22.1508 40.9369 22.433 39.4866 22.7698 37.756C23.1066 36.0256 23.3863 34.5873 23.3913 34.5597L23.4007 34.5097H22.1358H20.871L20.6616 35.5262ZM23.9483 35.4862C23.9553 36.4699 23.9629 36.6991 24.0115 37.4428C24.0839 38.5463 24.2142 39.6298 24.3996 40.6691C24.429 40.8341 24.4564 40.9885 24.4604 41.0125L24.4678 41.0557H26.0361H27.6043L27.7829 40.7275C28.6262 39.1789 29.4107 37.5302 30.1709 35.7096C30.344 35.2948 30.6504 34.5353 30.6504 34.5207C30.6504 34.5147 30.0723 34.5097 29.3659 34.5097H28.0815L27.8521 35.1996C27.4277 36.4763 27.0908 37.3772 26.7426 38.1674L26.5908 38.5119L26.568 38.2609C26.4878 37.3768 26.4466 35.1892 26.4992 34.5997L26.5072 34.5097H25.2241H23.9411L23.9483 35.4862ZM43.0798 35.233C43.0878 35.9492 43.0962 36.1901 43.1362 36.8361C43.2276 38.3119 43.431 39.7224 43.7103 40.8195L43.7707 41.0565L43.6845 41.1667C43.3732 41.5656 43.272 41.6044 42.5225 41.6124L41.9893 41.618L41.7899 42.5583C41.5951 43.4772 41.5911 43.499 41.6165 43.5176C41.7373 43.606 42.2783 43.7084 42.625 43.7086C44.9174 43.7102 46.6039 41.8824 48.6713 37.1561C48.994 36.4179 49.7418 34.5775 49.7418 34.5209C49.7418 34.5147 49.1658 34.5097 48.4619 34.5097C47.4244 34.5097 47.182 34.5129 47.182 34.5269C47.182 34.6315 46.6613 36.1913 46.3691 36.9617C46.1593 37.5152 45.7465 38.5049 45.7319 38.4901C45.7171 38.4753 45.6626 37.651 45.6362 37.0429C45.604 36.2999 45.6086 34.7209 45.6436 34.5463L45.651 34.5097H44.3615H43.0718L43.0798 35.233ZM12.9865 36.0298C13.2691 36.0834 13.4105 36.3351 13.2915 36.5731C13.1495 36.8573 12.715 37.0229 12.0358 37.0519L11.8396 37.0603L11.8658 36.9683C11.9956 36.5127 12.2558 36.1889 12.5844 36.0748C12.7352 36.0224 12.8685 36.0074 12.9865 36.0298ZM34.2417 36.0568C34.3887 36.1118 34.4938 36.2525 34.4938 36.3943C34.4938 36.7799 33.9161 37.0557 33.1078 37.0561H32.999L33.0322 36.9461C33.235 36.2773 33.7733 35.8816 34.2417 36.0568ZM64.8941 36.0308C65.1613 36.0802 65.3072 36.3075 65.2206 36.5389C65.1099 36.8343 64.6485 37.0215 63.9572 37.0515C63.8452 37.0563 63.7538 37.0565 63.7538 37.0517C63.7538 37.0261 63.8426 36.7715 63.8808 36.6879C64.0492 36.3185 64.3355 36.0794 64.6675 36.0312C64.7811 36.0146 64.8061 36.0146 64.8941 36.0308ZM76.9211 36.3219C77.3293 36.3993 77.4479 36.7285 77.3463 37.5028C77.1963 38.6469 76.7483 39.2762 76.086 39.2736C75.4781 39.2712 75.3143 38.9081 75.4794 37.928C75.6716 36.7881 76.211 36.1873 76.9211 36.3219Z" fill="#0B0C0D"/>
</svg>
