<svg width="147" height="30" viewBox="0 0 147 30" fill="none" xmlns="http://www.w3.org/2000/svg">
<g clip-path="url(#clip0_273_3552)">
<path d="M17.6546 4.28946H14.0627V27.3357C15.2921 26.974 16.5216 26.4196 17.6546 25.6964V4.28946ZM13.4359 7.568H9.84397V27.5526H13.4359V7.568ZM23.7536 22.1527C25.417 19.6455 26.2849 16.8251 26.2849 13.9563C26.2849 10.0751 24.6938 6.70014 21.8974 4.60285V1.03503H18.2814V3.06001C13.1466 1.51718 7.144 3.75912 3.72082 8.89388C0.00836158 14.4866 0.659246 21.55 4.95027 25.5759C1.47888 21.574 1.31013 14.993 4.85385 9.61708C8.10827 4.69928 13.5323 2.28859 18.2814 3.18055V25.2624C19.6313 24.2981 20.8609 23.0688 21.8734 21.6223V4.65106C23.4161 6.09748 24.5009 8.07424 24.959 10.3403C25.1277 11.184 25.2242 12.0519 25.2242 12.9438C25.2242 15.8608 24.3081 18.85 22.5483 21.5017C19.0528 26.7571 13.0502 29.3365 8.06006 27.89C13.3877 30.0838 20.0412 27.7454 23.7536 22.1527ZM9.19308 10.8465H5.60116V25.9373C5.81812 26.1785 6.03508 26.3955 6.27615 26.5884C6.78239 26.9981 7.40917 27.3115 8.13238 27.5526H9.19308V10.8465ZM21.8734 25.1419C20.8609 26.1061 19.7519 26.9258 18.5706 27.5526H21.8734V25.1419Z" fill="#0B0C0D"/>
<path d="M40.8198 19.7659C40.5788 19.0668 40.2654 18.4882 39.8314 18.006C39.4216 17.5239 38.9153 17.1624 38.3127 16.8971C37.7341 16.632 37.0832 16.5114 36.36 16.5114C35.6368 16.5114 34.986 16.632 34.4073 16.8971C33.8047 17.1624 33.2985 17.5239 32.8645 18.006C32.4307 18.4882 32.1172 19.0909 31.8761 19.7899C31.635 20.489 31.5146 21.2845 31.5146 22.1765C31.5146 23.0684 31.635 23.864 31.8761 24.5391C32.1172 25.2381 32.4307 25.8166 32.8645 26.2989C33.2985 26.7809 33.8047 27.1426 34.3832 27.4077C34.9618 27.6729 35.6368 27.7935 36.3359 27.7935C37.0592 27.7935 37.7101 27.6729 38.2886 27.4077C38.8913 27.1426 39.3976 26.7809 39.8073 26.2989C40.2413 25.8166 40.5546 25.2141 40.7957 24.5149C41.0368 23.8158 41.1574 23.0203 41.1574 22.1283C41.1814 21.2363 41.0609 20.4408 40.8198 19.7659ZM38.7466 23.623C38.6262 24.0568 38.4574 24.4185 38.2403 24.7079C38.0234 24.997 37.7583 25.2141 37.4449 25.3828C37.1315 25.5275 36.794 25.5998 36.4082 25.5998C36.0226 25.5998 35.6851 25.5275 35.3717 25.3587C35.0583 25.2141 34.7931 24.9729 34.552 24.6837C34.311 24.3944 34.1422 24.0328 34.0217 23.5989C33.9011 23.1649 33.8288 22.6828 33.8288 22.1283C33.8288 21.5739 33.877 21.0918 34.0217 20.6578C34.1422 20.2239 34.3109 19.8623 34.5279 19.573C34.7449 19.2837 35.0101 19.0668 35.3234 18.9222C35.6368 18.7774 35.9985 18.7051 36.36 18.7051C36.7458 18.7051 37.0832 18.7774 37.4207 18.9462C37.7341 19.0909 37.9993 19.332 38.2403 19.6212C38.4574 19.9105 38.6503 20.2721 38.7708 20.706C38.8913 21.14 38.9636 21.622 38.9636 22.1765C38.9153 22.7069 38.8671 23.189 38.7466 23.623ZM46.7982 16.5114C46.6296 16.4391 46.4368 16.3909 46.2197 16.3427C46.0028 16.2945 45.7376 16.2703 45.4484 16.2703C45.0626 16.2703 44.7493 16.3186 44.4599 16.3909C44.1707 16.4633 43.9297 16.6079 43.7368 16.7765C43.5439 16.9453 43.3992 17.1624 43.2786 17.4516C43.1824 17.7167 43.1341 18.0543 43.1341 18.44V19.4284H42.1457V21.4533H43.1341V27.6247H45.2796V21.4533H46.6778V19.4284H45.2796V18.7534C45.2796 18.6569 45.3037 18.5605 45.3037 18.4882C45.3278 18.3918 45.3519 18.3195 45.4242 18.2712C45.4724 18.223 45.5689 18.1748 45.6653 18.1507C45.7618 18.1266 45.9063 18.1025 46.0751 18.1025C46.2439 18.1025 46.3644 18.1266 46.4849 18.1507C46.6055 18.1748 46.726 18.223 46.8224 18.2712V16.5114H46.7982ZM59.7437 18.8257V16.6562H51.2822V18.8257H54.4161V27.6005H56.6099V18.8257H59.7437ZM67.8918 27.6005V22.972C67.8918 22.3935 67.8437 21.8632 67.7231 21.4051C67.6026 20.9471 67.4097 20.5614 67.1687 20.2239C66.9276 19.9105 66.6141 19.6453 66.2285 19.4765C65.8427 19.3079 65.4089 19.2114 64.8785 19.2114C64.6615 19.2114 64.4446 19.2356 64.2758 19.2597C64.0829 19.2837 63.9141 19.356 63.7455 19.4043C63.5767 19.4765 63.4321 19.5489 63.2874 19.6453C63.1428 19.7418 63.0464 19.8141 62.9499 19.9105V16.2222L60.7804 17.307V27.6247H62.9499V23.1408C62.9499 22.7793 62.974 22.4899 63.0464 22.2488C63.1187 22.0079 63.191 21.815 63.3116 21.6703C63.4321 21.5257 63.5767 21.4292 63.7455 21.3569C63.9141 21.2845 64.107 21.2605 64.3481 21.2605C64.8543 21.2605 65.216 21.4051 65.4329 21.7185C65.6499 22.0319 65.7463 22.5141 65.7463 23.1649V27.6005H67.8918ZM75.8954 21.8632C75.7506 21.3569 75.5096 20.8989 75.2204 20.5132C74.931 20.1275 74.5694 19.8141 74.1356 19.5971C73.7016 19.3802 73.2195 19.2597 72.665 19.2597C72.1347 19.2597 71.6767 19.356 71.2185 19.573C70.7847 19.7899 70.3989 20.0793 70.0614 20.4649C69.724 20.8507 69.4829 21.2845 69.29 21.815C69.0973 22.3453 69.0008 22.9239 69.0008 23.5506C69.0008 24.0086 69.049 24.3944 69.1212 24.7801C69.1936 25.1416 69.3141 25.4792 69.4587 25.7684C69.6035 26.0578 69.7722 26.3471 69.9892 26.564C70.206 26.8051 70.4472 27.022 70.7123 27.1908C70.9774 27.3837 71.291 27.5282 71.6525 27.6247C72.0141 27.7452 72.424 27.7935 72.8578 27.7935C73.1231 27.7935 73.4123 27.7693 73.6774 27.697C73.9427 27.6488 74.232 27.5524 74.473 27.4318C74.7381 27.3114 74.9793 27.1667 75.1963 27.022C75.4131 26.8533 75.606 26.6604 75.7748 26.4435L74.232 25.1658C74.1596 25.2622 74.0633 25.3345 73.9668 25.4069C73.8703 25.4792 73.7498 25.5516 73.6293 25.5998C73.5088 25.6478 73.3641 25.6961 73.2436 25.7203C73.1231 25.7443 72.9783 25.7443 72.8337 25.7443C72.6409 25.7443 72.4481 25.7203 72.2552 25.672C72.0623 25.6239 71.8935 25.5275 71.7248 25.4069C71.5802 25.2864 71.4356 25.1176 71.3391 24.9247C71.2427 24.7319 71.1704 24.4908 71.1462 24.2015H76.04C76.04 24.1292 76.0641 24.0328 76.0641 23.9122C76.0641 23.7918 76.0641 23.6712 76.0641 23.5024C76.1364 22.9239 76.04 22.3693 75.8954 21.8632ZM71.2185 22.5864C71.2427 22.3693 71.291 22.1765 71.3633 22.0079C71.4356 21.8391 71.532 21.6703 71.6284 21.5497C71.7489 21.4292 71.8695 21.3086 72.0382 21.2363C72.1829 21.164 72.3758 21.1158 72.5686 21.1158C72.8096 21.1158 73.0266 21.164 73.1954 21.2363C73.3641 21.3328 73.5088 21.4292 73.6293 21.5739C73.7498 21.7185 73.8462 21.8632 73.8945 22.056C73.9668 22.2247 73.9908 22.4176 74.015 22.5864H71.2185ZM87.1532 16.6802L84.405 21.2605L81.681 16.6802H79.1739L83.3203 23.3337V27.6247H85.5139V23.3095L89.6603 16.7043H87.1532V16.6802ZM95.446 21.8632C95.3013 21.3569 95.0602 20.8989 94.7711 20.5132C94.4817 20.1275 94.1201 19.8141 93.6862 19.5971C93.2522 19.3802 92.7702 19.2597 92.2157 19.2597C91.6854 19.2597 91.2032 19.356 90.7692 19.573C90.3354 19.7899 89.9496 20.0793 89.6122 20.4649C89.2746 20.8507 89.0335 21.2845 88.8406 21.815C88.6479 22.3453 88.5515 22.9239 88.5515 23.5506C88.5515 24.0086 88.5997 24.3944 88.672 24.7801C88.7443 25.1416 88.8648 25.4792 89.0094 25.7684C89.1541 26.0578 89.3229 26.3471 89.5399 26.564C89.7567 26.8051 89.9979 27.022 90.263 27.1908C90.5282 27.3837 90.8416 27.5282 91.2032 27.6247C91.5648 27.7452 91.9746 27.7935 92.4085 27.7935C92.6737 27.7935 92.963 27.7693 93.2281 27.697C93.5175 27.6488 93.7826 27.5524 94.0238 27.4318C94.2888 27.3114 94.53 27.1667 94.7469 27.022C94.9638 26.8533 95.1567 26.6604 95.3254 26.4435L93.7827 25.1658C93.7103 25.2622 93.6139 25.3345 93.5175 25.4069C93.421 25.4792 93.3004 25.5516 93.1799 25.5998C93.0594 25.6478 92.9148 25.6961 92.7942 25.7203C92.6737 25.7443 92.529 25.7443 92.3844 25.7443C92.1916 25.7443 91.9988 25.7203 91.8059 25.672C91.6129 25.6239 91.4442 25.5275 91.2755 25.4069C91.1309 25.2864 90.9862 25.1176 90.8898 24.9247C90.7933 24.7319 90.721 24.4908 90.6969 24.2015H95.5907C95.5907 24.1292 95.6148 24.0328 95.6148 23.9122C95.6148 23.7918 95.6148 23.6712 95.6148 23.5024C95.6871 22.9239 95.6148 22.3693 95.446 21.8632ZM90.7692 22.5864C90.7933 22.3693 90.8416 22.1765 90.9139 22.0079C90.9862 21.8391 91.0827 21.6703 91.1792 21.5497C91.2996 21.4292 91.4202 21.3086 91.5889 21.2363C91.7335 21.164 91.9264 21.1158 92.1192 21.1158C92.3602 21.1158 92.5773 21.164 92.746 21.2363C92.9148 21.3328 93.0594 21.4292 93.1799 21.5739C93.3004 21.7185 93.3969 21.8632 93.4452 22.056C93.5175 22.2247 93.5415 22.4176 93.5656 22.5864H90.7692ZM103.498 27.6005V22.1042C103.498 21.6462 103.426 21.2363 103.257 20.8748C103.088 20.5132 102.871 20.2239 102.581 19.9828C102.292 19.7418 101.931 19.5489 101.521 19.4284C101.111 19.3079 100.653 19.2356 100.147 19.2356C99.5441 19.2356 99.0138 19.3079 98.5559 19.4284C98.0977 19.5489 97.5915 19.7659 97.0852 20.0793L97.9048 21.5739C98.3148 21.3569 98.6763 21.2122 98.9897 21.14C99.279 21.0677 99.6888 21.0435 100.147 21.0435C100.533 21.0435 100.822 21.14 101.014 21.3328C101.207 21.5257 101.328 21.7908 101.328 22.0801V22.4899C101.159 22.3935 100.942 22.3212 100.701 22.273C100.46 22.2006 100.147 22.1765 99.7611 22.1765C99.3032 22.1765 98.8692 22.2247 98.4594 22.3453C98.0496 22.4658 97.712 22.6346 97.3986 22.8516C97.1094 23.0684 96.8683 23.3578 96.6996 23.6953C96.5309 24.0328 96.4344 24.4426 96.4344 24.8765C96.4344 25.3828 96.5309 25.8166 96.6996 26.1783C96.8683 26.5399 97.1094 26.8533 97.3986 27.0943C97.6879 27.3354 98.0013 27.5041 98.3871 27.6247C98.7486 27.7452 99.1344 27.7935 99.52 27.7935C99.7129 27.7935 99.8817 27.7693 100.075 27.7452C100.243 27.7211 100.436 27.6488 100.605 27.5764C100.774 27.5041 100.918 27.4319 101.039 27.3354C101.159 27.2631 101.28 27.1667 101.376 27.0462V27.6005H103.498ZM101.328 25.2141C101.28 25.3104 101.183 25.4069 101.087 25.5033C100.99 25.5998 100.87 25.672 100.749 25.7443C100.629 25.8166 100.484 25.8649 100.316 25.9131C100.171 25.9613 100.002 25.9854 99.8094 25.9854C99.5923 25.9854 99.3755 25.9613 99.2309 25.889C99.0621 25.8166 98.9415 25.7443 98.845 25.6478C98.7486 25.5516 98.6763 25.431 98.6281 25.3104C98.5798 25.1899 98.5559 25.0453 98.5559 24.9006C98.5559 24.5631 98.6521 24.322 98.8692 24.1292C99.0861 23.9363 99.3996 23.8641 99.7852 23.8641C99.9781 23.8641 100.147 23.864 100.291 23.888C100.436 23.9122 100.557 23.9363 100.677 23.9605C100.797 23.9845 100.894 24.0328 100.99 24.0568C101.087 24.1051 101.183 24.1533 101.28 24.2015V25.2141H101.328ZM110.416 19.8141C110.271 19.6694 110.079 19.5247 109.813 19.4043C109.548 19.2837 109.259 19.2356 108.897 19.2356C108.728 19.2356 108.56 19.2597 108.391 19.2837C108.222 19.3079 108.077 19.3801 107.933 19.4524C107.789 19.5247 107.669 19.5971 107.548 19.6935C107.428 19.7899 107.331 19.8623 107.235 19.9587V19.4284H105.065V27.6247H107.235V23.189C107.235 22.5864 107.331 22.1524 107.548 21.8391C107.765 21.5497 108.125 21.4051 108.632 21.4051C108.873 21.4051 109.114 21.4533 109.307 21.5497C109.524 21.6462 109.717 21.7668 109.885 21.9355L110.416 19.8141Z" fill="#0B0C0D"/>
<path d="M39.9762 9.83425H34.3353V7.2066H38.7227V5.08519H34.3353V3.20486H39.7352V1.05935H32.1416V12.0039H39.9762V9.83425ZM48.4377 1.05935L45.6895 5.63965L42.9655 1.05935H40.4343L44.5807 7.71285V12.0039H46.7744V7.68874L50.9208 1.08346H48.4377V1.05935ZM62.5163 9.83425H56.8752V7.2066H61.2627V5.08519H56.8752V3.20486H62.2752V1.05935H54.6814V12.0039H62.5163V9.83425ZM71.1223 11.9797V7.35124C71.1223 6.77268 71.0742 6.24233 70.9536 5.7843C70.8331 5.32626 70.6402 4.91644 70.3992 4.60306C70.1581 4.28967 69.8446 4.0245 69.459 3.85575C69.0733 3.68699 68.6394 3.59057 68.109 3.59057C67.9161 3.59057 67.6992 3.61467 67.5304 3.63877C67.3375 3.66288 67.1688 3.73522 66.9761 3.80753C66.8073 3.87985 66.6626 3.95217 66.5179 4.04859C66.3973 4.14503 66.2768 4.21734 66.1804 4.31378V3.78342H64.0108V11.9797H66.1804V7.49588C66.1804 7.13428 66.2045 6.845 66.2768 6.60394C66.3492 6.36286 66.4215 6.17002 66.5421 6.02537C66.6626 5.88073 66.8073 5.78429 66.9761 5.71197C67.1447 5.63965 67.3375 5.61555 67.5786 5.61555C68.0848 5.61555 68.4465 5.76018 68.6634 6.07357C68.8804 6.38697 68.9768 6.8691 68.9768 7.51999V11.9557H71.1223V11.9797ZM77.4866 9.47264C77.2455 9.68961 77.0285 9.85836 76.8357 9.95478C76.6428 10.0512 76.45 10.0994 76.2571 10.0994C76.1365 10.0994 76.016 10.0753 75.9197 10.0512C75.8232 10.0271 75.7268 9.97889 75.6786 9.90656C75.6063 9.83425 75.558 9.73781 75.534 9.59319C75.5098 9.47264 75.4857 9.30389 75.4857 9.11104V5.8084H77.4625V3.78342H75.4857V0.601318L73.316 1.68613V3.80753H71.9419V5.83251H73.316V9.71372C73.316 10.0753 73.3642 10.4128 73.4848 10.7021C73.5812 10.9913 73.7259 11.2566 73.9188 11.4735C74.1117 11.6906 74.3285 11.8592 74.6178 11.9797C74.883 12.1003 75.1964 12.1726 75.5098 12.1726C75.8474 12.1726 76.1606 12.1243 76.474 12.028C76.7634 11.9315 77.0044 11.8109 77.1973 11.6664L77.4866 9.47264ZM84.0677 4.19324C83.9232 4.04859 83.7303 3.90396 83.4651 3.78342C83.1998 3.66288 82.9107 3.61467 82.549 3.61467C82.3802 3.61467 82.2116 3.63878 82.0428 3.66288C81.874 3.68699 81.7294 3.75932 81.5847 3.83164C81.44 3.90396 81.2955 3.97628 81.1991 4.0727C81.0785 4.16914 80.9821 4.24145 80.8857 4.33788V3.80753H78.716V12.0039H80.8857V7.5441C80.8857 6.94143 80.9821 6.50749 81.1991 6.19411C81.4159 5.90482 81.7776 5.76018 82.2838 5.76018C82.5249 5.76018 82.7419 5.80841 82.9589 5.90483C83.1757 6.00127 83.3686 6.12179 83.5374 6.29054L84.0677 4.19324ZM91.1551 6.24233C91.0105 5.71198 90.7695 5.27805 90.4801 4.89234C90.1909 4.50663 89.8293 4.19324 89.3953 3.97628C88.9615 3.75932 88.4793 3.63877 87.9248 3.63877C87.3945 3.63877 86.9123 3.73522 86.4784 3.95217C86.0445 4.16914 85.6347 4.45842 85.3213 4.84413C84.9838 5.22984 84.7428 5.66376 84.5499 6.19411C84.357 6.72446 84.2606 7.30303 84.2606 7.92981C84.2606 8.38784 84.3088 8.79765 84.3811 9.15926C84.4534 9.52086 84.574 9.85836 84.7187 10.1476C84.8633 10.4369 85.0319 10.7262 85.249 10.9672C85.4659 11.2083 85.707 11.4253 85.9721 11.5941C86.2374 11.7869 86.5508 11.9315 86.9123 12.028C87.274 12.1485 87.6838 12.1968 88.1178 12.1968C88.3829 12.1968 88.6721 12.1726 88.9374 12.1003C89.2266 12.052 89.4917 11.9557 89.7328 11.8351C89.998 11.7145 90.2391 11.5941 90.4561 11.4253C90.673 11.2566 90.8659 11.0637 91.0347 10.8468L89.4917 9.56907C89.4194 9.6655 89.3231 9.73781 89.2266 9.81014C89.1303 9.88246 89.0097 9.95478 88.8891 10.003C88.7686 10.0512 88.624 10.0994 88.5034 10.1235C88.3829 10.1476 88.2382 10.1476 88.0936 10.1476C87.9007 10.1476 87.7078 10.1235 87.5151 10.0512C87.3222 10.003 87.1534 9.90656 86.9847 9.78604C86.84 9.6655 86.6954 9.49675 86.599 9.30389C86.5026 9.11104 86.4303 8.86998 86.4061 8.58069H91.2998C91.2998 8.50837 91.3238 8.41194 91.3238 8.29142C91.3238 8.17088 91.3238 8.05033 91.3238 7.8816C91.3721 7.30303 91.2998 6.74857 91.1551 6.24233ZM86.4784 6.96554C86.5026 6.74857 86.5508 6.55572 86.6231 6.38697C86.6955 6.21822 86.7917 6.04946 86.8882 5.92893C87.0088 5.8084 87.1293 5.68787 87.298 5.61555C87.4428 5.54322 87.6355 5.49501 87.8284 5.49501C88.0695 5.49501 88.2865 5.54322 88.4553 5.61555C88.624 5.68787 88.7686 5.8084 88.8891 5.95304C89.0097 6.09768 89.1061 6.24232 89.1543 6.43518C89.2266 6.60392 89.2508 6.79678 89.2749 6.96554H86.4784ZM99.448 6.00126C99.2792 5.44681 99.0622 4.98876 98.773 4.62715C98.4836 4.26557 98.1462 4.00039 97.7605 3.83164C97.3748 3.66289 96.9649 3.59057 96.5309 3.59057C96.1935 3.59057 95.8801 3.63877 95.5908 3.75931C95.3016 3.87985 95.0364 4.04859 94.7953 4.26556V3.75931H92.6257V14.9691L94.7953 13.8842V11.4735C94.9882 11.6423 95.2293 11.8109 95.5426 11.9315C95.8319 12.052 96.1694 12.1243 96.5309 12.1243C97.0372 12.1243 97.4952 12.028 97.881 11.8109C98.2667 11.5941 98.6042 11.3289 98.8693 10.9432C99.1346 10.5816 99.3515 10.1235 99.4961 9.61729C99.6408 9.11105 99.7131 8.55659 99.7131 7.92981C99.7131 7.23071 99.6166 6.55572 99.448 6.00126ZM97.182 9.59319C96.9649 9.95478 96.6515 10.1235 96.2176 10.1235C96.0489 10.1235 95.9042 10.0994 95.7595 10.0753C95.6149 10.0512 95.4945 10.003 95.3739 9.93067C95.2534 9.85836 95.1328 9.81015 95.0605 9.71372C94.964 9.6414 94.8676 9.52086 94.7711 9.40034V6.33874C94.964 6.09768 95.1569 5.92893 95.3497 5.8084C95.5668 5.71197 95.8078 5.63965 96.0971 5.63965C96.5551 5.63965 96.9167 5.83251 97.1337 6.24233C97.3748 6.65214 97.4952 7.25481 97.4952 8.02624C97.5194 8.72534 97.4229 9.25569 97.182 9.59319ZM106.294 4.19324C106.15 4.04859 105.957 3.90396 105.691 3.78342C105.427 3.66288 105.137 3.61467 104.776 3.61467C104.607 3.61467 104.439 3.63878 104.27 3.66288C104.1 3.68699 103.956 3.75932 103.811 3.83164C103.667 3.90396 103.546 3.97628 103.425 4.0727C103.305 4.16914 103.208 4.24145 103.112 4.33788V3.80753H100.942V12.0039H103.112V7.5441C103.112 6.94143 103.208 6.50749 103.425 6.19411C103.642 5.90482 104.004 5.76018 104.511 5.76018C104.751 5.76018 104.993 5.80841 105.185 5.90483C105.402 6.00127 105.596 6.12179 105.764 6.29054L106.294 4.19324ZM113.55 6.24233C113.406 5.71198 113.165 5.27805 112.875 4.89234C112.586 4.50663 112.224 4.19324 111.79 3.97628C111.356 3.75932 110.875 3.63877 110.32 3.63877C109.813 3.63877 109.332 3.73522 108.873 3.95217C108.44 4.16914 108.054 4.45842 107.717 4.84413C107.379 5.22984 107.139 5.66376 106.945 6.19411C106.753 6.72446 106.656 7.30303 106.656 7.92981C106.656 8.38784 106.705 8.79765 106.777 9.15926C106.849 9.52086 106.97 9.85836 107.114 10.1476C107.259 10.4369 107.428 10.7262 107.645 10.9672C107.862 11.2083 108.103 11.4253 108.368 11.5941C108.632 11.7869 108.946 11.9315 109.307 12.028C109.669 12.1485 110.079 12.1968 110.536 12.1968C110.802 12.1968 111.092 12.1726 111.356 12.1003C111.622 12.052 111.911 11.9557 112.152 11.8351C112.418 11.7145 112.658 11.5941 112.875 11.4253C113.092 11.2566 113.285 11.0637 113.455 10.8468L111.911 9.56907C111.839 9.6655 111.742 9.73781 111.646 9.81014C111.55 9.88246 111.429 9.95478 111.309 10.003C111.187 10.0512 111.043 10.0994 110.922 10.1235C110.802 10.1476 110.658 10.1476 110.513 10.1476C110.32 10.1476 110.127 10.1235 109.935 10.0512C109.741 10.003 109.572 9.90656 109.404 9.78604C109.259 9.6655 109.115 9.49675 109.018 9.30389C108.921 9.11104 108.849 8.86998 108.825 8.58069H113.719C113.719 8.50837 113.744 8.41194 113.744 8.29142C113.744 8.17088 113.744 8.05033 113.744 7.8816C113.767 7.30303 113.695 6.74857 113.55 6.24233ZM108.873 6.96554C108.898 6.74857 108.946 6.55572 108.993 6.38697C109.066 6.21822 109.162 6.04946 109.259 5.92893C109.379 5.8084 109.5 5.68787 109.669 5.61555C109.813 5.54322 110.007 5.49501 110.199 5.49501C110.441 5.49501 110.658 5.54322 110.826 5.61555C110.995 5.68787 111.139 5.8084 111.26 5.95304C111.381 6.09768 111.478 6.24232 111.525 6.43518C111.598 6.60392 111.622 6.79678 111.646 6.96554H108.873ZM122.132 11.9797V7.35124C122.132 6.77268 122.06 6.24233 121.964 5.7843C121.843 5.32626 121.651 4.91644 121.409 4.60306C121.168 4.28967 120.855 4.0245 120.469 3.85575C120.083 3.68699 119.649 3.59057 119.119 3.59057C118.926 3.59057 118.709 3.61467 118.517 3.63877C118.323 3.66288 118.154 3.73522 117.961 3.80753C117.792 3.87985 117.648 3.95217 117.504 4.04859C117.384 4.14503 117.264 4.21734 117.167 4.31378V3.78342H114.998V11.9797H117.167V7.49588C117.167 7.13428 117.191 6.845 117.264 6.60394C117.336 6.36286 117.408 6.17002 117.528 6.02537C117.648 5.88073 117.792 5.78429 117.961 5.71197C118.131 5.63965 118.323 5.61555 118.564 5.61555C119.071 5.61555 119.432 5.76018 119.649 6.07357C119.866 6.38697 119.963 6.8691 119.963 7.51999V11.9557H122.132V11.9797ZM130.136 6.24233C129.991 5.71198 129.75 5.27805 129.461 4.89234C129.171 4.50663 128.81 4.19324 128.376 3.97628C127.942 3.75932 127.46 3.63877 126.905 3.63877C126.375 3.63877 125.918 3.73522 125.46 3.95217C125.026 4.16914 124.64 4.45842 124.303 4.84413C123.965 5.22984 123.724 5.66376 123.531 6.19411C123.338 6.72446 123.241 7.30303 123.241 7.92981C123.241 8.38784 123.289 8.79765 123.362 9.15926C123.434 9.52086 123.555 9.85836 123.7 10.1476C123.844 10.4369 124.014 10.7262 124.23 10.9672C124.447 11.2083 124.688 11.4253 124.954 11.5941C125.218 11.7869 125.532 11.9315 125.894 12.028C126.255 12.1485 126.664 12.1968 127.099 12.1968C127.363 12.1968 127.653 12.1726 127.917 12.1003C128.207 12.052 128.473 11.9557 128.713 11.8351C128.979 11.7145 129.22 11.5941 129.437 11.4253C129.654 11.2566 129.847 11.0637 130.016 10.8468L128.473 9.56907C128.4 9.6655 128.304 9.73781 128.207 9.81014C128.111 9.88246 127.99 9.95478 127.87 10.003C127.749 10.0512 127.605 10.0994 127.484 10.1235C127.363 10.1476 127.219 10.1476 127.074 10.1476C126.881 10.1476 126.688 10.1235 126.496 10.0512C126.303 10.003 126.135 9.90656 125.966 9.78604C125.821 9.6655 125.677 9.49675 125.58 9.30389C125.484 9.11104 125.412 8.86998 125.387 8.58069H130.28C130.28 8.50837 130.305 8.41194 130.305 8.29142C130.305 8.17088 130.305 8.05033 130.305 7.8816C130.377 7.30303 130.28 6.74857 130.136 6.24233ZM125.46 6.96554C125.484 6.74857 125.532 6.55572 125.58 6.38697C125.652 6.21822 125.749 6.04946 125.846 5.92893C125.966 5.8084 126.086 5.68787 126.255 5.61555C126.399 5.54322 126.591 5.49501 126.785 5.49501C127.025 5.49501 127.243 5.54322 127.411 5.61555C127.58 5.68787 127.725 5.8084 127.845 5.95304C127.966 6.09768 128.062 6.24232 128.111 6.43518C128.183 6.60392 128.207 6.79678 128.231 6.96554H125.46ZM138.646 11.9797V3.78342H136.476V8.26731C136.476 8.86998 136.379 9.328 136.162 9.6414C135.945 9.95478 135.584 10.0994 135.079 10.0994C134.572 10.0994 134.211 9.95478 133.993 9.6414C133.776 9.328 133.68 8.84588 133.68 8.19498V3.75931H131.51V8.38784C131.51 9.61729 131.776 10.5575 132.282 11.1843C132.788 11.8109 133.559 12.1485 134.548 12.1485C134.982 12.1485 135.367 12.0762 135.68 11.9315C136.018 11.7869 136.259 11.6182 136.452 11.4253V11.9797H138.646ZM145.949 4.19324C145.805 4.04859 145.612 3.90396 145.347 3.78342C145.082 3.66288 144.792 3.61467 144.431 3.61467C144.263 3.61467 144.095 3.63878 143.926 3.66288C143.756 3.68699 143.612 3.75932 143.467 3.83164C143.323 3.90396 143.202 3.97628 143.082 4.0727C142.961 4.16914 142.865 4.24145 142.769 4.33788V3.80753H140.598V12.0039H142.769V7.5441C142.769 6.94143 142.865 6.50749 143.082 6.19411C143.299 5.90482 143.661 5.76018 144.167 5.76018C144.406 5.76018 144.648 5.80841 144.841 5.90483C145.058 6.00127 145.251 6.12179 145.42 6.29054L145.949 4.19324Z" fill="#0B0C0D"/>
<path d="M113.431 18.3925C113.383 18.4407 113.311 18.4407 113.239 18.4407H112.78V17.9345H113.239C113.311 17.9345 113.383 17.9585 113.431 18.0067C113.479 18.0549 113.503 18.1031 113.503 18.1996C113.528 18.296 113.479 18.3683 113.431 18.3925ZM113.769 17.9586C113.745 17.8863 113.697 17.838 113.648 17.7898C113.6 17.7415 113.528 17.7175 113.455 17.6934C113.383 17.6692 113.311 17.6692 113.239 17.6692H112.466V19.405H112.756V18.73H113.094L113.431 19.405H113.793L113.431 18.7059C113.551 18.6817 113.625 18.6094 113.697 18.5371C113.769 18.4407 113.793 18.3442 113.793 18.1996C113.817 18.1031 113.793 18.0308 113.769 17.9586ZM114.323 19.1156C114.251 19.2844 114.154 19.429 114.034 19.5496C113.914 19.6701 113.769 19.7665 113.6 19.8388C113.431 19.9112 113.262 19.9352 113.069 19.9352C112.877 19.9352 112.708 19.9112 112.539 19.8388C112.371 19.7665 112.226 19.6701 112.105 19.5496C111.985 19.429 111.888 19.2844 111.816 19.1156C111.743 18.9469 111.719 18.7782 111.719 18.5853C111.719 18.3925 111.743 18.2237 111.816 18.0549C111.888 17.8863 111.985 17.7416 112.105 17.6211C112.226 17.5005 112.371 17.404 112.539 17.3317C112.708 17.2594 112.877 17.2352 113.069 17.2352C113.262 17.2352 113.431 17.2594 113.6 17.3317C113.769 17.404 113.914 17.5005 114.034 17.6211C114.154 17.7416 114.251 17.8863 114.323 18.0549C114.396 18.2237 114.42 18.3925 114.42 18.5853C114.42 18.7782 114.396 18.9469 114.323 19.1156ZM114.565 17.9586C114.492 17.7657 114.371 17.5969 114.226 17.4523C114.082 17.3077 113.914 17.1871 113.72 17.1148C113.528 17.0425 113.311 16.9943 113.094 16.9943C112.877 16.9943 112.66 17.0425 112.466 17.1148C112.274 17.1871 112.105 17.3077 111.96 17.4523C111.816 17.5969 111.695 17.7657 111.623 17.9586C111.551 18.1514 111.502 18.3683 111.502 18.5853C111.502 18.8023 111.551 19.0192 111.623 19.2121C111.695 19.405 111.816 19.5738 111.96 19.7184C112.105 19.8629 112.274 19.9835 112.466 20.0558C112.66 20.1281 112.877 20.1763 113.094 20.1763C113.311 20.1763 113.528 20.1281 113.72 20.0558C113.914 19.9835 114.082 19.8629 114.226 19.7184C114.371 19.5738 114.492 19.405 114.565 19.2121C114.637 19.0192 114.685 18.8023 114.685 18.5853C114.685 18.3442 114.637 18.1514 114.565 17.9586Z" fill="#0B0C0D"/>
</g>
<defs>
<clipPath id="clip0_273_3552">
<rect width="146.667" height="29.537" fill="white" transform="translate(0.333008 0.35022)"/>
</clipPath>
</defs>
</svg>
