<svg width="87" height="25" viewBox="0 0 87 25" fill="none" xmlns="http://www.w3.org/2000/svg">
<g clip-path="url(#clip0_273_3581)">
<path fill-rule="evenodd" clip-rule="evenodd" d="M58.4848 12.963C58.4612 12.639 58.4218 12.3536 58.3824 12.153C57.7992 9.44535 56.0814 7.56311 53.7489 7.07711C53.3944 7.00769 53.0713 6.99225 52.3778 7.00769C51.3298 7.03854 50.6126 7.18511 49.8325 7.53225C49.5725 7.64796 49.344 7.74053 49.3282 7.74053C49.3125 7.74053 49.3204 6.18999 49.3519 4.30003C49.3677 3.52862 49.3754 2.9192 49.3754 2.43322L49.3992 0.982963H49.3677C49.3598 0.898107 49.3519 0.859537 49.3361 0.859537C49.1392 0.851823 42.9454 1.97037 42.8823 2.02437C42.8351 2.06293 42.8115 2.19408 42.8194 2.38693L42.8213 2.4337C42.8252 2.53093 42.8278 2.59332 42.8566 2.63938C42.9079 2.72183 43.0433 2.75195 43.4209 2.83595L43.5522 2.86521C43.7807 2.9192 44.0407 3.01178 44.1432 3.0812C44.3953 3.25863 44.6002 3.63662 44.7421 4.18432C44.8523 4.61631 44.8681 4.92487 44.8996 7.82539C44.939 10.7876 44.9075 13.8347 44.7894 19.4197L44.7421 21.7416L45.1833 21.8419C45.8216 21.9885 47.6577 22.2971 48.2566 22.3587C48.5559 22.3896 48.9973 22.4128 49.47 22.4204C50.258 22.4591 51.0461 22.4668 51.8262 22.3587H51.8498H51.8577C52.0468 22.3357 52.236 22.3048 52.4251 22.2584C55.128 21.6876 57.0034 20.1602 57.9648 17.6069C58.5243 16.1181 58.6503 14.5752 58.4927 13.0016C58.4927 12.9938 58.4927 12.9784 58.4848 12.963ZM49.5322 8.89776L49.7293 8.84376C49.9972 8.76661 50.3123 8.72805 50.6827 8.73576C51.1949 8.73576 51.2579 8.75119 51.6914 8.96718C52.7315 9.47631 53.4329 10.7337 53.7559 12.6391C53.8741 13.3411 53.8741 15.2619 53.7637 16.1105C53.4801 18.1778 52.7788 19.8441 51.8568 20.6463C51.4864 20.9703 51.1477 21.1401 50.7063 21.2172C50.3832 21.2712 50.2886 21.2789 49.7135 21.2249C49.4691 21.2018 49.4139 21.1787 49.3667 21.0475C49.2879 20.8469 49.2406 13.8965 49.2958 11.1271L49.3352 9.07518C49.351 8.99033 49.4139 8.93633 49.5322 8.89776ZM52.0896 20.623C52.0956 20.6152 52.1015 20.6076 52.1094 20.5998C51.8572 20.8467 51.5499 21.0549 51.2583 21.1938C51.5499 21.0781 51.8178 20.8929 52.07 20.6461C52.0779 20.6384 52.0838 20.6306 52.0896 20.623ZM53.3069 18.5788C53.1257 19.1034 52.8893 19.597 52.5741 20.0445C52.8499 19.6356 53.0942 19.1497 53.3069 18.5788ZM53.9701 13.7037C54.0173 14.4519 53.9938 15.1926 53.9071 15.9254C53.9544 15.3005 53.978 14.4211 53.9701 13.7037ZM45.0419 8.90517C45.0419 9.82327 45.0341 10.7338 45.0263 11.6518L45.0261 11.6745C45.034 10.0314 45.034 8.45004 45.034 7.22349C45.034 7.50505 45.036 7.78469 45.0379 8.06433C45.0398 8.34395 45.0419 8.62363 45.0419 8.90517ZM49.2974 7.93339L49.392 7.8871C49.3839 7.89032 49.376 7.89354 49.3684 7.89662C49.3399 7.90829 49.3162 7.91796 49.2974 7.91796V7.93339Z" fill="#0B0C0D"/>
<path fill-rule="evenodd" clip-rule="evenodd" d="M9.41618 3.01929C9.41618 2.99615 9.41618 2.98073 9.42406 2.96529L9.45559 2.66444C9.47528 2.66444 9.49498 2.66252 9.51469 2.66059C9.53438 2.65866 9.55408 2.65673 9.57379 2.65673L11.3625 2.66444C13.5532 2.67988 13.9078 2.72616 14.68 3.10415C15.799 3.65186 16.6185 4.72412 17.3199 6.58322C17.4853 7.02292 17.5563 7.20806 17.7138 7.24663C17.7611 7.27748 17.8321 7.26206 17.9582 7.2312C18.0243 7.21824 18.1017 7.19438 18.1994 7.16422L18.2575 7.14635L18.4625 7.08464C18.4782 7.08464 18.494 7.07692 18.5098 7.0692L18.691 7.01521V6.82235V6.74521V6.65264L18.6673 4.28441C18.6594 3.65957 18.6516 3.06558 18.6437 2.57188V1.88532C18.6437 1.79388 18.6368 1.69909 18.63 1.60317C18.6264 1.55344 18.6227 1.50337 18.62 1.45333C18.62 1.40615 18.6164 1.36609 18.614 1.34042C18.613 1.32832 18.6122 1.31942 18.6122 1.31447L18.6043 1.29133C18.6043 1.2759 18.6023 1.26048 18.6004 1.24505C18.5984 1.22962 18.5964 1.21419 18.5964 1.19876H18.5885L18.5727 1.08305L10.22 1.02134C5.62589 0.982769 1.77255 0.975054 1.67012 0.990482L1.47311 1.02134L1.48887 1.50733L1.50463 1.99331L2.14291 2.07046C2.97032 2.17074 3.45888 2.40216 3.75044 2.81872C4.40449 3.76757 4.5148 5.04811 4.4754 11.1345C4.43601 17.6222 4.28628 19.1958 3.64801 20.0058C3.31704 20.4224 3.04913 20.5612 2.30839 20.6923L2.21135 20.7093C1.69017 20.8002 1.49162 20.8348 1.41457 20.9504C1.36715 21.0215 1.36574 21.1234 1.36345 21.2878L1.36279 21.3326C1.36279 21.6026 1.38643 21.7569 1.43371 21.7724L1.44594 21.7731C1.47217 21.775 1.53773 21.78 1.63859 21.78C1.70951 21.7878 1.81196 21.7954 1.9538 21.7954H2.52904C4.75908 21.8263 9.73138 21.8571 11.6068 21.8495H11.9693H12.2451C12.2609 21.8495 12.2845 21.8495 12.3003 21.8417H12.3397C12.3554 21.834 12.3633 21.8263 12.379 21.8108C12.4185 21.78 12.4342 21.7337 12.4342 21.6643V21.6412C12.4579 21.5101 12.4579 21.3326 12.4342 21.1861V21.0472C12.4323 21.0472 12.4299 21.0468 12.4272 21.046L12.4185 21.0433C12.4126 21.0414 12.4067 21.0395 12.4027 21.0395C12.387 20.9855 12.3633 20.9546 12.3397 20.9392C12.2845 20.9084 11.922 20.8389 11.5359 20.7772C11.1498 20.7155 10.7322 20.6229 10.5982 20.569C10.0072 20.3143 9.63682 19.6818 9.45559 18.5863C9.44245 18.4604 9.42844 18.3344 9.41444 18.2083C9.38641 17.9563 9.3584 17.7044 9.33738 17.4524C9.29798 16.8893 9.26646 16.1873 9.24282 15.4699C9.22706 14.7447 9.21918 14.0119 9.21918 13.2868L9.22706 12.1991C9.22706 12.1837 9.22903 12.1682 9.23101 12.1528C9.23297 12.1374 9.23495 12.122 9.23495 12.1065L9.87322 12.1297C11.2601 12.1759 11.9772 12.2531 12.2609 12.3842C12.8834 12.6619 13.3878 13.4179 13.6478 14.4824L13.7817 15.0456L13.9867 15.0533C13.9944 15.0533 13.9944 15.0533 14.0023 15.061C14.1442 15.0765 14.2781 15.0765 14.42 15.0765L14.7746 15.0919L14.7983 11.528L14.8218 7.96405L14.3096 7.97176L13.8132 7.98718L13.6636 8.55032C13.3799 9.638 12.9149 10.3091 12.2451 10.6023C11.9693 10.7257 11.7802 10.7565 11.1262 10.7951C10.6927 10.8183 10.086 10.8337 9.77867 10.8337H9.21918L9.22706 9.06716C9.23495 7.91005 9.29011 5.90438 9.34527 4.49269C9.36102 4.00671 9.38466 3.513 9.41618 3.01929ZM4.10484 19.3888C4.1528 19.2444 4.19557 19.0998 4.23317 18.9428C4.19791 19.0935 4.15576 19.2426 4.10484 19.3888ZM4.34125 18.3397C4.31433 18.5416 4.27975 18.7436 4.23317 18.9428C4.27588 18.7643 4.31191 18.5694 4.34125 18.3397ZM11.4487 10.9031H11.4565C11.622 10.9031 11.7796 10.8877 11.9293 10.8568C11.8348 10.8722 11.6614 10.8877 11.4487 10.9031ZM1.59105 1.12924V1.48409L1.57529 1.12924H1.59105ZM4.00667 19.6508C4.0106 19.6411 4.01454 19.6316 4.01848 19.62C3.78996 20.1676 3.43535 20.5148 2.93104 20.6999C3.44324 20.5456 3.78208 20.1908 3.99484 19.6816C3.99878 19.67 4.00273 19.6605 4.00667 19.6508ZM4.09691 19.4039C4.09298 19.4194 4.08706 19.4348 4.08116 19.4502C4.07526 19.4656 4.06933 19.481 4.06539 19.4965C4.06778 19.4895 4.07089 19.4818 4.07429 19.4734C4.0821 19.454 4.09142 19.4308 4.09691 19.4039ZM1.45768 21.1087C1.47344 21.0394 1.4892 21.0008 1.54436 20.9777L1.45768 20.9931V21.1087ZM13.9553 8.09516C13.9237 8.1183 13.908 8.15687 13.8922 8.2263V8.21087C13.8922 8.14145 13.9001 8.11059 13.9553 8.09516ZM13.6863 8.99788C13.6075 9.20616 13.5207 9.41444 13.434 9.59186C13.2371 10.0007 12.9849 10.3093 12.6934 10.533C12.9219 10.3633 13.1188 10.1473 13.2844 9.885C13.4656 9.6073 13.5838 9.30645 13.6863 8.99788Z" fill="#0B0C0D"/>
<path fill-rule="evenodd" clip-rule="evenodd" d="M73.205 12.8934C73.2365 13.2097 73.2602 13.58 73.2523 13.7729C73.2523 13.7883 73.2523 13.7959 73.2444 13.7883C73.2495 13.8533 73.248 13.9151 73.2463 13.9842C73.2454 14.0217 73.2444 14.0612 73.2444 14.1045H73.2208V14.12H72.9371H72.7953C72.5983 14.12 72.4033 14.118 72.2083 14.1161C72.0135 14.1142 71.8181 14.1123 71.6212 14.1123L68.7371 14.1045L64.3321 14.0968C64.3005 14.1045 64.2769 14.1277 64.2611 14.1663L64.2769 14.6137C64.3084 15.8171 64.5686 16.8817 65.0492 17.8073C65.2698 18.2316 65.4432 18.4631 65.8687 18.8873C66.83 19.8515 67.7914 20.2295 69.3123 20.2373C70.4155 20.245 71.2035 20.0291 72.0388 19.5121C72.2751 19.3655 72.5116 19.2498 72.5667 19.2498C72.6928 19.2576 72.9844 19.6202 72.9844 19.7822C72.9844 19.8052 72.9686 19.8439 72.9529 19.8825C72.9292 19.9442 72.8819 20.0213 72.8425 20.0675C72.3697 20.6538 71.8024 21.1167 71.1719 21.4947C70.9907 21.6103 70.7859 21.7184 70.5653 21.8187C70.5297 21.8341 70.4963 21.8496 70.4628 21.865C70.4293 21.8804 70.3957 21.8958 70.3603 21.9113C69.927 22.0964 69.4935 22.243 69.0523 22.3432C68.8631 22.3896 68.6819 22.4281 68.5007 22.4589C68.3509 22.4821 68.1618 22.4975 67.9491 22.5129C67.6102 22.5438 67.2635 22.5516 66.9089 22.5438C66.7592 22.5438 66.6094 22.5361 66.4597 22.5206C66.1524 22.5052 65.8766 22.4821 65.6718 22.4435C62.6694 21.8958 60.534 19.7976 59.8484 16.7273C59.7617 16.334 59.7222 15.8943 59.7066 15.0379C59.6749 13.6803 59.7932 12.8472 60.1557 11.8057C60.8492 9.8155 62.0784 8.40381 63.8672 7.56298C65.7584 6.67586 68.3273 6.62957 69.982 7.45498C71.8497 8.38839 72.945 10.2321 73.205 12.8934ZM65.4347 12.8315C66.0572 12.8315 67.0422 12.8084 67.6253 12.793L68.6813 12.7621L68.6498 12.037C68.5315 9.45275 67.8932 8.04106 66.8452 8.03335C66.1911 8.02564 65.608 8.4962 65.1589 9.35247C65.1116 9.43733 65.0722 9.52218 65.0329 9.60703C64.7571 10.201 64.5363 10.957 64.3946 11.8364C64.3788 11.929 64.363 12.0293 64.3473 12.1296C64.3315 12.2761 64.3157 12.4304 64.3 12.5924V12.6001V12.8392L65.4347 12.8315ZM64.3511 12.9662C64.3895 12.9683 64.4329 12.9707 64.4811 12.9707H64.2683V12.963C64.2929 12.963 64.3204 12.9645 64.3511 12.9662ZM68.76 12.8855C68.7128 12.8933 68.6732 12.8933 68.626 12.8933L68.76 12.8855ZM72.0945 19.6586C72.1128 19.6467 72.1309 19.636 72.1486 19.6255C72.177 19.6087 72.2043 19.5927 72.2285 19.5737C72.0473 19.6894 71.866 19.7973 71.6769 19.8899C71.8108 19.8282 71.9448 19.7511 72.0945 19.6586ZM69.5405 20.3994C69.8636 20.3994 70.1867 20.3608 70.5019 20.2991C70.3207 20.33 70.1236 20.3532 69.8951 20.3764L69.5405 20.3994Z" fill="#0B0C0D"/>
<path fill-rule="evenodd" clip-rule="evenodd" d="M85.5369 18.4325C85.5919 18.0699 85.5998 17.7075 85.5919 17.3295C85.5919 17.2446 85.5841 17.1675 85.5762 17.0904C85.5446 16.5272 85.4344 16.1261 85.198 15.6632C84.6937 14.6604 83.7638 13.9738 81.8017 13.1639C80.202 12.5004 79.3983 12.0376 78.9097 11.513C78.5157 11.081 78.3974 10.7416 78.4447 10.1013C78.4842 9.51504 78.6339 9.16019 79.0121 8.76678C79.0909 8.68192 79.1855 8.60477 79.2721 8.54306C79.5007 8.38107 79.7765 8.27307 80.076 8.21907C80.0996 8.21136 80.1312 8.21136 80.1547 8.21136C80.407 8.1805 80.6749 8.19594 80.9663 8.25765C82.2745 8.53535 83.1098 9.43019 83.819 11.3047C84.0554 11.9373 84.0948 11.9913 84.4887 11.8601C84.5124 11.8524 84.536 11.8447 84.5676 11.837C84.6699 11.8061 84.7409 11.783 84.7803 11.7598L84.8591 11.729L84.8513 11.1736C84.8513 10.946 84.8532 10.7204 84.8551 10.4947C84.8572 10.2692 84.8591 10.0433 84.8591 9.81589H84.8276C84.8197 9.53048 84.8118 9.23734 84.8118 8.97506L84.7803 7.77165L84.5597 7.67909C83.3698 7.17767 81.0846 6.85367 79.5952 6.9771C77.901 7.11596 76.6639 7.6328 75.7025 8.59706C74.749 9.55362 74.3157 10.6799 74.3787 12.0221C74.4338 13.133 74.7648 13.9275 75.4583 14.6295C76.1045 15.2851 76.6403 15.5938 78.2005 16.1955C80.7063 17.1751 81.3683 17.746 81.3604 18.9339C81.3525 19.9369 80.8009 20.6619 79.8158 21.0013C79.4613 21.1248 78.5709 21.117 78.0902 20.9859C76.8451 20.6543 75.8916 19.5897 75.0879 17.6226L74.883 17.1212L74.6388 17.1289C74.5047 17.1366 74.3157 17.1751 74.2289 17.2137L74.0635 17.2908L74.0714 18.1472L74.0757 18.4079C74.0842 18.9276 74.0975 19.7317 74.1108 20.3611L74.1422 21.7187L74.418 21.8345C74.9855 22.0813 76.7032 22.4594 77.7829 22.5751C77.8537 22.5827 78.0823 22.5905 78.3974 22.5905C78.8309 22.6214 79.2644 22.629 79.6977 22.6214C79.9893 22.6214 80.273 22.5982 80.5645 22.5673C80.8955 22.5519 81.0846 22.5133 81.4077 22.4285C81.6835 22.3667 81.9514 22.2974 82.2193 22.1971C83.4959 21.7574 84.5045 21.0013 85.1192 19.7903C85.2688 19.4971 85.3713 19.204 85.4501 18.8954C85.4896 18.7489 85.5211 18.61 85.5369 18.4325ZM81.494 19.1268C81.494 19.1422 81.492 19.1557 81.49 19.1692C81.488 19.1827 81.4861 19.1962 81.4861 19.2117C81.4861 19.177 81.4876 19.1391 81.4894 19.0976C81.4916 19.0466 81.494 18.9899 81.494 18.9262V18.664C81.5097 18.8106 81.5097 18.9648 81.494 19.1268ZM81.306 19.8982C81.3041 19.904 81.3021 19.9097 81.2982 19.9137C81.0381 20.4459 80.6283 20.8239 80.1161 21.0399C80.6598 20.8239 81.0854 20.4305 81.3139 19.8828C81.31 19.8866 81.308 19.8924 81.306 19.8982Z" fill="#0B0C0D"/>
<path fill-rule="evenodd" clip-rule="evenodd" d="M31.1508 16.1958C31.2375 15.7098 31.2769 15.2161 31.2927 14.7223C31.3006 14.4678 31.2927 14.2132 31.2848 13.9664C31.2769 13.6963 31.269 13.4418 31.2454 13.249C30.9459 10.6184 29.8191 8.6822 27.9437 7.58678C25.8633 6.36796 22.6877 6.2831 20.4261 7.3785C18.795 8.17306 17.4553 9.70046 16.8485 11.4747C16.2261 13.2952 16.2103 15.6944 16.8092 17.5688C17.1953 18.7646 17.7153 19.644 18.5348 20.4385C19.512 21.395 20.7886 22.0121 22.2542 22.2282C22.2771 22.2307 22.3024 22.2339 22.33 22.2375C22.3878 22.245 22.4554 22.2538 22.5301 22.259C22.9004 22.3053 23.2787 22.3285 23.6647 22.3285C23.8232 22.3185 23.9802 22.3129 24.137 22.3072C24.3466 22.2997 24.5561 22.2921 24.768 22.2744C24.8546 22.2668 24.9256 22.259 24.9808 22.2514C25.2408 22.2205 25.682 22.1279 25.9736 22.0431C25.9816 22.0392 25.9895 22.0372 25.9972 22.0353C26.0051 22.0334 26.013 22.0315 26.0209 22.0276C28.1643 21.4413 29.7087 20.0991 30.6307 17.9777C30.8356 17.4995 30.9932 17.0134 31.0956 16.512C31.0996 16.5004 31.1016 16.4889 31.1036 16.4773C31.1055 16.4657 31.1075 16.4541 31.1115 16.4427C31.1271 16.3732 31.1429 16.2883 31.1508 16.1958ZM21.1913 16.7743C21.0495 15.7251 21.0651 12.8786 21.2228 11.6906C21.404 10.3175 21.7192 9.30698 22.1683 8.65128C22.1762 8.63585 22.1921 8.62042 22.2077 8.60499C22.2117 8.59728 22.2156 8.59149 22.2196 8.58571C22.2235 8.57992 22.2275 8.57413 22.2314 8.56642L22.2787 8.49699C22.2787 8.49222 22.2816 8.4904 22.2859 8.48789C22.2884 8.48633 22.2915 8.48451 22.2944 8.48157C22.3203 8.44625 22.3493 8.41423 22.3775 8.38335C22.3924 8.36703 22.4069 8.35099 22.4206 8.335L22.4835 8.27329L22.4914 8.26558C22.6254 8.13443 22.7751 8.03415 22.9327 7.94929C23.1612 7.83358 23.4134 7.77958 23.6813 7.77958C24.2644 7.77958 24.5875 7.92615 25.0368 8.37356C26.1163 9.44582 26.6127 11.4901 26.5891 14.6991C26.5654 17.2603 26.2975 18.8725 25.7065 19.9524C25.4228 20.477 24.887 20.963 24.4614 21.0865C22.8066 21.557 21.6246 20.0064 21.1913 16.7743ZM24.4292 21.2409C24.2559 21.2872 24.0825 21.3026 23.9013 21.3026C24.0825 21.295 24.2717 21.2795 24.4292 21.2409ZM26.1474 19.3122C26.0055 19.7211 25.8243 20.1145 25.5564 20.4693C25.3437 20.7548 25.0837 20.9631 24.8 21.1019C25.3909 20.7933 25.8322 20.2148 26.1474 19.3122ZM26.1546 19.289C26.1703 19.2582 26.1782 19.2351 26.1861 19.2041C26.174 19.2277 26.1666 19.2513 26.1602 19.2714C26.1583 19.2777 26.1564 19.2835 26.1546 19.289Z" fill="#0B0C0D"/>
<path fill-rule="evenodd" clip-rule="evenodd" d="M40.5523 7.02361C41.1197 6.76904 41.5057 6.6919 42.2071 6.69961C43.0424 6.70732 43.8698 6.97732 43.8698 7.25503C43.8698 7.26274 43.8698 7.27817 43.8619 7.2936C43.8698 7.33989 43.8619 7.38617 43.8382 7.44788L43.3182 8.767C43.2382 8.98509 43.15 9.20724 43.0624 9.42756C43.0291 9.51117 42.9961 9.59451 42.9635 9.67726C42.8651 9.93168 42.7647 10.1861 42.6642 10.4405C42.5638 10.6949 42.4631 10.9502 42.3647 11.2047C42.3585 11.2228 42.3475 11.2314 42.3204 11.2528C42.3129 11.2588 42.3041 11.2657 42.2937 11.2741C42.2878 11.2711 42.2829 11.2693 42.2787 11.2678C42.272 11.2652 42.2671 11.2634 42.2623 11.2586C42.1756 11.2509 41.9234 11.1507 41.6555 11.0195C41.0093 10.711 40.4025 10.5567 39.8115 10.5567C39.1181 10.5567 38.3537 10.7804 37.9913 11.0889C37.9046 11.1738 37.8494 11.2664 37.81 11.3821C37.7876 11.4994 37.7793 11.6934 37.765 12.0303L37.7627 12.0841C37.7627 12.7412 37.7487 13.4017 37.7348 14.0634C37.7278 14.3959 37.7207 14.7288 37.7155 15.0617C37.7155 16.1572 37.7392 17.2525 37.7785 18.1088C37.7942 18.4559 37.8179 18.8031 37.8415 19.1502C37.8415 19.2119 37.8494 19.2736 37.8573 19.3276C37.9519 20.2301 38.1962 20.6776 38.7005 20.8859C38.8739 20.9553 39.9377 21.1095 40.2844 21.1095C40.3079 21.1095 40.3158 21.3179 40.3079 21.5724L40.2923 21.881V22.0121H40.2844V22.0276H40.1425C40.115 22.0276 40.0873 22.0295 40.0598 22.0314C40.0321 22.0333 40.0046 22.0352 39.9771 22.0352L36.5887 22.0121H35.8085C34.721 22.0121 33.7046 22.0044 32.9165 21.9967C32.7076 21.9967 32.497 21.9948 32.2862 21.9929C32.0756 21.9909 31.8644 21.989 31.6557 21.989C31.5296 21.989 31.4509 21.989 31.3957 21.9659C31.368 21.9633 31.3444 21.9617 31.3248 21.9603C31.283 21.9573 31.2592 21.9557 31.2538 21.9505C31.1986 21.9118 31.183 21.7731 31.1986 21.4876L31.2223 21.0787L31.4351 21.0324C31.5533 21.0092 31.8054 20.963 31.9946 20.9321C32.5776 20.8242 32.9165 20.5156 33.1136 19.9061C33.2711 19.4125 33.3499 17.8233 33.3736 14.6297C33.4051 10.7264 33.3263 9.80069 32.9244 9.27612C32.7037 8.9907 32.5462 8.90585 32.0181 8.80556C31.9074 8.78325 31.7954 8.76092 31.697 8.74133C31.5574 8.71352 31.4451 8.69119 31.4036 8.68214C31.2853 8.65899 31.2696 8.62043 31.2696 8.32729C31.2775 8.04959 31.2932 7.99559 31.4115 7.9493C31.5927 7.87987 37.5973 6.73818 37.7864 6.73818H37.9361L37.9046 7.60988C37.8958 7.84482 37.8823 8.13418 37.8693 8.41244C37.8587 8.63668 37.8485 8.85371 37.8415 9.02928L37.8179 9.82383L38.0227 9.46126C38.7241 8.24243 39.5121 7.48646 40.5523 7.02361ZM32.506 20.9321C32.4115 20.963 32.2696 21.0094 32.1277 21.0402C32.2617 21.017 32.3877 20.9784 32.506 20.9321ZM37.8499 10.0242C37.8814 9.98563 37.913 9.93935 37.9445 9.88535L37.8499 10.0242ZM33.3821 19.0344C33.384 18.9862 33.3859 18.9379 33.3899 18.8878C33.3769 19.0279 33.3663 19.1564 33.3568 19.2718C33.349 19.3661 33.3418 19.4518 33.3348 19.528C33.3505 19.4123 33.3663 19.2966 33.3742 19.181C33.3782 19.1307 33.3801 19.0826 33.3821 19.0344ZM33.1694 20.1687C33.0827 20.4232 32.9488 20.6238 32.7676 20.7704C32.9172 20.6315 33.059 20.4154 33.1694 20.1687ZM31.3166 21.8115C31.3087 21.7731 31.3087 21.7344 31.3087 21.6804L31.3008 21.8115H31.3166Z" fill="#0B0C0D"/>
</g>
<defs>
<clipPath id="clip0_273_3581">
<rect width="86.6667" height="24.2157" fill="white" transform="translate(0.333496 0.233154)"/>
</clipPath>
</defs>
</svg>
