<svg width="94" height="37" viewBox="0 0 94 37" fill="none" xmlns="http://www.w3.org/2000/svg">
<g clip-path="url(#clip0_273_3592)">
<path d="M4.39972 21.6102V26.752H7.55654C8.30795 26.752 8.92998 26.4984 9.42206 25.991C9.92735 25.4838 10.1805 24.8805 10.1805 24.1812C10.1805 23.4957 9.92735 22.8992 9.42206 22.3919C8.92998 21.871 8.30795 21.6102 7.55654 21.6102H4.39972ZM4.39972 28.5618V34.5265H2.51367V19.8004H7.51562C8.78654 19.8004 9.86604 20.2256 10.7543 21.0756C11.6565 21.9258 12.1073 22.9611 12.1073 24.1812C12.1073 25.4291 11.6565 26.4712 10.7543 27.3073C9.87968 28.144 8.80003 28.5618 7.51562 28.5618H4.39972Z" fill="#0B0C0D"/>
<path d="M14.7107 31.4419C14.7107 31.9356 14.9189 32.347 15.3359 32.6758C15.7526 33.005 16.2409 33.1696 16.8016 33.1696C17.594 33.1696 18.3013 32.875 18.9233 32.2852C19.5449 31.6959 19.8559 31.0033 19.8559 30.2079C19.2682 29.7418 18.4482 29.5086 17.3961 29.5086C16.6305 29.5086 15.9918 29.6937 15.4795 30.0639C14.9669 30.4342 14.7107 30.8937 14.7107 31.4419ZM17.1501 24.12C18.5441 24.12 19.6441 24.4939 20.4505 25.2409C21.2567 25.9884 21.66 27.0132 21.66 28.3157V34.527H19.8559V33.1285H19.7741C18.995 34.2803 17.9564 34.8561 16.6581 34.8561C15.5511 34.8561 14.6251 34.5269 13.8805 33.8689C13.1354 33.2105 12.7632 32.3879 12.7632 31.4009C12.7632 30.359 13.1559 29.5292 13.9419 28.9123C14.7276 28.2952 15.7766 27.9866 17.0885 27.9866C18.209 27.9866 19.1315 28.1923 19.8559 28.6037V28.1717C19.8559 27.5137 19.5963 26.955 19.0771 26.4957C18.5575 26.0363 17.9495 25.8066 17.2527 25.8066C16.2 25.8066 15.3666 26.2523 14.7518 27.1434L13.0913 26.0945C14.0067 24.7784 15.3596 24.12 17.1501 24.12Z" fill="#0B0C0D"/>
<path d="M35.5587 34.6905C34.7387 34.6905 34.0588 34.4369 33.5192 33.9296C32.979 33.4223 32.7023 32.7161 32.6888 31.8111V26.1758H30.9258V24.4481H32.6888V21.3629H34.5747V24.4481H37.0348V26.1758H34.5747V31.1942C34.5747 31.8659 34.7044 32.3221 34.9644 32.5618C35.2236 32.802 35.5178 32.9217 35.8458 32.9217C35.996 32.9217 36.143 32.9047 36.2865 32.8702C36.4299 32.8363 36.563 32.7917 36.6862 32.7367L37.2808 34.4231C36.7887 34.6012 36.2147 34.6905 35.5587 34.6905ZM23.792 24.4481H25.596V26.0935H25.6779C26.2382 24.8049 27.3929 24.1602 29.1424 24.1602L29.532 24.2013V26.1758L28.6914 26.0935C27.8165 26.0935 27.0957 26.3643 26.5287 26.9061C25.9615 27.4477 25.6779 28.1366 25.6779 28.9727V34.5259H23.792V24.4481Z" fill="#0B0C0D"/>
<path d="M38.9404 24.4485H40.7445V25.847H40.8265C41.1132 25.3535 41.554 24.9423 42.1487 24.613C42.7431 24.2839 43.3613 24.1195 44.0038 24.1195C45.2337 24.1195 46.1801 24.4725 46.843 25.1785C47.5056 25.8849 47.8374 26.8894 47.8374 28.1917V34.5265H45.9513V28.3151C45.9103 26.6697 45.0832 25.847 43.4708 25.847C42.7191 25.847 42.0904 26.1523 41.5849 26.7623C41.0793 27.3725 40.8265 28.1028 40.8265 28.9527V34.5265H38.9404V24.4485Z" fill="#0B0C0D"/>
<path d="M51.5475 28.2746H57.3079C57.2532 27.5753 56.9697 26.9962 56.4572 26.5366C55.9446 26.0774 55.258 25.8477 54.397 25.8477C53.6862 25.8477 53.0747 26.0672 52.5621 26.5059C52.0499 26.9448 51.7117 27.5343 51.5475 28.2746ZM54.561 34.8561C53.0852 34.8561 51.8685 34.349 50.9121 33.3342C49.9554 32.3195 49.4771 31.0377 49.4771 29.488C49.4771 27.9526 49.9416 26.6739 50.8709 25.6522C51.8003 24.6309 52.9893 24.12 54.4379 24.12C55.9274 24.12 57.1132 24.6035 57.9945 25.5701C58.8762 26.5366 59.3168 27.891 59.3168 29.632L59.2963 29.8377H51.404C51.4313 30.8249 51.7593 31.6203 52.3881 32.2235C53.0164 32.8271 53.7681 33.1285 54.643 33.1285C55.8454 33.1285 56.7884 32.5253 57.472 31.3184L59.1527 32.1412C58.7018 32.9915 58.0766 33.6564 57.2771 34.1362C56.4776 34.6161 55.5722 34.8561 54.561 34.8561Z" fill="#0B0C0D"/>
<path d="M62.9246 34.5265H61.0386V24.4485H62.8426V26.0939H62.9246C63.1159 25.5592 63.5087 25.1035 64.1032 24.7262C64.6977 24.3493 65.2821 24.1606 65.856 24.1606C66.4025 24.1606 66.8672 24.2431 67.25 24.4075L66.6759 26.238C66.4434 26.1422 66.0745 26.0939 65.5691 26.0939C64.8583 26.0939 64.2396 26.3818 63.7139 26.9578C63.1875 27.5337 62.9246 28.2056 62.9246 28.9733V34.5265Z" fill="#0B0C0D"/>
<path d="M7.03514 12.6132C6.19414 12.6235 5.3596 12.4704 4.58163 12.163C3.80366 11.8555 3.09806 11.4001 2.50718 10.8241C1.89779 10.2725 1.41418 9.60497 1.08708 8.86396C0.759986 8.12295 0.596437 7.32459 0.606919 6.51954C0.596868 5.71456 0.760561 4.91633 1.08766 4.17538C1.41476 3.43443 1.89822 2.76689 2.50718 2.21502C3.09518 1.63298 3.79935 1.17148 4.57761 0.858327C5.35572 0.545169 6.1917 0.386833 7.03514 0.392852C7.83882 0.382545 8.6366 0.526069 9.38212 0.815082C10.1276 1.1041 10.8061 1.53283 11.3779 2.07637L10.1566 3.27134C9.32038 2.49358 8.19808 2.0663 7.03514 2.08297C6.43192 2.07584 5.83373 2.18955 5.27861 2.41686C4.7235 2.64418 4.22366 2.98014 3.8107 3.40338C3.38165 3.81309 3.04306 4.30214 2.81547 4.84107C2.58789 5.38002 2.47603 5.95771 2.48665 6.53935C2.48163 7.11436 2.59621 7.68453 2.82352 8.21628C3.05096 8.74805 3.38653 9.23066 3.8107 9.63571C4.66032 10.4505 5.80674 10.9139 7.00614 10.9275C8.2054 10.9411 9.36288 10.5037 10.2322 9.70834C10.7703 9.14121 11.1005 8.41999 11.1721 7.65509H7.05568V5.96497H12.8803C12.9375 6.30536 12.9605 6.65026 12.9489 6.99489C12.9851 7.70817 12.8706 8.42113 12.6125 9.09064C12.3541 9.76014 11.9575 10.3723 11.4465 10.8901C10.8782 11.4594 10.1917 11.9071 9.43166 12.204C8.6715 12.5009 7.85504 12.6404 7.03514 12.6132ZM20.5778 11.4909C19.7961 12.2119 18.7552 12.6145 17.6724 12.6145C16.5896 12.6145 15.5486 12.2119 14.7669 11.4909C14.3779 11.1279 14.0715 10.691 13.8671 10.208C13.6628 9.72493 13.565 9.20632 13.5801 8.68501C13.5655 8.16376 13.6634 7.64527 13.8677 7.1623C14.072 6.67934 14.3782 6.24241 14.7669 5.87914C15.5494 5.1596 16.59 4.75805 17.6724 4.75805C18.7547 4.75805 19.7952 5.1596 20.5778 5.87914C20.9665 6.24241 21.2726 6.67934 21.477 7.1623C21.6813 7.64527 21.7792 8.16376 21.7646 8.68501C21.7788 9.20681 21.6799 9.72571 21.4744 10.2088C21.2689 10.6918 20.9612 11.1284 20.5709 11.4909H20.5778ZM16.0499 10.3883C16.2578 10.602 16.5091 10.7724 16.7882 10.8888C17.0672 11.0052 17.3681 11.0653 17.6724 11.0653C17.9765 11.0653 18.2775 11.0052 18.5566 10.8888C18.8356 10.7724 19.0869 10.602 19.2948 10.3883C19.5216 10.1629 19.699 9.89598 19.8169 9.60344C19.9347 9.31091 19.9905 8.99863 19.9809 8.68501C19.9911 8.37035 19.9355 8.05692 19.8176 7.76324C19.6999 7.46956 19.5221 7.20156 19.2948 6.97509C19.0842 6.7636 18.8312 6.59531 18.5512 6.48035C18.2712 6.36538 17.9699 6.30612 17.6655 6.30612C17.3611 6.30612 17.0597 6.36538 16.7797 6.48035C16.4997 6.59531 16.2469 6.7636 16.0361 6.97509C15.8089 7.20156 15.6311 7.46956 15.5133 7.76324C15.3955 8.05692 15.3399 8.37035 15.3501 8.68501C15.3414 8.99909 15.3982 9.31164 15.5173 9.60421C15.6363 9.89677 15.8151 10.1634 16.043 10.3883H16.0499ZM29.5101 11.4909C28.7285 12.2119 27.6875 12.6145 26.6047 12.6145C25.5219 12.6145 24.481 12.2119 23.6993 11.4909C23.3102 11.1279 23.0039 10.691 22.7996 10.208C22.5952 9.72493 22.4975 9.20632 22.5124 8.68501C22.4979 8.16376 22.5958 7.64527 22.8002 7.1623C23.0043 6.67934 23.3106 6.24241 23.6993 5.87914C24.481 5.15808 25.5219 4.75551 26.6047 4.75551C27.6875 4.75551 28.7285 5.15808 29.5101 5.87914C29.8989 6.24241 30.2051 6.67934 30.4094 7.1623C30.6136 7.64527 30.7117 8.16376 30.697 8.68501C30.7119 9.20632 30.6143 9.72493 30.41 10.208C30.2056 10.691 29.8992 11.1279 29.5101 11.4909ZM24.9823 10.3883C25.1902 10.602 25.4415 10.7724 25.7205 10.8888C25.9996 11.0052 26.3006 11.0653 26.6047 11.0653C26.909 11.0653 27.2099 11.0052 27.4889 10.8888C27.7681 10.7724 28.0194 10.602 28.2273 10.3883C28.454 10.1629 28.6315 9.89598 28.7492 9.60344C28.8671 9.31091 28.9228 8.99863 28.9133 8.68501C28.9234 8.37035 28.868 8.05692 28.7501 7.76324C28.6322 7.46956 28.4544 7.20156 28.2273 6.97509C28.0166 6.7636 27.7636 6.59531 27.4836 6.48035C27.2036 6.36538 26.9024 6.30612 26.5978 6.30612C26.2934 6.30612 25.9922 6.36538 25.7122 6.48035C25.4322 6.59531 25.1791 6.7636 24.9685 6.97509C24.7413 7.20156 24.5634 7.46956 24.4457 7.76324C24.3278 8.05692 24.2724 8.37035 24.2824 8.68501C24.2738 8.99909 24.3307 9.31164 24.4497 9.60421C24.5686 9.89677 24.7474 10.1634 24.9754 10.3883H24.9823ZM35.3828 16.1387C34.5604 16.1639 33.754 15.9168 33.0981 15.439C32.5159 15.0177 32.0572 14.458 31.7672 13.8148L33.3315 13.1876C33.5016 13.572 33.768 13.9099 34.1067 14.1713C34.4693 14.4525 34.9242 14.6 35.3897 14.5872C35.6847 14.6045 35.9803 14.5604 36.2561 14.4579C36.5321 14.3553 36.7816 14.1968 36.9881 13.9931C37.4014 13.5133 37.6055 12.898 37.5574 12.2765V11.7087H37.4957C37.2344 12.0076 36.9041 12.2437 36.5315 12.3984C36.1587 12.5531 35.7537 12.6221 35.3485 12.6C34.8334 12.6015 34.3235 12.5002 33.8512 12.3025C33.3788 12.1048 32.9542 11.8149 32.6042 11.4513C32.2244 11.0905 31.9246 10.6594 31.723 10.1839C31.5214 9.70839 31.422 9.19849 31.431 8.68501C31.4216 8.16854 31.5206 7.65553 31.7222 7.17678C31.9238 6.69803 32.2238 6.2634 32.6042 5.89896C32.9534 5.53379 33.3777 5.24251 33.8501 5.04361C34.3225 4.84471 34.8328 4.74254 35.3485 4.74359C35.7848 4.74286 36.216 4.83532 36.6108 5.01427C36.9524 5.1578 37.2568 5.37194 37.5026 5.64147H37.5643V5.01427H39.2657V12.0454C39.3105 12.6017 39.2369 13.1608 39.0493 13.6887C38.8618 14.2166 38.5643 14.702 38.175 15.1155C37.8041 15.4568 37.366 15.7233 36.8865 15.899C36.4069 16.0748 35.8955 16.1562 35.3828 16.1387ZM35.5063 11.0683C35.7992 11.0745 36.09 11.0186 36.3579 10.9045C36.6258 10.7904 36.8645 10.6209 37.0567 10.4081C37.48 9.94134 37.7032 9.3372 37.6809 8.71803C37.7063 8.0884 37.4834 7.47283 37.0567 6.99489C36.8648 6.78173 36.6263 6.61202 36.3582 6.4979C36.0901 6.38376 35.7992 6.32803 35.5063 6.33468C35.2053 6.32874 34.9065 6.38454 34.6297 6.49837C34.3528 6.61221 34.1044 6.78147 33.9009 6.99489C33.447 7.45566 33.2005 8.07014 33.2149 8.70482C33.2078 9.01613 33.2648 9.32571 33.3826 9.61576C33.5003 9.9058 33.6765 10.1706 33.9009 10.3949C34.1034 10.6104 34.3514 10.7819 34.6282 10.898C34.9049 11.0141 35.2043 11.0722 35.5063 11.0683ZM42.2913 0.835189V12.3756H40.5006V0.835189H42.2913ZM47.2034 12.6132C46.6671 12.6265 46.1338 12.5331 45.6368 12.3388C45.1398 12.1446 44.6898 11.8536 44.3151 11.4843C43.9348 11.1176 43.636 10.6804 43.4367 10.1992C43.2374 9.71803 43.1418 9.20286 43.1557 8.68501C43.1353 8.16589 43.2239 7.64817 43.416 7.16269C43.6082 6.67723 43.9 6.23397 44.274 5.85934C44.6264 5.50182 45.0525 5.21907 45.5251 5.02921C45.9977 4.83935 46.5061 4.74656 47.0181 4.7568C47.489 4.75202 47.9558 4.83962 48.3903 5.01427C48.7816 5.16628 49.1381 5.39056 49.4399 5.67448C49.699 5.91517 49.9291 6.18314 50.126 6.47333C50.2851 6.71834 50.4206 6.97691 50.5308 7.24577L50.716 7.69471L45.2276 9.86677C45.3936 10.2338 45.6711 10.5438 46.0239 10.7559C46.3766 10.9681 46.7878 11.0724 47.2034 11.0552C47.6077 11.0562 48.0053 10.9564 48.3577 10.7655C48.7099 10.5746 49.0048 10.2991 49.2135 9.96581L50.5856 10.8571C50.2354 11.3392 49.7873 11.7479 49.2683 12.0587C48.6512 12.4339 47.9332 12.6267 47.2034 12.6132ZM44.912 8.56618L48.5617 7.10712C48.4493 6.84987 48.2483 6.63771 47.9924 6.50634C47.7058 6.35063 47.3814 6.2709 47.0525 6.27526C46.4942 6.28919 45.9641 6.51457 45.5775 6.90246C45.346 7.11552 45.1664 7.37513 45.0514 7.66273C44.9364 7.95032 44.8887 8.25881 44.912 8.56618Z" fill="#0B0C0D"/>
<path d="M60.601 12.6992C59.8329 12.7119 59.0702 12.5754 58.3584 12.2978C57.6467 12.0203 57.0007 11.6074 56.4591 11.0839C55.9176 10.5604 55.4917 9.93723 55.2072 9.25169C54.9226 8.56615 54.785 7.83241 54.8028 7.09453C54.785 6.35663 54.9226 5.62289 55.2072 4.93735C55.4917 4.25181 55.9176 3.6286 56.4591 3.10514C57.0007 2.58169 57.6467 2.16878 58.3584 1.89121C59.0702 1.61363 59.8329 1.47711 60.601 1.48985C61.3782 1.46649 62.151 1.61223 62.8615 1.91616C63.572 2.2201 64.2018 2.67437 64.7039 3.24504L63.7075 4.17584C63.3389 3.73032 62.8661 3.37469 62.3275 3.13785C61.7889 2.90103 61.1997 2.78969 60.6078 2.8129C60.0381 2.80056 59.4716 2.89904 58.9426 3.10242C58.4135 3.30578 57.9326 3.60985 57.5289 3.99633C57.1091 4.4019 56.7812 4.88648 56.5658 5.41965C56.3503 5.95282 56.2518 6.52304 56.2766 7.09453C56.2518 7.666 56.3503 8.23622 56.5658 8.7694C56.7812 9.30256 57.1091 9.78715 57.5289 10.1927C57.9326 10.5792 58.4135 10.8833 58.9426 11.0866C59.4716 11.29 60.0381 11.3885 60.6078 11.3761C61.2691 11.3833 61.9234 11.2471 62.5223 10.9778C63.1214 10.7084 63.6494 10.3128 64.0674 9.82041L65.0636 10.7778C64.5419 11.3772 63.887 11.8566 63.1471 12.1806C62.3495 12.5345 61.4793 12.7117 60.601 12.6992Z" fill="#0B0C0D"/>
<path d="M67.7412 12.4597H66.3091V1.72241H67.7412V12.4597Z" fill="#0B0C0D"/>
<path d="M70.0801 5.99762C70.8307 5.28145 71.8454 4.87952 72.9031 4.87952C73.9608 4.87952 74.9755 5.28145 75.7261 5.99762C76.0929 6.36995 76.3797 6.80834 76.5698 7.28757C76.7598 7.76681 76.8492 8.2774 76.833 8.79C76.8492 9.30258 76.7598 9.81317 76.5698 10.2924C76.3797 10.7716 76.0929 11.21 75.7261 11.5824C74.9755 12.2985 73.9608 12.7005 72.9031 12.7005C71.8454 12.7005 70.8307 12.2985 70.0801 11.5824C69.7131 11.21 69.4263 10.7716 69.2364 10.2924C69.0464 9.81317 68.9569 9.30258 68.973 8.79C68.9569 8.2774 69.0464 7.76681 69.2364 7.28757C69.4263 6.80834 69.7131 6.36995 70.0801 5.99762ZM71.1457 10.718C71.3713 10.9472 71.6432 11.1297 71.9448 11.2545C72.2465 11.3793 72.5713 11.4436 72.8996 11.4436C73.2279 11.4436 73.5528 11.3793 73.8544 11.2545C74.1559 11.1297 74.4279 10.9472 74.6536 10.718C74.9039 10.4599 75.0983 10.1565 75.2254 9.82551C75.3524 9.49451 75.4097 9.1425 75.3939 8.79C75.4097 8.4375 75.3524 8.08549 75.2254 7.75447C75.0983 7.42345 74.9039 7.12005 74.6536 6.86193C74.4279 6.63276 74.1559 6.45023 73.8544 6.32548C73.5528 6.20074 73.2279 6.1364 72.8996 6.1364C72.5713 6.1364 72.2465 6.20074 71.9448 6.32548C71.6432 6.45023 71.3713 6.63276 71.1457 6.86193C70.8953 7.12005 70.701 7.42345 70.5738 7.75447C70.4467 8.08549 70.3894 8.4375 70.4053 8.79C70.3913 9.14185 70.4501 9.49287 70.5784 9.82271C70.7067 10.1525 70.9019 10.4546 71.1526 10.7114L71.1457 10.718Z" fill="#0B0C0D"/>
<path d="M84.7692 12.4599H83.3854V11.4427H83.3439C83.0976 11.8291 82.749 12.1457 82.3337 12.3602C81.9028 12.6002 81.4135 12.7263 80.9153 12.7259C80.5109 12.7525 80.1055 12.6909 79.7293 12.5459C79.3531 12.4008 79.0159 12.176 78.7428 11.8882C78.2186 11.2511 77.9552 10.4518 78.0025 9.64096V5.12H79.4347V9.38833C79.4347 10.7579 80.0643 11.4427 81.3236 11.4427C81.6033 11.4511 81.8811 11.3951 82.1339 11.2795C82.3866 11.1638 82.607 10.9919 82.7766 10.7779C83.1477 10.3258 83.3456 9.76466 83.337 9.18887V5.12H84.7692V12.4599Z" fill="#0B0C0D"/>
<path d="M89.6331 12.6991C89.1472 12.7006 88.6667 12.601 88.2249 12.407C87.7829 12.213 87.3899 11.9293 87.073 11.5755C86.3558 10.8142 85.9715 9.81635 86.0006 8.78976C85.9715 7.76315 86.3558 6.76534 87.073 6.00404C87.3899 5.65015 87.7829 5.36646 88.2249 5.1725C88.6667 4.97852 89.1472 4.87889 89.6331 4.88044C90.1774 4.87218 90.7152 4.99564 91.1968 5.23946C91.6199 5.44411 91.9783 5.75405 92.2352 6.13701H92.297L92.2352 5.11979V1.72241H93.6668V12.4597H92.2826V11.4425H92.2207C91.9645 11.8255 91.6062 12.1354 91.1829 12.34C90.7054 12.5817 90.1727 12.7051 89.6331 12.6991ZM89.8683 11.4425C90.1921 11.447 90.513 11.3853 90.8101 11.2616C91.1072 11.1378 91.3734 10.9547 91.5911 10.7245C92.0777 10.1921 92.3257 9.49701 92.2826 8.78976C92.3257 8.08249 92.0777 7.38737 91.5911 6.85504C91.372 6.62358 91.1049 6.43865 90.8071 6.31212C90.5091 6.18557 90.1871 6.12021 89.8614 6.12021C89.5357 6.12021 89.2137 6.18557 88.9157 6.31212C88.6179 6.43865 88.3508 6.62358 88.1317 6.85504C87.8899 7.11686 87.7044 7.42195 87.5858 7.75281C87.467 8.08367 87.4173 8.43378 87.4397 8.78311C87.4173 9.13242 87.467 9.48255 87.5858 9.81339C87.7044 10.1443 87.8899 10.4493 88.1317 10.7112C88.3497 10.9455 88.6176 11.1321 88.9173 11.2583C89.2168 11.3844 89.5412 11.4473 89.8683 11.4425Z" fill="#0B0C0D"/>
</g>
<defs>
<clipPath id="clip0_273_3592">
<rect width="93.3333" height="35.8974" fill="white" transform="translate(0.333496 0.392334)"/>
</clipPath>
</defs>
</svg>
