<svg width="75" height="28" viewBox="0 0 75 28" fill="none" xmlns="http://www.w3.org/2000/svg">
<g clip-path="url(#clip0_117_4572)">
<path fill-rule="evenodd" clip-rule="evenodd" d="M0.00970459 0.627808V27.2948H74.9903V0.627808H0.00970459ZM67.0459 21.202C57.735 25.0575 47.6117 26.2056 37.605 26.2056C27.6319 26.2056 17.3657 25.1326 8.10514 21.202C5.34822 20.0368 0.998651 17.4138 0.998651 13.9611C0.998651 10.4998 5.35632 7.8849 8.10514 6.72018C17.3662 2.78958 27.6238 1.71701 37.605 1.71701C47.6113 1.71701 57.735 2.86509 67.0459 6.72018C70.0208 7.95231 74.0014 10.2903 74.0014 13.9611C74.0014 17.6233 70.0289 19.9698 67.0459 21.202Z" fill="#0B0C0D"/>
<path fill-rule="evenodd" clip-rule="evenodd" d="M48.1646 15.2439C47.9714 15.1181 47.7623 15.0259 47.5273 15.0259H44.0493V15.5959H48.6425C48.8682 15.5959 49.0781 15.5033 49.2709 15.3864V18.8639H37.6468C37.8477 18.6963 38.032 18.4868 38.032 18.2184V9.37724C38.032 9.10121 37.8477 8.8913 37.6468 8.72363H49.2705V11.8662C49.0781 11.7408 48.8682 11.6482 48.6421 11.6482H44.0489V12.3104H47.5268C47.7619 12.3104 47.971 12.2263 48.1642 12.0928L48.1646 15.2439ZM59.2679 16.8361H56.6957L56.1841 18.3528C56.1671 18.4071 56.1586 18.4636 56.159 18.5205C56.159 18.6464 56.2008 18.7556 56.2597 18.8644H50.3341C50.4681 18.7304 50.5606 18.5883 50.6276 18.4117L53.7873 9.88835C53.8632 9.67887 53.9298 9.45276 53.9298 9.23475C53.9298 9.05044 53.8632 8.88277 53.7873 8.72363H63.3657C63.2906 8.8913 63.2155 9.05897 63.2155 9.24328C63.2155 9.4694 63.2821 9.68741 63.3657 9.88835L66.8522 18.4117C66.9196 18.5964 67.0207 18.73 67.1713 18.8644H59.7713C59.8212 18.7389 59.8554 18.6131 59.8554 18.4791C59.8554 18.4036 59.8464 18.3366 59.8212 18.2696L59.2679 16.8361ZM26.8021 15.1428V18.2099C26.8021 18.4864 26.9783 18.6877 27.1792 18.8635H20.1649C20.3577 18.6877 20.542 18.4864 20.542 18.2099V9.38577C20.542 9.10121 20.3577 8.90794 20.1649 8.72363H27.1797C26.9783 8.89983 26.8025 9.10078 26.8025 9.38577V12.4362L28.8389 9.38577C28.8977 9.29362 28.9476 9.18483 28.9476 9.06708C28.9476 8.94975 28.8892 8.83243 28.8389 8.72363H35.7615C35.4638 8.87883 35.2101 9.10656 35.0238 9.38577L32.5933 12.9141L35.9453 18.2103C36.1215 18.4953 36.3643 18.7048 36.6659 18.8639H28.6042C28.6626 18.7803 28.7382 18.6882 28.7382 18.5879C28.7382 18.4539 28.6712 18.3196 28.6042 18.2103L26.8021 15.1428ZM10.4854 8.72363H17.6674C17.4664 8.89983 17.2902 9.09225 17.2902 9.37724V18.2103C17.2902 18.4868 17.4664 18.6882 17.6674 18.8639H10.4854C10.6782 18.6882 10.854 18.4868 10.854 18.2103V9.37724C10.854 9.09225 10.6782 8.89983 10.4854 8.72363ZM57.3574 14.7912H58.5054L57.9107 13.1738L57.3574 14.7912Z" fill="#0B0C0D"/>
</g>
<defs>
<clipPath id="clip0_117_4572">
<rect width="75" height="27.1875" fill="white" transform="translate(0 0.606201)"/>
</clipPath>
</defs>
</svg>
