<svg width="61" height="39" viewBox="0 0 61 39" fill="none" xmlns="http://www.w3.org/2000/svg">
<path fill-rule="evenodd" clip-rule="evenodd" d="M44.0053 19.9844C45.4368 18.0953 47.6656 16.9188 50.7599 16.9436C57.3345 17.0346 58.9375 22.6355 58.9546 26.4634C58.9546 31.1363 56.7087 36.53 50.2284 36.53C47.4169 36.53 45.0854 35.3618 43.611 33.2077C42.2395 35.163 40.0623 36.53 36.7964 36.53C33.9677 36.53 31.6276 35.3453 30.1531 33.1827C30.1514 33.1862 30.15 33.1892 30.1488 33.192L30.1461 33.1985C30.1433 33.2056 30.1412 33.2107 30.1361 33.2159L30.1276 33.2077C28.7646 35.1131 26.5873 36.4637 23.3815 36.4637C20.767 36.4637 18.5384 35.4529 17.064 33.5805C17.3725 33.1827 17.3469 33.1827 17.0382 33.5805C16.4124 32.7768 16.4039 32.8018 17.0382 33.6053C16.884 33.8124 16.7039 34.0196 16.4811 34.2267C14.3552 36.3145 11.3379 36.4555 9.70072 36.4555C8.65494 36.4555 5.41478 36.4555 3.22896 34.3096C1.96984 33.0677 1.68645 31.7515 1.37813 30.3192L1.37744 30.3161L7.14629 29.7194C7.14629 30.2 7.14629 30.6557 7.29202 31.0948C7.6349 32.172 8.56066 32.6773 9.72643 32.6773C11.7665 32.6773 12.598 31.2192 12.598 29.7609C12.598 28.0625 11.6379 26.8445 9.64072 26.8445C8.10248 26.8445 7.62417 27.5223 7.29135 27.9938L7.26631 28.0292L2.4232 27.4659L3.50326 17.2998H17.8954L17.6812 19.2055C17.124 19.7689 16.6354 20.4565 16.2582 21.1938H7.6006L7.31774 23.8535C7.45995 23.7662 7.61678 23.6928 7.76618 23.6227C7.81485 23.6 7.86286 23.5777 7.9092 23.5553C8.76638 23.2322 10.035 23.0498 11.0894 23.0498C12.6923 23.0498 14.1409 23.3978 15.3067 24.0606C16.0182 24.4583 16.0439 24.4502 15.3324 24.0606C15.5124 23.0498 15.8639 22.0971 16.2924 21.2353H16.2582C16.6354 20.4898 17.1324 19.8352 17.6812 19.2385H17.7069C19.1297 17.7473 21.1698 16.8525 23.8786 16.8773C27.1101 16.9104 29.1417 18.3106 30.3761 20.1832C30.3931 20.2163 30.4276 20.1832 30.4103 20.1584C30.5561 19.9511 30.7103 19.7523 30.8817 19.5617C32.3132 17.9213 34.4477 16.9188 37.3192 16.9436C41.3223 17.0015 43.3538 18.9818 44.0053 19.9844ZM21.0493 30.2914C21.4178 31.7579 22.2836 32.6444 23.5437 32.6444C25.9181 32.6444 26.3209 29.5788 26.3209 26.8862C26.3209 26.0492 26.2696 23.9945 25.9867 22.8346C25.7038 21.6745 24.9923 20.6058 23.6379 20.6058C22.9951 20.6058 22.1636 20.9372 21.6408 21.7658C20.9293 22.9588 20.8093 25.3947 20.8093 27.2506C20.8093 28.2697 20.835 29.3053 21.0493 30.2914ZM36.9856 32.7025C35.7256 32.7025 34.8511 31.8077 34.4911 30.3496C34.2768 29.3636 34.2426 28.3198 34.2426 27.3005C34.2426 25.4529 34.3711 23.017 35.0739 21.824C35.5969 20.9872 36.4283 20.6558 37.0884 20.6558C38.4429 20.6558 39.1542 21.7327 39.4284 22.8845C39.7114 24.0528 39.7714 26.0992 39.7714 26.9444C39.7629 29.6287 39.36 32.7025 36.9856 32.7025ZM47.9318 30.3496C48.3004 31.8077 49.1661 32.7025 50.4261 32.7025C52.8007 32.7025 53.2036 29.6287 53.2036 26.9444C53.2036 26.0992 53.1436 24.0528 52.8692 22.8845C52.5863 21.7327 51.8749 20.6558 50.5206 20.6558C49.8776 20.6558 49.0461 20.9872 48.5233 21.824C47.8118 23.017 47.6918 25.4529 47.6918 27.3005C47.6918 28.3198 47.7176 29.3636 47.9318 30.3496Z" fill="#0B0C0D"/>
<path d="M18.6916 12.2951H16.7801V4.51524H18.6916V1.17627H8.44824V4.51524H10.3598V12.2951H8.44824V15.4187H18.6916V12.2951Z" fill="#0B0C0D"/>
<path d="M27.2545 12.2615H25.7117V9.57708C25.7117 8.44199 26.6031 7.61348 27.7775 7.61348C28.729 7.61348 29.4404 8.06087 29.4404 9.04682V12.2947H27.9575V15.4264H35.7921V12.4024C36.8722 14.6642 39.6067 15.6999 42.3925 15.6999C44.6726 15.6999 47.8528 15.1614 48.5556 11.7644L48.6499 11.4081H44.4841H44.3297C44.3297 12.5681 43.464 13.1066 42.4782 13.1066C40.6267 13.1066 40.4723 11.5904 40.4723 10.157V10.1239C40.4723 8.6657 40.6267 7.17435 42.4782 7.17435C43.927 7.17435 44.1755 8.39229 44.2355 9.56052L48.5556 9.1131C47.9984 4.25791 42.4182 4.58105 42.3925 4.61419C38.818 4.61419 35.3036 6.31268 35.3036 10.157C35.3036 10.9773 35.4749 11.6981 35.7665 12.3361H34.5064V8.22658C34.5064 5.60842 32.5006 4.64733 30.0663 4.64733C28.309 4.64733 27.0145 5.09475 25.8402 6.37896C25.7802 6.47009 25.6517 6.5861 25.566 6.67723V4.51477H19.2485V7.61348H20.697V12.2947H19.2485V15.3601H27.2631V12.2615H27.2545Z" fill="#0B0C0D"/>
<path d="M50.0751 15.4519C51.078 15.4519 51.8923 14.6648 51.8923 13.6955C51.8923 12.7261 51.078 11.939 50.0751 11.939C49.0721 11.939 48.2578 12.7261 48.2578 13.6955C48.2578 14.6648 49.0721 15.4519 50.0751 15.4519Z" fill="#0B0C0D"/>
</svg>
