<svg width="79" height="38" viewBox="0 0 79 38" fill="none" xmlns="http://www.w3.org/2000/svg">
<g clip-path="url(#clip0_268_46)">
<mask id="mask0_268_46" style="mask-type:luminance" maskUnits="userSpaceOnUse" x="0" y="0" width="79" height="37">
<path d="M78.6667 0.97229H0V36.4991H78.6667V0.97229Z" fill="white"/>
</mask>
<g mask="url(#mask0_268_46)">
<mask id="mask1_268_46" style="mask-type:luminance" maskUnits="userSpaceOnUse" x="0" y="0" width="79" height="37">
<path d="M78.6667 0.97229H0V36.4991H78.6667V0.97229Z" fill="white"/>
</mask>
<g mask="url(#mask1_268_46)">
<path d="M78.1998 36.1507L78.0535 35.7447C78.1413 35.6577 78.1705 35.6286 78.1705 35.5416C78.1705 35.3967 78.0535 35.3097 77.8781 35.3097H77.6733V36.1507H77.7904V35.7736H77.9366L78.0827 36.1507H78.1998ZM77.7611 35.6866V35.4256H77.8488C77.9658 35.4256 78.0243 35.4836 78.0243 35.5706C78.0243 35.6286 77.995 35.7156 77.8488 35.7156L77.7611 35.6866Z" fill="#0B0C0D"/>
<path d="M77.877 36.4987C77.4385 36.4987 77.0875 36.1506 77.0875 35.7156C77.0875 35.2807 77.4385 34.9326 77.877 34.9326C78.3157 34.9326 78.6667 35.2807 78.6667 35.7156C78.6667 36.1506 78.3157 36.4987 77.877 36.4987ZM77.877 35.0486C77.4969 35.0486 77.2044 35.3386 77.2044 35.7156C77.2044 36.0927 77.4969 36.3827 77.877 36.3827C78.2573 36.3827 78.5497 36.0927 78.5497 35.7156C78.5789 35.3386 78.2573 35.0486 77.877 35.0486ZM36.7598 28.4943L34.6543 34.9615L32.1393 28.5523H31.4959L34.5373 36.4407H34.8297L36.9938 29.5093L39.2163 36.4407H39.5088L42.521 28.5523H41.8191L39.3333 34.9615L37.1985 28.4943H36.7598ZM45.1237 28.5523V36.3827H48.9839V35.8897H45.7378V28.5523H45.1237ZM50.0952 28.5523V36.3827H53.9554V35.8897H50.7093V28.5523H50.0952ZM55.0374 36.3536H55.6516V28.5232H55.0374V36.3536ZM43.369 36.3536H43.9831V28.5232H43.369V36.3536ZM59.775 28.4943L56.4997 36.3536H57.0552L58.1666 33.6565H61.6173L62.7286 36.3536H63.3134L60.0675 28.4943H59.775ZM59.892 29.4803L61.4127 33.1635H58.3712L59.892 29.4803ZM70.7707 28.5523L67.7587 32.1774L64.7465 28.5523H64.1323V36.3536H64.7465V29.4513H64.7758L67.7587 33.1054L70.7415 29.4513H70.7707V36.3536H71.385V28.5523H70.7707ZM76.4441 29.8283C75.947 29.1904 75.2451 29.0453 74.6894 29.0453C73.7536 29.0453 73.0226 29.6833 73.0226 30.5243C73.0226 32.6125 76.7658 31.5974 76.7658 34.3525C76.7658 35.5416 75.7715 36.4987 74.4848 36.4987C73.8413 36.4987 73.1396 36.3247 72.4669 35.8026V35.1066C73.2272 35.8317 73.8413 35.9476 74.4556 35.9476C75.3913 35.9476 76.1225 35.2807 76.1225 34.3816C76.1225 32.1484 72.3791 33.1345 72.3791 30.5534C72.3791 29.3934 73.4028 28.4943 74.631 28.4943C75.2744 28.4943 76.0639 28.7553 76.4441 29.1904V29.8283ZM11.7561 28.5523V36.3827H15.8211V35.3675H12.8966V28.5523H11.7561ZM16.5521 28.5523V36.3827H20.6171V35.3675H17.6927V28.5523H16.5521ZM21.3189 28.5523V36.3827H25.9103V35.3675H22.4596V32.9315H25.6763V31.9164H22.4596V29.5673H25.7933V28.5523H21.3189ZM31.7006 36.3827L30.2385 32.7285C31.1157 32.0035 31.2035 31.5394 31.2035 30.7564C31.2035 29.3934 30.2092 28.5812 28.63 28.5812H26.6413V36.4116H27.7819V32.8735C27.7819 32.8735 28.7177 32.8735 29.1271 32.8735L30.5601 36.3827H31.7006ZM27.7819 31.9744V29.5093H28.5131C29.6242 29.5093 30.0629 29.9444 30.0629 30.6983C30.0629 31.3654 29.7121 31.9744 28.5131 31.9744H27.7819ZM6.46295 28.5523V36.3536H11.025V35.3386H7.57423V32.9024H10.791V31.8874H7.57423V29.5383H10.908V28.5232H6.46295V28.5523ZM4.4451 28.5523L4.03569 28.9873L1.14052 32.1194V28.5523H0V36.3536H1.14052V33.6856L2.39801 32.3224L4.03569 36.3536H5.20545L4.79603 35.3386L3.18761 31.4234L4.91302 29.5673L5.84882 28.5523H4.4451Z" fill="#0B0C0D"/>
<path d="M0 0.97229V24.6086H3.33383V19.0692L5.76109 16.6621L9.15341 24.6086H12.5164L8.04214 14.081L11.2005 10.6298L17.3125 24.6375H18.5992L23.1906 13.82L27.8404 24.6375H29.0978L36.058 8.6867H32.6364L28.4253 18.3442L24.3603 8.6867H22.0209L17.9266 18.3731L13.6863 8.6867H9.2704L3.33383 14.545V0.97229H0Z" fill="#0B0C0D"/>
</g>
</g>
</g>
<defs>
<clipPath id="clip0_268_46">
<rect width="78.6667" height="36.0556" fill="white" transform="translate(0 0.97229)"/>
</clipPath>
</defs>
</svg>
