<svg width="100" height="15" viewBox="0 0 100 15" fill="none" xmlns="http://www.w3.org/2000/svg">
<g clip-path="url(#clip0_446_425)">
<path d="M32.8415 14.0563C33.1148 14.0563 38.8525 13.8924 38.8525 7.06179C38.8525 2.30769 35.082 0.668351 31.6394 0.722996C30.7104 0.722996 29.9454 0.832285 29.235 0.88693C28.5246 0.941575 27.8689 1.05086 27.1038 1.05086V1.2148C27.3771 1.32409 27.7596 1.59731 27.7596 2.30769V12.417C27.7049 12.7995 27.4317 13.4552 26.8853 13.6192V13.7831C27.2131 13.7831 27.9781 13.7831 28.6885 13.8377C29.6175 14.0017 30.929 14.111 32.8415 14.0563ZM29.3443 1.81589H29.4536C29.4536 1.81589 30.2186 1.76125 31.1475 1.76125C32.0765 1.76125 32.8962 1.81589 33.4973 1.97983C35.4098 2.41698 37.5956 4.32955 37.3771 8.26398C37.2131 11.5427 35.6831 13.182 32.6776 13.182C32.1312 13.182 31.6394 13.1274 31.1475 13.0727L30.765 13.0181C29.3989 12.9088 29.2896 12.417 29.2896 11.7612V1.81589H29.3443Z" fill="#0B0C0D"/>
<path d="M69.3989 1.10543H66.612V1.21472C66.9399 1.21472 67.1584 1.32401 67.3224 1.54259C67.5409 1.81581 67.541 2.14368 67.541 2.14368V9.79395C67.4317 11.7612 65.7923 13.0726 63.4426 13.0726H63.3333C60.6011 13.018 59.3989 11.3787 59.3989 9.73931V1.9251C59.3989 1.76116 59.4535 1.59723 59.5628 1.48794C59.7814 1.26936 60.1093 1.21472 60.3278 1.21472V1.05078H56.8306V1.21472C57.3224 1.26936 57.8142 1.48794 57.8142 2.03439V9.79395C57.8142 11.8705 59.3989 14.0016 63.0054 14.0016C66.8852 14.0016 68.3606 11.7612 68.4699 9.63002V2.14368C68.4699 1.70652 68.4699 1.16007 69.3989 1.21472V1.10543Z" fill="#0B0C0D"/>
<path d="M9.01656 13.5098C9.1805 13.182 9.56301 12.3623 9.72695 12.0344L9.61766 11.9798C9.39908 12.3077 8.90728 13.1273 8.36083 13.1273H3.9346C3.3335 13.1273 2.78706 12.5809 2.78706 11.9251V2.08908C2.78706 1.54263 3.38815 1.2694 3.60673 1.16011V1.10547H0.21875V1.16011C0.491974 1.2694 1.03842 1.54263 1.03842 2.08908V12.7995C1.03842 13.0727 0.874488 13.5645 0.21875 13.6191V13.8377H8.47012C8.47012 13.8377 8.85263 13.8377 9.01656 13.5098Z" fill="#0B0C0D"/>
<path d="M22.0218 13.5099C22.1858 13.182 22.5683 12.3624 22.7322 12.0345L22.6229 11.9798C22.4043 12.3077 21.9125 13.1274 21.3661 13.1274H17.4317C16.8306 13.1274 16.2841 12.5809 16.2841 11.9252V7.44433H20.2186C20.7104 7.44433 20.8743 7.7722 20.9289 7.99078L21.2568 8.10007L21.8579 6.24214L21.5847 6.1875C21.53 6.24214 21.53 6.35143 21.4207 6.51537C21.2568 6.78859 20.8196 6.78859 20.8196 6.78859H16.2841V2.08914C16.2841 2.03449 16.2841 1.97985 16.2841 1.9252L16.3388 1.81591H20.5464C20.6011 1.81591 20.9836 1.9252 21.1475 2.19843C21.2568 2.36236 21.2568 2.5263 21.2568 2.69023L21.5847 2.79952L22.1858 0.668372L21.8579 0.559082C21.694 0.723016 21.2568 1.05089 20.2186 1.05089H13.7158V1.10553C13.989 1.21482 14.5355 1.48804 14.5355 2.03449V12.7995C14.5355 13.0727 14.3716 13.5645 13.7158 13.6192V13.8378H21.4754C21.4754 13.8378 21.8033 13.8378 22.0218 13.5099Z" fill="#0B0C0D"/>
<path d="M43.0059 13.8378C43.2791 13.7832 43.8802 13.7285 44.5359 13.7285C44.8091 13.7285 45.0277 13.7285 45.2463 13.7832C45.4649 13.7832 45.7381 13.8378 45.9567 13.8925C46.4485 13.9471 47.0496 14.0564 47.76 14.0564C48.0878 14.0564 48.3611 14.0564 48.6889 14.0018C50.3829 14.0018 53.0059 13.0182 53.1698 10.5045C53.2791 7.99083 50.8201 7.17116 49.7818 6.95258L49.4539 6.89793L49.7818 6.67936C50.3829 6.29684 51.4212 5.42252 51.6397 4.11105C51.749 3.40067 51.5851 2.74493 51.2026 2.25313C50.6015 1.4881 49.5086 1.05094 48.2518 0.94165C47.3228 0.94165 46.5578 0.996296 45.8474 1.05094H45.6835C44.9731 1.10559 44.2627 1.10559 43.3884 1.16023V1.26952C43.607 1.26952 44.208 1.37881 44.208 2.14384C44.208 2.96351 44.2627 10.0127 44.1534 12.3624C44.0988 13.1274 43.7162 13.6739 43.1152 13.7285L43.0059 13.8378ZM51.3665 10.5591C51.4212 12.5264 50.3829 13.2914 47.9239 13.4007C45.8474 13.346 45.6288 12.0345 45.6288 11.652V7.33509H46.3938C46.9403 7.33509 47.7053 7.33509 47.8692 7.33509C47.9239 7.33509 47.9785 7.33509 48.0878 7.33509C50.219 7.49903 51.3665 8.59192 51.3665 10.5591ZM45.7927 1.65203C45.7927 1.65203 46.3392 1.4881 47.1589 1.4881C48.1971 1.4881 50.0004 2.03455 50.1097 4.00176C50.219 5.85968 48.8529 6.62471 47.9785 6.67936C47.76 6.67936 47.4867 6.67936 47.1042 6.67936C46.4485 6.67936 45.8474 6.67936 45.8474 6.67936H45.6835V1.65203H45.7927Z" fill="#0B0C0D"/>
<path d="M76.2295 8.70125C76.4481 8.70125 78.6339 8.70125 78.7431 8.70125C78.9071 8.70125 79.0164 8.7559 79.1257 8.7559C79.836 8.91983 81.2568 10.6138 82.459 12.0892C83.1694 12.9635 84.0983 14.0564 84.3169 14.1111C84.3169 14.1111 84.3716 14.1111 84.4262 14.1111C84.9727 14.1111 86.1202 13.7286 86.5027 13.6193V13.4007C86.2295 13.4007 85.6284 13.3461 85.1366 12.9089C84.4809 12.3078 81.53 8.86519 80.9289 8.20945L80.8196 8.04552L80.9836 7.93623C82.2951 7.22584 83.0601 6.29688 83.2787 5.0947C83.4972 3.89251 83.0054 3.01819 82.5683 2.47175C81.8033 1.54278 80.5464 0.996338 79.2896 0.996338H79.2349C78.7431 0.996338 78.142 1.05098 77.541 1.05098C77.0492 1.05098 76.612 1.10563 76.2841 1.10563H75.4645C74.918 1.10563 74.4808 1.10563 73.8798 1.10563V1.32421C74.2623 1.37885 74.6448 1.65208 74.6448 2.25317V12.4717V12.5264C74.6448 13.2914 74.5901 13.5646 73.7158 13.7286V13.8379H77.0492V13.7832C76.7759 13.7286 76.5574 13.6193 76.3934 13.4554C76.1748 13.1821 76.1748 12.9089 76.1748 12.7996C76.1748 12.7996 76.1748 8.91983 76.1748 8.86519V8.70125C76.0655 8.70125 76.1748 8.70125 76.2295 8.70125ZM76.0655 1.81601H76.1748C76.2295 1.81601 77.377 1.65207 78.1967 1.65207C79.3989 1.65207 81.4754 2.36246 81.53 5.0947C81.5847 7.77229 79.6721 7.93623 78.9071 7.99087C78.6339 7.99087 78.2513 8.04552 77.5956 8.04552C76.8306 8.04552 76.1202 8.04552 76.1202 8.04552H75.9563V1.81601H76.0655Z" fill="#0B0C0D"/>
<path d="M99.727 1.10547H96.9948C96.9948 1.37869 97.0494 1.81585 96.9401 2.03443V2.08908L93.4429 6.13279L93.3336 6.0235C92.7871 5.36776 90.1642 2.25301 90.0549 1.92514C89.9456 1.70656 89.9456 1.32405 89.9456 1.10547H87.2134V1.2694C87.9238 1.32405 88.197 1.81585 88.2516 1.81585L92.5139 7.1164V12.4169C92.5139 13.182 91.9675 13.4552 91.4757 13.5098V13.8377H94.7544V13.5098C94.4811 13.4005 93.9347 13.1273 93.9347 12.6355V7.1164L98.3609 1.8705C98.4156 1.81585 99.0713 1.37869 99.7817 1.32405V1.10547H99.727Z" fill="#0B0C0D"/>
</g>
<defs>
<clipPath id="clip0_446_425">
<rect width="100" height="14.2077" fill="white" transform="translate(0 0.394043)"/>
</clipPath>
</defs>
</svg>
