<svg width="96" height="16" viewBox="0 0 96 16" fill="none" xmlns="http://www.w3.org/2000/svg">
<g clip-path="url(#clip0_268_30)">
<path d="M81.71 14.8508H80.9301C80.7741 14.8508 80.6181 14.6948 80.6181 14.5388V0.603353C80.6181 0.447358 80.6181 0.291365 80.7741 0.239367C80.9301 0.135372 81.2941 0.135372 81.5541 0.135372H82.4901C83.686 0.135372 84.6739 1.12333 84.6739 2.31928V7.62306L88.0018 4.2432C88.6778 3.61923 91.0696 1.17533 91.0696 1.17533C91.6416 0.551355 92.4737 0.135372 93.4615 0.135372H94.0335C94.4495 0.135372 94.7615 0.239367 94.9695 0.551355C95.0215 0.65535 95.1776 0.811344 95.2294 1.01934C95.2815 1.27932 95.2815 1.53931 95.2815 1.53931C95.2815 2.21528 95.0215 2.83926 94.5536 3.35923L90.9137 7.05108C89.9257 7.98704 90.7577 8.975 90.7577 8.975C91.1737 9.39098 92.0056 9.96295 92.7337 10.223L93.6176 10.5869C94.6575 11.0549 95.2815 12.0429 95.2815 13.0828V14.5908C95.2815 14.7988 95.1776 14.9548 94.9695 14.9548H94.3455C93.5136 14.9548 92.5256 14.4868 92.5256 14.4868L88.4178 12.7708C88.0018 12.5628 87.5338 12.4069 87.0139 12.3549C86.8578 12.3029 86.7019 12.3029 86.5458 12.3029H86.2339C85.7659 12.3549 85.3499 12.5628 85.0379 12.8748C84.518 13.3948 84.1019 13.8108 84.1019 13.8108C83.53 14.3828 82.698 14.8508 81.71 14.8508ZM64.3428 13.0828C64.4467 13.1348 64.5508 13.2908 64.7587 13.4468V14.4868C64.7587 14.7468 64.6028 14.9028 64.3949 14.9028H61.1709C60.651 14.9028 60.131 14.7468 59.663 14.3828L54.7751 10.5349C54.4633 10.2749 54.2552 9.75496 54.2552 9.235V7.67505C54.2552 7.41507 54.3592 7.25907 54.5152 7.25907C54.6712 7.25907 54.9312 7.36308 55.0352 7.41507C55.2952 7.46706 55.6072 7.57106 55.6072 7.57106C56.0751 7.72706 56.5951 7.83105 57.0631 7.83105C58.103 7.83105 58.883 7.41507 59.143 6.6871C59.351 6.01112 58.727 4.50318 56.4912 3.93121C54.7753 3.51523 53.2673 3.82722 52.7993 4.65918C52.7993 4.65918 52.7473 4.76318 52.6952 4.91918C52.6434 5.07516 52.6434 5.23115 52.6434 5.33516V11.3669C52.6434 12.3029 52.4873 13.1348 51.9153 13.8628C51.6033 14.2788 51.1873 14.6428 50.6674 14.7988C50.3033 14.9028 49.9395 14.9548 49.6275 14.9548C49.3674 14.9548 49.0035 14.9548 48.7954 14.8508C48.6395 14.7988 48.6395 14.6428 48.6395 14.4868V13.4988V12.7188V10.4829V0.499357C48.6395 0.343363 48.7954 0.18737 48.9515 0.18737H54.8792C55.8672 0.18737 56.8552 0.395362 57.843 0.707348C58.883 1.01934 59.767 1.48731 60.5989 2.05928C61.4309 2.63127 62.0548 3.30724 62.5749 4.0872C63.0949 4.86717 63.3548 5.69914 63.3548 6.58309C63.3548 7.51906 63.0428 8.24703 62.5229 8.87101C61.639 9.80697 60.703 10.223 60.443 10.3789C60.651 10.5869 61.2749 11.0549 62.0548 11.6789C63.5628 12.8748 64.3428 13.0828 64.3428 13.0828ZM44.8956 11.0549C45.6236 11.0549 46.1956 11.2629 46.6116 11.7829C47.0275 12.1989 47.2354 12.7188 47.2354 13.4468V14.6948C47.2354 14.8507 47.0795 15.0067 46.9236 15.0067H40.8398C39.6959 15.0067 38.6039 14.7988 37.6159 14.3308C36.576 13.8628 35.692 13.2908 34.964 12.5109C34.2361 11.7309 33.6121 10.8469 33.1961 9.85897C32.7282 8.819 32.5201 7.77905 32.5201 6.6351V0.551355C32.5201 0.395362 32.6762 0.239367 32.8321 0.239367H38.9159C40.0078 0.239367 41.0998 0.447358 42.0878 0.915339C43.0757 1.33132 43.9596 1.9553 44.7397 2.68327C45.5196 3.41124 46.0915 4.2432 46.5596 5.12717C47.0275 6.01112 47.2354 6.84309 47.2354 7.67505C47.2354 8.19503 47.1315 8.55902 46.8716 8.92301C46.6116 9.28699 46.0915 9.49498 45.3636 9.49498H41.2037C39.4358 9.49498 38.5518 8.19503 38.3959 7.83105C38.1878 7.46706 38.136 7.15509 38.136 6.6871C38.136 6.42711 38.2919 6.32311 38.5518 6.32311H43.0236C42.5037 5.69914 41.8277 5.07516 41.1518 4.65918C40.6838 4.3992 40.2159 4.19121 39.7478 4.0872C39.4878 4.03521 39.2279 3.98322 38.9159 3.98322C38.6039 3.98322 38.3439 4.03521 38.0839 4.0872C37.9279 4.0872 37.6679 4.19121 37.4599 4.29519C37.252 4.39919 37.0439 4.55519 36.9919 4.60718C36.524 5.02316 36.316 5.59514 36.316 6.3751C36.316 6.99909 36.4199 7.57106 36.628 8.14304C36.888 8.71502 37.148 9.235 37.564 9.65098C37.7719 9.85897 38.4479 10.4829 38.9159 10.6909C39.4878 10.8989 40.0078 11.0549 40.6317 11.0549H44.8956ZM31.1162 2.31928C31.1162 2.42327 31.1162 14.4348 31.1162 14.4348C31.1162 14.6428 30.9601 14.8508 30.7002 14.8508H30.2323H29.2963C28.1003 14.8508 27.1123 13.8628 27.1123 12.6669V10.067C27.1123 8.975 26.1764 8.03904 25.0845 8.03904C23.0046 8.03904 21.5487 9.80697 20.1966 11.0029C18.5328 12.4589 17.2848 13.8628 15.7249 13.8628C14.1649 13.8628 12.917 12.4589 11.253 11.0029C9.9011 9.80697 8.44515 8.03904 6.36524 8.03904C5.27328 8.03904 4.33732 8.975 4.33732 10.1189V14.4348C4.33732 14.6428 4.18133 14.8508 3.92134 14.8508H3.34937H2.51741C1.32145 14.8508 0.333496 13.8628 0.333496 12.6669V0.551355C0.333496 0.343363 0.541487 0.135372 0.749478 0.083374H3.50536C4.49332 0.083374 5.42928 0.499357 6.05325 1.12333C6.10526 1.17533 9.48512 4.3472 9.48512 4.3472C11.097 5.95913 13.281 6.84309 15.7249 6.84309C18.0647 6.84309 20.1966 6.01112 21.7566 4.55519L26.3324 0.239367C26.4363 0.18737 26.5404 0.135372 26.6444 0.135372H28.9323C30.1282 0.135372 31.1162 1.12333 31.1162 2.31928ZM79.0062 8.71502C79.2141 8.71502 79.3181 8.819 79.1622 9.13099C79.1102 9.96295 78.9023 10.7949 78.5903 11.5229C78.2783 12.3029 77.8622 12.9268 77.2903 13.4468C76.7703 13.9668 76.0943 14.3828 75.3663 14.6948C74.5864 15.0067 73.8063 15.1627 72.9224 15.1627C71.8305 15.1627 70.7905 14.9028 69.7506 14.4348C68.7626 13.9668 67.8266 13.3428 67.0467 12.5628C66.2667 11.7309 65.6427 10.8469 65.1748 9.80697C64.7068 8.76701 64.4988 7.67505 64.4988 6.5311V0.551355C64.4988 0.291365 64.6548 0.135372 64.8628 0.135372H70.8425C71.9345 0.135372 72.9224 0.343363 73.9104 0.759346C74.8984 1.17533 75.7823 1.7993 76.6143 2.52727C76.7183 2.63127 76.7703 2.73526 76.8222 2.78726C76.8222 2.89126 76.8222 2.94325 76.7183 3.04725L75.2104 4.55519C74.8464 4.91918 74.4823 5.12717 74.1183 5.12717C73.7545 5.12717 73.4425 4.97117 73.1305 4.76318C72.4025 4.19121 71.6744 3.93121 70.8945 3.93121C70.2185 3.93121 69.6465 4.13921 69.2307 4.60718C68.7626 5.07517 68.5546 5.64715 68.5546 6.3751C68.5546 6.94708 68.7106 7.51906 68.9705 8.09103C69.2307 8.66301 69.5945 9.18299 70.0106 9.65098C70.4266 10.1189 70.9465 10.4829 71.4665 10.7949C71.9864 11.1069 72.5065 11.2629 73.0264 11.2629C73.5984 11.2629 74.0144 11.1069 74.3783 10.8469C74.7423 10.5869 75.0023 10.223 75.1584 9.75496C75.4183 9.079 75.9383 8.71502 76.7703 8.71502H79.0062Z" fill="#0B0C0D"/>
</g>
<defs>
<clipPath id="clip0_268_30">
<rect width="95" height="15.8333" fill="white" transform="translate(0.333496 0.083374)"/>
</clipPath>
</defs>
</svg>
