<svg width="120" height="22" viewBox="0 0 120 22" fill="none" xmlns="http://www.w3.org/2000/svg">
<g clip-path="url(#clip0_3798_12154)">
<path d="M48.52 0.46998C48.06 0.608659 47.36 1.04451 46.8 1.59923C45.28 3.04545 45.2 3.52092 45.2 10.7322C45.2 17.4879 45.32 18.3002 46.44 19.5681C48.28 21.6285 52.24 21.787 54.18 19.8653C55.52 18.5379 55.6 18.0426 55.6 10.7322C55.6 3.44168 55.52 2.92659 54.2 1.61904C52.94 0.370925 50.66 -0.0847371 48.52 0.46998ZM51.72 3.61998C52.08 4.01621 52.1 4.43225 52.1 10.7719V17.5077L51.62 17.8841C51.12 18.2804 50 18.3794 49.4 18.0624C48.7 17.686 48.6 16.7945 48.6 10.7124C48.6 4.76904 48.68 3.95677 49.34 3.44168C49.9 3.04545 51.28 3.14451 51.72 3.61998Z" fill="#0B0C0D"/>
<path d="M0 10.732V21.0339H1.4H2.8L2.82 14.4367C2.82 10.8311 2.88 7.99805 2.96 8.15654C3.02 8.31503 3.62 11.2669 4.28 14.6943L5.5 20.9348L6.18 20.9943C6.54 21.0339 6.92 20.9943 7.02 20.8952C7.1 20.816 7.68 17.8443 8.3 14.2981C8.92 10.7518 9.48 7.81975 9.52 7.78013C9.56 7.7405 9.6 10.6924 9.6 14.3773V21.0537L11.14 20.9943L12.7 20.9348L12.76 10.6726L12.8 0.410314L10.56 0.469748L8.32 0.529182L7.36 6.05654C6.84 9.08767 6.38 11.6631 6.34 11.782C6.32 11.8811 5.78 9.38484 5.18 6.25465L4.06 0.529182L2.04 0.469748L0 0.410314V10.732Z" fill="#0B0C0D"/>
<path d="M14.2 10.7323V21.0342L18.36 20.9946L22.5 20.9351L22.56 19.6078L22.62 18.2606H20.2H17.8V15.0908V11.921H19.5H21.2V10.5342V9.14739H19.5H17.8V6.17569V3.20399H20.2H22.6V1.8172V0.430404H18.4H14.2V10.7323Z" fill="#0B0C0D"/>
<path d="M23.6 1.81692V3.20371H25H26.4V12.1188V21.0537L28.16 20.9943L29.9 20.9348L29.94 12.1188L30 3.30277L31.4 3.24333L32.8 3.1839V1.81692V0.430124H28.2H23.6V1.81692Z" fill="#0B0C0D"/>
<path d="M34 10.7323V21.0342H35.7H37.4L37.44 16.438L37.5 11.8417L39.08 16.438L40.64 21.0342H42.42C43.4 21.0342 44.2 20.9549 44.2 20.8757C44.2 20.7766 44.02 20.2219 43.82 19.6276C43.6 19.0332 42.9 17.0125 42.22 15.1304L41 11.703L41.56 11.5049C42.26 11.2474 42.96 10.5936 43.36 9.84078C43.78 9.04833 43.94 5.28418 43.6 3.69927C43.4 2.74833 43.2 2.3521 42.52 1.69833C41.46 0.648328 40.48 0.430404 36.8 0.430404H34V10.7323ZM39.8 3.69927C40.16 4.01625 40.2 4.31342 40.2 6.3738C40.2 9.22663 40.04 9.54361 38.44 9.7021L37.4 9.80116V6.47286V3.14456L38.4 3.24361C38.96 3.30305 39.58 3.50116 39.8 3.69927Z" fill="#0B0C0D"/>
<path d="M62.2 10.7327V21.0742L65.76 20.995C69.1 20.9355 69.36 20.9157 70.3 20.4204C71.82 19.6478 72.24 18.7365 72.36 16.0223C72.48 13.1695 72.2 11.9412 71.28 11.1487C70.9 10.812 70.46 10.5346 70.3 10.5346C69.84 10.5346 69.96 10.2572 70.56 9.92044C71.54 9.36573 71.8 8.49403 71.78 5.83931C71.76 3.3629 71.58 2.57044 70.84 1.71856C69.98 0.747801 69.2 0.549688 65.56 0.470443L62.2 0.391198V10.7327ZM67.56 3.42233C68.4 3.7195 68.68 4.5912 68.56 6.71101C68.46 8.73176 68.26 8.9695 66.72 9.10818L65.6 9.18743V6.33459C65.6 4.74969 65.66 3.40252 65.74 3.34308C65.94 3.14497 66.86 3.18459 67.56 3.42233ZM68.28 12.1393C68.8 12.5355 68.8 12.595 68.8 14.9723C68.8 17.9044 68.68 18.1025 66.86 18.1421L65.7 18.162L65.64 14.9327L65.6 11.7233H66.66C67.46 11.7233 67.88 11.8421 68.28 12.1393Z" fill="#0B0C0D"/>
<path d="M73.6 10.7122V21.0537L75.36 20.9943L77.1 20.9348V16.4377C77.1 13.9811 77.14 11.9999 77.2 12.0594C77.26 12.099 77.98 14.1197 78.82 16.5367L80.36 20.9348L82.2 20.9943C83.64 21.0339 84.02 20.9943 83.96 20.7962C83.24 18.8943 80.8 11.9207 80.8 11.782C80.82 11.7028 81.2 11.4452 81.66 11.2273C82.28 10.9301 82.62 10.5933 82.96 9.93956C83.36 9.14711 83.4 8.77069 83.4 6.37352C83.38 2.74805 83.04 1.87635 81.3 0.96503C80.6 0.588614 80.08 0.52918 77.06 0.469746L73.6 0.390501V10.7122ZM78.98 3.42163C79.36 3.56031 79.7 3.85748 79.82 4.13484C80.08 4.80843 80.04 8.23579 79.78 8.83012C79.52 9.36503 78.7 9.74145 77.78 9.74145H77.2V6.47258V3.20371H77.78C78.08 3.20371 78.64 3.30277 78.98 3.42163Z" fill="#0B0C0D"/>
<path d="M88.2 0.588894C88.2 0.66814 87.34 5.24456 86.3 10.7323C85.26 16.2398 84.4 20.7964 84.4 20.8757C84.4 20.9747 85.12 21.0342 86 21.0342C87.48 21.0342 87.6 21.0144 87.7 20.5785C87.8 20.0832 88.2 17.6464 88.2 17.4087C88.2 17.3295 89.04 17.27 90.08 17.27H91.96L92.1 18.2012C92.18 18.7361 92.32 19.5681 92.44 20.103L92.64 21.0342H94.32C95.84 21.0342 96 20.9946 96 20.6578C96 20.321 92.54 1.95588 92.26 0.866253C92.16 0.450215 92.06 0.430404 90.18 0.430404C89.1 0.430404 88.2 0.489838 88.2 0.588894ZM90.8 10.3361C91.12 12.337 91.4 14.1002 91.4 14.2389C91.4 14.4172 91.04 14.4964 90.1 14.4964C89 14.4964 88.8 14.437 88.8 14.1398C88.8 13.9615 89.08 12.238 89.4 10.3361C89.72 8.43418 90 6.78984 90 6.69078C90 5.97757 90.28 7.20588 90.8 10.3361Z" fill="#0B0C0D"/>
<path d="M97.4 1.8172V3.20399H99.8C101.22 3.20399 102.2 3.28323 102.2 3.4021C102.2 3.50116 100.98 6.92852 99.5 11.0097C96.94 17.9832 96.78 18.4983 96.84 19.687L96.9 20.9351L101.36 20.9946L105.8 21.0342V19.6474V18.2606H103.2C101.72 18.2606 100.6 18.1813 100.6 18.0823C100.6 17.9634 101.82 14.5955 103.3 10.554C105.8 3.73889 106 3.10493 106 1.8172V0.430404H101.7H97.4V1.8172Z" fill="#0B0C0D"/>
<path d="M107.4 10.7323V21.0342H109.1H110.8V10.7323V0.430404H109.1H107.4V10.7323Z" fill="#0B0C0D"/>
<path d="M112.4 10.7323V21.0342H116.2H120V19.6474V18.2804L117.96 18.221L115.9 18.1615L115.84 9.28607L115.8 0.430404H114.1H112.4V10.7323Z" fill="#0B0C0D"/>
</g>
<defs>
<clipPath id="clip0_3798_12154">
<rect width="120" height="21" fill="white" transform="translate(0 0.232422)"/>
</clipPath>
</defs>
</svg>
