<svg width="107" height="27" viewBox="0 0 107 27" fill="none" xmlns="http://www.w3.org/2000/svg">
<g clip-path="url(#clip0_271_3218)">
<mask id="mask0_271_3218" style="mask-type:luminance" maskUnits="userSpaceOnUse" x="0" y="0" width="107" height="27">
<path d="M106.667 0.499268H0V26.0392H106.667V0.499268Z" fill="white"/>
</mask>
<g mask="url(#mask0_271_3218)">
<mask id="mask1_271_3218" style="mask-type:luminance" maskUnits="userSpaceOnUse" x="0" y="0" width="107" height="27">
<path d="M106.667 0.499268H0V26.0392H106.667V0.499268Z" fill="white"/>
</mask>
<g mask="url(#mask1_271_3218)">
<path d="M44.2144 6.46592V20.071H41.8524V9.39482H41.8208L37.6007 20.071H36.026L31.7114 9.39482H31.68V20.071H29.5068V6.46592H32.9082L36.8134 16.5438H36.8763L41.002 6.46592H44.2144ZM46.167 7.50521C46.167 7.12728 46.2929 6.81235 46.5764 6.5604C46.8597 6.30846 47.1747 6.18249 47.5526 6.18249C47.962 6.18249 48.3084 6.30846 48.5604 6.5604C48.8123 6.81235 48.9699 7.12728 48.9699 7.50521C48.9699 7.88313 48.8439 8.19807 48.5604 8.45001C48.277 8.70195 47.962 8.82792 47.5526 8.82792C47.1432 8.82792 46.8283 8.70195 46.5764 8.45001C46.3244 8.16658 46.167 7.85164 46.167 7.50521ZM48.718 10.3081V20.071H46.4189V10.3081H48.718ZM55.6779 18.4019C56.0243 18.4019 56.4023 18.339 56.8117 18.15C57.2211 17.9925 57.5991 17.772 57.9455 17.5201V19.6617C57.5675 19.8822 57.1581 20.0396 56.6858 20.1341C56.2133 20.2285 55.7094 20.2916 55.1426 20.2916C53.6939 20.2916 52.5287 19.8506 51.6468 18.9374C50.7335 18.0241 50.2926 16.8587 50.2926 15.473C50.2926 13.8984 50.7649 12.6071 51.6783 11.5993C52.5916 10.5916 53.8829 10.0877 55.5835 10.0877C56.0243 10.0877 56.4653 10.1507 56.8746 10.2451C57.3156 10.3396 57.662 10.4971 57.914 10.6231V12.8276C57.5675 12.5757 57.1897 12.3552 56.8432 12.2292C56.4653 12.1033 56.0874 12.0088 55.7094 12.0088C54.7961 12.0088 54.0717 12.2922 53.5049 12.8906C52.938 13.489 52.6861 14.2763 52.6861 15.2841C52.6861 16.2603 52.9694 17.0477 53.5049 17.5832C54.0403 18.1184 54.7646 18.4019 55.6779 18.4019ZM64.4647 10.1507C64.6537 10.1507 64.8111 10.1507 64.9685 10.1822C65.126 10.2136 65.2519 10.2451 65.3464 10.2766V12.6071C65.2205 12.5127 65.063 12.4182 64.8111 12.3552C64.5592 12.2922 64.3072 12.2292 63.9608 12.2292C63.3938 12.2292 62.9214 12.4812 62.5435 12.9536C62.1656 13.426 61.9451 14.1503 61.9451 15.1581V20.071H59.6462V10.3081H61.9451V11.8513H61.9766C62.197 11.3159 62.5121 10.9065 62.9214 10.5916C63.3624 10.3081 63.8663 10.1507 64.4647 10.1507ZM65.4724 15.3471C65.4724 13.7409 65.9448 12.4497 66.8266 11.5049C67.7399 10.5601 68.9996 10.0877 70.6058 10.0877C72.1175 10.0877 73.3142 10.5286 74.1646 11.4419C75.0149 12.3552 75.4558 13.5834 75.4558 15.1266C75.4558 16.7013 74.9835 17.961 74.1016 18.9058C73.1883 19.8506 71.96 20.323 70.3854 20.323C68.8737 20.323 67.677 19.8822 66.7951 19.0003C65.9134 18.087 65.4724 16.8587 65.4724 15.3471ZM67.866 15.2526C67.866 16.2603 68.0864 17.0477 68.5587 17.5832C69.0312 18.1184 69.6925 18.4019 70.5429 18.4019C71.3616 18.4019 72.0231 18.15 72.4639 17.5832C72.9048 17.0477 73.1254 16.2603 73.1254 15.1896C73.1254 14.1503 72.9048 13.363 72.4639 12.7961C72.0231 12.2607 71.3616 11.9773 70.5744 11.9773C69.7241 11.9773 69.0941 12.2607 68.6218 12.8276C68.0864 13.426 67.866 14.2133 67.866 15.2526ZM78.8887 12.8906C78.8887 13.2055 78.983 13.489 79.2036 13.6779C79.424 13.8669 79.8649 14.0873 80.5892 14.3708C81.5026 14.7487 82.164 15.1581 82.5104 15.599C82.8882 16.0715 83.0772 16.6068 83.0772 17.2681C83.0772 18.1815 82.7308 18.9058 82.0065 19.4727C81.3136 20.0396 80.3373 20.2916 79.1406 20.2916C78.7311 20.2916 78.2903 20.2285 77.7864 20.1341C77.2824 20.0396 76.873 19.9136 76.5266 19.7561V17.4887C76.9361 17.772 77.4084 18.0241 77.8808 18.1815C78.3533 18.339 78.7942 18.4335 79.2036 18.4335C79.7075 18.4335 80.1169 18.3704 80.3373 18.2129C80.5892 18.0555 80.7152 17.8351 80.7152 17.4887C80.7152 17.1738 80.5892 16.9218 80.3373 16.6697C80.0853 16.4493 79.5814 16.1974 78.8887 15.9139C78.0384 15.5676 77.44 15.1581 77.0935 14.7172C76.7471 14.2763 76.5581 13.7094 76.5581 13.0166C76.5581 12.1347 76.9045 11.4104 77.5974 10.8435C78.2903 10.2766 79.2036 9.99319 80.3059 9.99319C80.6523 9.99319 81.0301 10.0247 81.4395 10.1192C81.8491 10.2136 82.2269 10.3081 82.5104 10.4026V12.6386C82.1954 12.4497 81.8491 12.2607 81.4395 12.1033C81.0301 11.9458 80.6208 11.8828 80.2429 11.8828C79.802 11.8828 79.4555 11.9773 79.235 12.1347C79.0146 12.3552 78.8887 12.5756 78.8887 12.8906ZM84.0536 15.3471C84.0536 13.7409 84.5259 12.4497 85.4078 11.5049C86.3211 10.5601 87.5808 10.0877 89.187 10.0877C90.6986 10.0877 91.8954 10.5286 92.7457 11.4419C93.5961 12.3552 94.037 13.5834 94.037 15.1266C94.037 16.7013 93.5645 17.961 92.6828 18.9058C91.7694 19.8506 90.5412 20.323 88.9666 20.323C87.4548 20.323 86.2582 19.8822 85.3763 19.0003C84.526 18.087 84.0536 16.8587 84.0536 15.3471ZM86.447 15.2526C86.447 16.2603 86.6675 17.0477 87.1399 17.5832C87.6124 18.1184 88.2737 18.4019 89.124 18.4019C89.9428 18.4019 90.6042 18.15 91.0451 17.5832C91.486 17.0477 91.7064 16.2603 91.7064 15.1896C91.7064 14.1503 91.486 13.363 91.0451 12.7961C90.6042 12.2607 89.9428 11.9773 89.1554 11.9773C88.3051 11.9773 87.6753 12.2607 87.2028 12.8276C86.6989 13.426 86.447 14.2133 86.447 15.2526ZM101.69 12.1977H98.2571V20.071H95.9265V12.1977H94.2889V10.3081H95.9265V8.95391C95.9265 7.94611 96.273 7.09579 96.9344 6.43443C97.5958 5.77307 98.4461 5.45813 99.4853 5.45813C99.7688 5.45813 100.021 5.48962 100.241 5.48962C100.462 5.48962 100.651 5.55261 100.808 5.61561V7.59968C100.745 7.56819 100.588 7.50521 100.399 7.44222C100.21 7.37923 99.9893 7.34774 99.7374 7.34774C99.2649 7.34774 98.887 7.50521 98.6351 7.78865C98.3831 8.07209 98.2571 8.54449 98.2571 9.11137V10.2766H101.69V8.07209L103.989 7.37923V10.2766H106.319V12.1662H103.989V16.7328C103.989 17.3312 104.115 17.7406 104.304 17.9925C104.524 18.2445 104.871 18.3704 105.343 18.3704C105.469 18.3704 105.627 18.339 105.816 18.276C106.005 18.2129 106.162 18.15 106.288 18.0555V19.9451C106.13 20.0396 105.91 20.1026 105.564 20.1655C105.217 20.2285 104.902 20.26 104.556 20.26C103.579 20.26 102.855 20.0081 102.383 19.5042C101.91 19.0003 101.658 18.2129 101.658 17.1738L101.69 12.1977Z" fill="#0B0C0D"/>
<path d="M10.7708 1.93115H0V12.7019H10.7708V1.93115Z" fill="#0B0C0D"/>
<path d="M22.6722 1.93115H11.9014V12.7019H22.6722V1.93115Z" fill="#0B0C0D"/>
<path d="M10.7708 13.8354H0V24.6062H10.7708V13.8354Z" fill="#0B0C0D"/>
<path d="M22.6722 13.8354H11.9014V24.6062H22.6722V13.8354Z" fill="#0B0C0D"/>
</g>
</g>
</g>
<defs>
<clipPath id="clip0_271_3218">
<rect width="106.667" height="25.5399" fill="white" transform="translate(0 0.499268)"/>
</clipPath>
</defs>
</svg>
