<svg width="105" height="22" viewBox="0 0 105 22" fill="none" xmlns="http://www.w3.org/2000/svg">
<g clip-path="url(#clip0_268_116)">
<path d="M1.42739 21.1463C1.28329 21.1463 1.14061 21.1176 1.00747 21.0617C0.87434 21.0058 0.753374 20.9239 0.651479 20.8206C0.549583 20.7173 0.468753 20.5947 0.413608 20.4598C0.358462 20.3249 0.330078 20.1803 0.330078 20.0342V1.96259C0.330833 1.7432 0.395597 1.52894 0.516223 1.34677C0.636849 1.1646 0.807944 1.02265 1.00798 0.938801C1.20802 0.854949 1.42806 0.832939 1.64042 0.87553C1.85277 0.918121 2.04796 1.02341 2.2014 1.17816L8.73307 7.7978C8.84402 7.89864 8.93353 8.02132 8.99617 8.15837C9.0588 8.29542 9.09324 8.44396 9.09737 8.59494C9.10149 8.74591 9.07524 8.89617 9.02019 9.03652C8.96515 9.17688 8.88247 9.30439 8.7772 9.4113C8.67193 9.51821 8.54628 9.60227 8.40791 9.65836C8.26954 9.71444 8.12134 9.74136 7.97236 9.7375C7.82338 9.73363 7.67675 9.69905 7.54139 9.63586C7.40603 9.57267 7.28479 9.4822 7.18506 9.36997L2.52472 4.65017V20.0408C2.52429 20.1865 2.49557 20.3305 2.44019 20.4649C2.38481 20.5993 2.30387 20.7213 2.20197 20.8239C2.10008 20.9266 1.97923 21.0079 1.84633 21.0632C1.71342 21.1185 1.57107 21.1468 1.42739 21.1463Z" fill="#00D563"/>
<path d="M19.2625 21.1463C19.1183 21.1455 18.9757 21.1159 18.8429 21.0591C18.7101 21.0023 18.5896 20.9194 18.4885 20.8153L11.9568 14.1956C11.7516 13.9876 11.6362 13.7054 11.6362 13.4112C11.6362 13.117 11.7516 12.8348 11.9568 12.6268C12.1621 12.4187 12.4405 12.3019 12.7308 12.3019C13.0211 12.3019 13.2996 12.4187 13.5048 12.6268L18.1652 17.3466V1.95591C18.1652 1.6614 18.2806 1.37895 18.4861 1.1707C18.6916 0.962455 18.9703 0.845459 19.2609 0.845459C19.5515 0.845459 19.8302 0.962455 20.0356 1.1707C20.2411 1.37895 20.3566 1.6614 20.3566 1.95591V20.0275C20.3574 20.1739 20.3298 20.3189 20.2752 20.4544C20.2207 20.5899 20.1403 20.7131 20.0386 20.817C19.937 20.921 19.8161 21.0035 19.6829 21.06C19.5498 21.1165 19.4069 21.1458 19.2625 21.1463Z" fill="#00D563"/>
<path d="M39.677 9.70754V16.0856H37.4823V10.4357C37.4823 8.73114 36.6136 7.78784 35.1505 7.78784C33.7397 7.78784 32.5574 8.73114 32.5574 10.4688V16.0955H30.3628V5.99392C30.3634 5.91062 30.3883 5.82936 30.4343 5.7603C30.4803 5.69125 30.5453 5.63746 30.6213 5.60567C30.6973 5.57388 30.7808 5.5655 30.8615 5.58157C30.9421 5.59764 31.0163 5.63745 31.0747 5.69603L32.5346 7.17552C32.8813 6.68383 33.3445 6.28848 33.8815 6.02588C34.4186 5.76328 35.0122 5.64188 35.6077 5.67287C37.9885 5.67287 39.677 7.3344 39.677 9.70754Z" fill="#0B0C0D"/>
<path d="M51.5775 10.9984C51.5775 11.283 51.5579 11.571 51.5351 11.8258H44.1379C44.4319 13.6462 45.6958 14.4108 47.1164 14.4108C48.1708 14.3874 49.188 14.0115 50.0099 13.3417L51.0974 14.9205C49.9482 15.9 48.4797 16.4098 46.9792 16.3503C43.9812 16.3503 41.8584 14.2321 41.8584 11.0116C41.8584 7.79114 43.8963 5.67285 46.8421 5.67285C49.6441 5.67285 51.5677 7.83085 51.5775 10.9984ZM44.1477 10.1279H49.3404C49.0988 8.54908 48.1908 7.62896 46.7996 7.62896C45.2451 7.6422 44.3763 8.65831 44.1477 10.1279Z" fill="#0B0C0D"/>
<path d="M60.5847 7.94998H56.7473V12.3653C56.7473 13.7322 57.4593 14.2618 58.3345 14.2618C59.0563 14.221 59.7536 13.9831 60.3528 13.5734L61.2215 15.3408C60.3207 15.9809 59.2486 16.3273 58.1484 16.3338C55.8819 16.3338 54.556 15.0959 54.556 12.3951V7.94998H52.5605V5.9376H54.556V2.86609H56.7506V5.9376H60.5847V7.94998Z" fill="#0B0C0D"/>
<path d="M70.0818 7.14906V5.93105H72.2797V15.3673C72.2797 18.5547 70.2516 20.5141 66.9074 20.5141C65.4149 20.5141 63.7722 20.1004 62.7173 19.3391L63.5109 17.4658C64.5288 18.1169 65.7038 18.4719 66.9074 18.4918C68.955 18.4918 70.085 17.3466 70.085 15.4633V14.6491C69.3339 15.6222 68.2039 16.1319 66.7506 16.1319C64.4645 16.1319 62.1099 14.1824 62.1099 10.8991C62.1099 7.61574 64.4613 5.66626 66.7506 5.66626C68.2006 5.67288 69.3404 6.18922 70.0818 7.14906ZM64.3535 10.8991C64.3535 12.6036 65.4606 14.0434 67.3091 14.0434C69.0759 14.0434 70.2646 12.6765 70.2646 10.8991C70.2646 9.12171 69.0726 7.75476 67.3091 7.75476C65.4606 7.75807 64.3535 9.18791 64.3535 10.9024V10.8991Z" fill="#0B0C0D"/>
<path d="M94.1084 5.95751L93.5859 8.14861C93.0655 7.90239 92.4978 7.7758 91.9236 7.77791C90.5323 7.77791 89.5428 8.77085 89.5428 10.4986V16.0856H87.3579V5.93765H89.5199V7.08284C90.1731 6.11968 91.2018 5.67287 92.4232 5.67287C92.998 5.65445 93.5706 5.75118 94.1084 5.95751Z" fill="#0B0C0D"/>
<path d="M75.144 12.3124V5.93437H77.3387V11.5809C77.3387 13.2855 78.2074 14.2288 79.6705 14.2288C81.0813 14.2288 82.2636 13.2855 82.2636 11.5478V5.92114H84.4582V16.0095C84.4575 16.0928 84.4327 16.174 84.3867 16.2431C84.3407 16.3121 84.2757 16.3659 84.1997 16.3977C84.1237 16.4295 84.0402 16.4379 83.9595 16.4218C83.8789 16.4058 83.8047 16.3659 83.7462 16.3074L82.2864 14.8279C81.9397 15.3196 81.4765 15.7149 80.9395 15.9775C80.4024 16.2401 79.8088 16.3615 79.2133 16.3305C76.8292 16.3471 75.144 14.6856 75.144 12.3124Z" fill="#0B0C0D"/>
<path d="M95.6895 12.3124V5.93437H97.8841V11.5809C97.8841 13.2855 98.7528 14.2288 100.216 14.2288C101.627 14.2288 102.806 13.2855 102.806 11.5478V5.92114H105V16.0095C105 16.0928 104.975 16.174 104.929 16.2431C104.883 16.3121 104.818 16.3659 104.742 16.3977C104.666 16.4295 104.582 16.4379 104.502 16.4218C104.421 16.4058 104.347 16.3659 104.288 16.3074L102.829 14.8279C102.482 15.3196 102.019 15.7149 101.482 15.9775C100.945 16.2401 100.351 16.3615 99.7554 16.3305C97.3714 16.3471 95.6895 14.6856 95.6895 12.3124Z" fill="#0B0C0D"/>
</g>
<defs>
<clipPath id="clip0_268_116">
<rect width="104.667" height="20.2925" fill="white" transform="translate(0.333496 0.85376)"/>
</clipPath>
</defs>
</svg>
