<svg width="60" height="35" viewBox="0 0 60 35" fill="none" xmlns="http://www.w3.org/2000/svg">
<g clip-path="url(#clip0_268_42)">
<path fill-rule="evenodd" clip-rule="evenodd" d="M39.032 33.8371H31.1001V0.286743H39.032V33.8371ZM28.2673 17.1024C28.2673 24.7396 22.0869 30.9197 14.4726 30.9197C6.8581 30.9197 0.66748 24.7293 0.66748 17.1024C0.66748 9.47557 6.84776 3.2852 14.4622 3.2852C22.0767 3.2852 28.2673 9.46521 28.2673 17.1024ZM18.6356 17.1024C18.6356 14.794 16.7728 12.9289 14.4674 12.9289C12.162 12.9289 10.2991 14.794 10.2991 17.1024C10.2991 19.4108 12.162 21.2759 14.4674 21.2759C16.7728 21.2759 18.6356 19.4108 18.6356 17.1024ZM59.1649 8.71482H53.8931L50.7981 11.8118L47.7031 8.71482H42.4314V14.0829L45.4851 17.1385L42.4314 20.1942V25.49H47.7857L50.8084 22.4653L53.8313 25.49H59.1855V20.1942L56.1319 17.1385L59.1855 14.0829V8.71482H59.1649Z" fill="#0B0C0D"/>
</g>
<defs>
<clipPath id="clip0_268_42">
<rect width="60" height="34" fill="white" transform="translate(0 0.269165)"/>
</clipPath>
</defs>
</svg>
