<svg width="120" height="21" viewBox="0 0 120 21" fill="none" xmlns="http://www.w3.org/2000/svg">
<g clip-path="url(#clip0_3798_11804)">
<path d="M49.4553 8.99108C49.8003 8.05156 49.6811 7.06714 49.1296 6.29108C48.5878 5.52936 47.7155 5.09163 46.7386 5.09163L39.5054 5.08398C38.7921 5.08398 38.0623 5.32866 37.4537 5.77117C36.8751 6.19169 36.4273 6.77564 36.1928 7.41599L34.4705 12.0819L34.3929 12.2922C34.0479 13.2317 34.1671 14.2161 34.7186 14.9922C35.2604 15.7538 36.1327 16.1916 37.1096 16.1916H44.3457C45.0599 16.1916 45.7888 15.9469 46.3974 15.5044C46.976 15.0839 47.4238 14.4999 47.6583 13.8596L49.4562 8.99008L49.4553 8.99108ZM47.1302 8.16147L45.3323 13.0309C45.1879 13.4228 44.7352 13.7544 44.3437 13.7544H37.1086C36.9458 13.7544 36.8159 13.6971 36.7413 13.5929C36.658 13.4763 36.6493 13.3053 36.7161 13.1227L38.5159 8.24653C38.6604 7.85468 39.113 7.52303 39.5045 7.52303L46.7376 7.53068C46.9005 7.53068 47.0304 7.58803 47.105 7.6922C47.1883 7.8088 47.197 7.97988 47.1302 8.16242" fill="#0B0C0D"/>
<path d="M14.9054 13.3187C15.2504 12.3792 15.1312 11.3948 14.5797 10.6187C14.0379 9.85692 13.1656 9.41925 12.1886 9.41925H5.75608C5.59325 9.41925 5.46338 9.36183 5.38875 9.25767C5.30539 9.14108 5.29667 8.97002 5.36355 8.78748L5.56224 8.24557C5.70665 7.85372 6.15926 7.52208 6.55082 7.52208H17.0434L17.9437 5.08398H6.55179C5.83748 5.08398 5.10865 5.3277 4.49999 5.77117C3.92138 6.19169 3.47361 6.77564 3.23906 7.41599L3.04038 7.95789C2.69534 8.89738 2.81456 9.88183 3.367 10.6578C3.90878 11.4196 4.78106 11.8573 5.75801 11.8573H12.1877C12.3505 11.8573 12.4804 11.9147 12.555 12.0188C12.6374 12.1354 12.6471 12.3065 12.5802 12.4891L12.3815 13.0309C12.2371 13.4228 11.7845 13.7544 11.3929 13.7544H0.900389L0 16.1916H11.392C12.1063 16.1916 12.8351 15.9478 13.4447 15.5044C14.0234 15.0839 14.4712 14.4999 14.7057 13.8596L14.9043 13.3177L14.9054 13.3187Z" fill="#0B0C0D"/>
<path d="M30.2642 5.08398H23.0291C22.3148 5.08398 21.586 5.32866 20.9763 5.77117C20.3977 6.19169 19.95 6.77564 19.7154 7.41599L14.8762 20.5268H17.5076L19.1077 16.1916H27.8674C28.5816 16.1916 29.3105 15.9478 29.9191 15.5044C30.4977 15.0839 30.9455 14.4999 31.18 13.8596L32.9809 8.98342C33.3259 8.04391 33.2067 7.0595 32.6552 6.28344C32.1134 5.52076 31.2411 5.08398 30.2642 5.08398ZM30.6567 8.15382L28.8559 13.03C28.7115 13.4218 28.2589 13.7535 27.8674 13.7535H20.0081L22.0405 8.24557C22.185 7.85372 22.6376 7.52208 23.0291 7.52208H30.2642C30.427 7.52208 30.5569 7.57942 30.6315 7.6836C30.7148 7.8002 30.7236 7.97128 30.6567 8.15382Z" fill="#0B0C0D"/>
<path d="M100.194 5.08398H92.9459C92.2318 5.08398 91.5034 5.32866 90.8941 5.77117C90.3161 6.19169 89.8682 6.77564 89.6332 7.41599L86.3941 16.1916H89.0256L91.9589 8.24557C92.1017 7.85372 92.5555 7.52208 92.9468 7.52208H100.194C100.356 7.52208 100.486 7.57942 100.561 7.6836C100.645 7.8002 100.653 7.97128 100.586 8.15382L97.6082 16.1916H100.253L102.912 8.98342C103.257 8.04391 103.137 7.0595 102.586 6.28344C102.044 5.52076 101.171 5.08398 100.194 5.08398Z" fill="#0B0C0D"/>
<path d="M86.0839 6.28344C85.5406 5.52076 84.6693 5.08398 83.6926 5.08398H73.9918L73.0915 7.52208H83.6926C83.8554 7.52208 83.9853 7.57942 84.0599 7.6836C84.1423 7.8002 84.1519 7.97128 84.0851 8.15382L83.6073 9.41925H74.8563C74.1421 9.41925 73.4132 9.66392 72.8046 10.1064C72.226 10.5269 71.7782 11.1108 71.5437 11.7513L71.345 12.2931C70.9999 13.2326 71.1192 14.217 71.6706 14.9931C72.2124 15.7548 73.0847 16.1925 74.0616 16.1925H81.3006C82.0149 16.1925 82.7437 15.9478 83.3524 15.5053C83.931 15.0848 84.3788 14.5009 84.6135 13.8605L86.4101 8.98433C86.7549 8.04487 86.6358 7.06046 86.0848 6.28439M82.2892 13.0309C82.1447 13.4228 81.6921 13.7544 81.3006 13.7544H74.0616C73.8988 13.7544 73.7689 13.6971 73.6943 13.5929C73.6119 13.4763 73.6023 13.3053 73.6691 13.1227L73.8678 12.5808C74.0122 12.1889 74.4648 11.8573 74.8563 11.8573H82.7185L82.2882 13.03L82.2892 13.0309Z" fill="#0B0C0D"/>
<path d="M71.3469 5.0833H67.3713L68.9724 0.749023H66.3429L64.7428 5.0833H62.0979L61.1975 7.52139H63.8424L62.091 12.2915C61.746 13.2309 61.8652 14.2153 62.4167 14.9914C62.9594 15.7541 63.8191 16.1909 64.797 16.1909H67.2472L68.1476 13.7528H64.797C64.6343 13.7528 64.5044 13.6954 64.4298 13.5913C64.3474 13.4747 64.3377 13.3036 64.4045 13.1211L66.4719 7.52139H70.4475L71.3479 5.0833H71.3469Z" fill="#0B0C0D"/>
<path d="M54.9925 8.24557C55.137 7.85372 55.5896 7.52208 55.9811 7.52208H59.8812L60.7806 5.08398H55.9802C55.2658 5.08398 54.537 5.32866 53.9283 5.77117C53.3497 6.19169 52.902 6.77564 52.6674 7.41599L49.4283 16.1916H52.0597L54.9925 8.24557Z" fill="#0B0C0D"/>
<path d="M119.387 8.98909C119.732 8.0496 119.613 7.06519 119.062 6.28913C118.52 5.52741 117.647 5.08968 116.67 5.08968L109.437 5.08203C108.724 5.08203 107.994 5.3267 107.386 5.76921C106.807 6.18973 106.36 6.77369 106.125 7.41403L104.403 12.0799L104.325 12.2902C103.98 13.2297 104.099 14.2141 104.651 14.9902C105.193 15.7519 106.065 16.1896 107.042 16.1896H114.278C114.992 16.1896 115.721 15.9449 116.33 15.5024C116.908 15.0819 117.356 14.498 117.591 13.8576L119.388 8.98817L119.387 8.98909ZM117.063 8.15951L115.264 13.029C115.12 13.4208 114.668 13.7525 114.275 13.7525H107.041C106.878 13.7525 106.748 13.6952 106.673 13.591C106.59 13.4743 106.581 13.3033 106.648 13.1208L108.448 8.24457C108.592 7.85271 109.045 7.52107 109.437 7.52107L116.67 7.52872C116.833 7.52872 116.962 7.58606 117.037 7.69024C117.12 7.80684 117.129 7.97792 117.063 8.16046" fill="#0B0C0D"/>
</g>
<defs>
<clipPath id="clip0_3798_11804">
<rect width="120" height="20" fill="white" transform="translate(0 0.732422)"/>
</clipPath>
</defs>
</svg>
