<svg width="61" height="61" viewBox="0 0 61 61" fill="none" xmlns="http://www.w3.org/2000/svg">
<g clip-path="url(#clip0_289_5033)">
<mask id="mask0_289_5033" style="mask-type:luminance" maskUnits="userSpaceOnUse" x="0" y="0" width="61" height="61">
<path d="M60.6665 0.288452H0.666504V60.2885H60.6665V0.288452Z" fill="white"/>
</mask>
<g mask="url(#mask0_289_5033)">
<mask id="mask1_289_5033" style="mask-type:luminance" maskUnits="userSpaceOnUse" x="0" y="0" width="61" height="61">
<path d="M60.6665 0.288452H0.666504V60.2885H60.6665V0.288452Z" fill="white"/>
</mask>
<g mask="url(#mask1_289_5033)">
<path fill-rule="evenodd" clip-rule="evenodd" d="M37.9071 21.4393C38.096 20.8585 38.3707 20.3091 38.7224 19.8097C39.1685 19.3475 39.7785 19.0792 40.421 19.0629C40.6965 19.0341 40.9746 19.09 41.2175 19.2235C41.4603 19.357 41.6565 19.5617 41.7798 19.8097C42.0065 20.3251 42.0307 20.9069 41.8477 21.4393C41.7148 22.0413 41.4345 22.6011 41.0324 23.0687C40.8164 23.3038 40.5538 23.4916 40.2615 23.6201C39.9692 23.7487 39.6532 23.8153 39.334 23.8157C39.0678 23.84 38.8008 23.7811 38.5697 23.6474C38.3384 23.5136 38.1545 23.3114 38.043 23.0687C37.8223 22.5547 37.7744 21.9827 37.9071 21.4393ZM39.334 21.4393C39.198 22.2541 39.266 22.6614 39.6056 22.6614C39.9455 22.6614 40.2851 22.2541 40.421 21.4393C40.5569 20.6245 40.5569 20.2171 40.1492 20.2171C39.7416 20.2171 39.5377 20.6245 39.334 21.4393ZM34.3064 19.1308L33.1513 23.7478H34.578L34.9856 22.322C35.0125 22.1146 35.0579 21.91 35.1216 21.7109V21.3035L35.801 23.7478H37.2279L38.3827 19.1308H36.956L36.6164 20.6245C36.6164 20.6245 36.4803 21.0997 36.4803 21.1676C36.4303 21.2973 36.407 21.436 36.4124 21.575L35.733 19.1308H34.3064ZM26.9687 22.5935C26.8329 22.5935 26.6969 22.5257 26.6969 22.3897L27.1046 20.7603H25.7458L25.338 22.7971C25.2022 23.1367 25.5419 23.9514 26.629 23.9514C27.032 24.0201 27.4462 23.9411 27.7957 23.729C28.1451 23.5171 28.4064 23.1862 28.5314 22.7971L28.939 20.7603H27.648L27.2405 22.3897C27.1724 22.5257 27.1046 22.5935 26.9687 22.5935ZM22.4167 20.5566H23.4358L22.6885 23.7478H24.319L25.0664 20.5566H27.1724L27.5122 19.1308H22.7564L22.4167 20.5566ZM27.7161 20.5566H29.0069L29.5505 23.7478H31.0451L33.2871 19.1308H31.6566L30.5695 21.643L30.3656 19.1308H27.9879L27.7161 20.5566ZM47.3508 20.4209L46.8074 22.5257C47.3508 22.5257 47.6227 22.322 47.8265 21.1676C48.0303 20.0133 47.7585 20.4209 47.3508 20.4209ZM44.5655 21.9824C44.8094 22.3685 45.0142 22.778 45.1768 23.2046L46.196 19.1308H47.6227C48.9135 19.1308 49.4571 20.0814 49.1853 21.3035C48.9135 22.5257 48.0982 23.7478 46.5356 23.7478H43.8179C43.6821 23.2046 43.4103 22.5935 43.2745 22.1182L42.9347 23.7478H41.4401L42.595 19.1308H44.2935C44.6546 19.1634 44.9915 19.3259 45.2414 19.5883C45.4912 19.8506 45.6374 20.1947 45.6523 20.5566C45.6914 20.8888 45.5999 21.223 45.3971 21.4889C45.1944 21.755 44.8961 21.932 44.5655 21.9824ZM43.6821 20.4209C43.6697 20.6305 43.6239 20.8367 43.5463 21.032H43.8179C43.886 21.032 44.1577 20.896 44.1577 20.6923C44.1577 20.4887 44.1577 20.4209 43.954 20.4209H43.6821ZM38.1789 14.3781C38.1789 14.4459 38.3147 14.3781 38.3147 14.3101C38.9789 12.9724 40.0065 11.8488 41.2805 11.0683C42.5542 10.2877 44.0223 9.88167 45.5165 9.89682C47.577 9.89674 49.554 10.7101 51.0174 12.1597C52.4807 13.6094 53.3118 15.578 53.3297 17.6369C53.3685 19.5115 52.7429 21.3393 51.5632 22.7971C51.4953 22.8651 51.4953 22.933 51.5632 22.933H51.767C52.8268 21.7496 53.5175 20.2828 53.7539 18.7124C53.9905 17.1422 53.7629 15.5371 53.0987 14.0945C52.4347 12.6518 51.3633 11.4345 50.0162 10.5922C48.6692 9.75 47.1051 9.31949 45.5165 9.35367C43.9416 9.36656 42.404 9.8351 41.0898 10.7026C39.7755 11.5702 38.741 12.7996 38.111 14.2421C38.043 14.3101 38.111 14.3781 38.1789 14.3781ZM30.8413 58.9861C25.0901 58.9861 19.4681 57.2818 14.6861 54.0886C9.90415 50.8955 6.17707 46.357 3.97619 41.047C1.7753 35.737 1.19944 29.8941 2.32145 24.2571C3.44345 18.6201 6.21291 13.4421 10.2796 9.37799C14.3463 5.3139 19.5277 2.54624 25.1684 1.42496C30.809 0.303687 36.6558 0.879173 41.9692 3.07864C47.2826 5.2781 51.8241 9.00274 55.0192 13.7816C58.2145 18.5605 59.92 24.1788 59.92 29.9263C59.92 37.6334 56.8563 45.0249 51.403 50.4748C45.9497 55.9244 38.5535 58.9861 30.8413 58.9861ZM30.8413 1.27397C25.1545 1.27399 19.5954 2.96013 14.8678 6.11896C10.1402 9.2778 6.45677 13.7673 4.2836 19.0192C2.11042 24.2711 1.54528 30.0493 2.6597 35.6223C3.7741 41.1952 6.51798 46.3126 10.544 50.3266C14.57 54.3404 19.6971 57.0703 25.2764 58.1709C30.8557 59.2713 36.6362 58.693 41.8863 56.5087C47.1365 54.3246 51.6202 50.6328 54.77 45.9009C57.9195 41.1691 59.5937 35.6095 59.5802 29.9263C59.5802 26.1579 58.8363 22.4266 57.3913 18.9457C55.9462 15.4651 53.8282 12.3035 51.1588 9.64201C48.4892 6.98051 45.3205 4.8714 41.8341 3.43548C38.3477 1.99957 34.6123 1.26504 30.8413 1.27397Z" fill="#0B0C0D"/>
<path d="M49.1859 41.1959L48.2348 40.6529H47.7591L47.5553 40.8565C47.4874 40.9245 47.4874 40.9923 47.4874 41.1281C47.4874 41.264 47.5553 41.3319 47.6911 41.4675C47.9326 41.7554 48.2341 41.9871 48.5745 42.1466L49.5255 42.6896H49.9332C50.0011 42.6896 50.1371 42.6219 50.1371 42.554C50.1371 42.486 50.273 42.3502 50.205 42.2823C50.1913 42.1379 50.1448 41.9987 50.0691 41.875L49.1859 41.1959ZM23.9119 48.6647C23.7576 48.6077 23.5929 48.5842 23.429 48.596C23.265 48.6075 23.1054 48.6542 22.9607 48.7325C22.7792 48.8334 22.6197 48.9695 22.4912 49.1327C22.3629 49.2958 22.2684 49.483 22.2133 49.6832C22.1203 49.8716 22.0663 50.0773 22.0546 50.2873C22.043 50.4973 22.074 50.7074 22.1455 50.9051C22.2761 51.2105 22.5193 51.4537 22.8249 51.5842C23.1409 51.6659 23.4748 51.6421 23.7761 51.5163C24.1269 51.2645 24.3886 50.908 24.5233 50.4978C24.6147 50.321 24.668 50.1268 24.6796 49.928C24.6913 49.7291 24.6612 49.5301 24.5914 49.3435C24.5336 49.1883 24.4429 49.0473 24.3256 48.9302C24.2085 48.813 24.0672 48.7225 23.9119 48.6647ZM47.0796 44.0477C46.8354 43.763 46.5346 43.5317 46.1964 43.3687C46.1439 43.3157 46.0797 43.2759 46.0089 43.2523C45.938 43.2287 45.8627 43.222 45.7888 43.2329L45.5171 43.3687C45.4491 43.4366 45.4491 43.5046 45.4491 43.6404C45.4429 43.7139 45.4516 43.7879 45.4751 43.858C45.4985 43.928 45.5357 43.9926 45.585 44.0477L46.3324 44.8625C46.5725 45.1052 46.8473 45.311 47.1477 45.4735C47.2652 45.5617 47.4083 45.6093 47.5553 45.6093L47.8272 45.4735C47.8692 45.4419 47.9035 45.401 47.9271 45.3536C47.9507 45.3066 47.963 45.2546 47.963 45.202C47.963 45.066 47.895 44.9983 47.8272 44.7945L47.0796 44.0477ZM45.9927 29.9252C45.9927 32.9199 45.104 35.8472 43.4393 38.337C41.7744 40.8269 39.4084 42.7675 36.6398 43.9135C33.8713 45.0595 30.8251 45.3594 27.8861 44.7752C24.9471 44.191 22.2476 42.749 20.1287 40.6314C18.0098 38.5139 16.5669 35.8161 15.9822 32.879C15.3976 29.942 15.6976 26.8976 16.8444 24.131C17.9911 21.3644 19.9329 18.9997 22.4246 17.336C24.9161 15.6722 27.8454 14.7842 30.8419 14.7842V2.22339C25.3431 2.2234 19.968 3.85379 15.3969 6.90819C10.8257 9.96257 7.26409 14.3035 5.16292 19.3818C3.06173 24.4601 2.51542 30.047 3.59314 35.4356C4.67086 40.8243 7.32415 45.7724 11.2171 49.6533C15.11 53.5342 20.0678 56.1737 25.4626 57.2375C30.8573 58.3012 36.4466 57.7417 41.523 55.6295C46.5992 53.5172 50.9345 49.9473 53.9796 45.3716C57.0248 40.7961 58.6431 35.4204 58.6296 29.9252H45.9927ZM8.76116 38.8196L8.3535 38.0049L12.4299 36.1717L13.0414 37.5295C13.208 37.8489 13.3226 38.1928 13.3811 38.5481C13.4338 38.8052 13.3851 39.0727 13.2452 39.2949C13.0809 39.5422 12.8434 39.732 12.5658 39.8381C12.4676 39.9052 12.3568 39.952 12.24 39.9753C12.1232 39.9986 12.003 39.9982 11.8864 39.9738L11.3429 39.8381C11.1391 39.7702 11.0711 39.6344 10.9352 39.4986C10.7724 39.2413 10.6359 38.9684 10.5276 38.6838L10.2559 38.1407L8.76116 38.8196ZM11.9544 44.3871L13.2452 41.264L10.8673 42.9613L10.3917 42.2823L13.9926 39.7022L14.536 40.3813L13.1773 43.5723L15.5552 41.875L16.0988 42.554L12.4299 45.134L11.9544 44.3871ZM14.808 44.6587L15.9628 45.813L15.4194 46.4241L14.1965 45.2698L14.808 44.6587ZM15.0796 47.7141L17.9331 44.3193L18.6126 44.9304L15.759 48.2572L15.0796 47.7141ZM20.447 47.171C20.3476 47.003 20.2076 46.8628 20.0393 46.7635L19.4278 46.5598C19.3751 46.5598 19.3231 46.572 19.2759 46.5956C19.2287 46.6192 19.1878 46.6535 19.1561 46.6957C19.1021 46.7752 19.0779 46.8715 19.0881 46.9672C19.233 47.2408 19.416 47.4922 19.6317 47.7141C19.8964 47.9255 20.1256 48.1776 20.3111 48.4611C20.4293 48.6663 20.477 48.905 20.447 49.1399C20.4345 49.3792 20.3646 49.6123 20.2431 49.8189C20.0952 50.0117 19.9104 50.1733 19.6996 50.2941C19.4431 50.4058 19.1631 50.4525 18.8843 50.4299L18.0011 50.0226C17.6145 49.7754 17.3078 49.4216 17.118 49.0041C17.0566 48.8019 17.037 48.5891 17.0603 48.3791C17.0837 48.169 17.1495 47.966 17.2538 47.782L18.069 48.1214C18.0076 48.2349 17.97 48.3595 17.9582 48.488C17.9466 48.6164 17.9611 48.7457 18.0011 48.8684C18.0912 49.0795 18.2311 49.2659 18.4088 49.4116C18.507 49.4788 18.6178 49.5254 18.7346 49.5487C18.8513 49.572 18.9716 49.5715 19.0881 49.5472C19.2452 49.5345 19.3913 49.4615 19.4957 49.3435C19.5497 49.264 19.5739 49.1677 19.5638 49.0721C19.5638 48.9362 19.4957 48.8684 19.3599 48.7325L18.8843 48.1895C18.6026 47.93 18.392 47.6027 18.2728 47.2387C18.209 47.0826 18.1879 46.9123 18.2119 46.7451C18.2357 46.578 18.3036 46.4204 18.4088 46.2883C18.5121 46.099 18.6812 45.9541 18.8843 45.881C19.1154 45.7656 19.3748 45.7185 19.6317 45.7451L20.447 46.0847C20.8344 46.3128 21.1246 46.6751 21.2622 47.1031C21.3207 47.2831 21.3388 47.4735 21.3154 47.6613C21.2919 47.8491 21.2274 48.0292 21.1264 48.1895L20.379 47.7141C20.4311 47.5379 20.454 47.3545 20.447 47.171ZM24.2517 52.2632C23.7036 52.466 23.101 52.466 22.5531 52.2632C22.2833 52.1803 22.0344 52.0402 21.8235 51.8529C21.6125 51.6654 21.4444 51.4349 21.3302 51.1769C21.2106 50.8979 21.1489 50.5975 21.1489 50.2941C21.1489 49.9908 21.2106 49.6904 21.3302 49.4116C21.4519 49.0292 21.6613 48.6804 21.9417 48.393C22.0922 48.2207 22.2774 48.0819 22.4851 47.9857L23.1646 47.782C23.5142 47.7836 23.8603 47.8529 24.1836 47.9857C24.4601 48.0547 24.7156 48.1897 24.9286 48.3787C25.1415 48.568 25.3055 48.8058 25.4066 49.0721C25.5261 49.3509 25.5879 49.6511 25.5879 49.9547C25.5879 50.2581 25.5261 50.5585 25.4066 50.8372C25.2152 51.4412 24.8027 51.9504 24.2517 52.2632ZM25.2707 53.078L27.2411 48.8005L27.9204 48.9362L25.8822 53.2136L25.2707 53.078ZM28.5319 53.5532L27.6488 53.4174L28.1922 49.0041L29.0754 49.1399L28.5319 53.5532ZM29.8227 53.689L29.6869 49.2078H32.948V49.9547H30.5022V50.9732H32.6764V51.7199H30.4341V52.8742H32.948V53.6211L29.8227 53.689ZM37.3641 52.4669C37.0879 52.7612 36.735 52.9728 36.3451 53.078C36.0814 53.1576 35.8029 53.1744 35.5316 53.1273C35.2602 53.0801 35.0037 52.9702 34.7825 52.8063C34.5279 52.6381 34.3115 52.4181 34.1476 52.1608C33.9838 51.9033 33.8761 51.6144 33.8312 51.3126C33.6608 50.7272 33.7091 50.0996 33.9671 49.5472C34.2766 49.0634 34.7651 48.7217 35.3259 48.5968C35.8024 48.4679 36.3092 48.5162 36.7527 48.7325C36.9894 48.9271 37.1955 49.1559 37.3641 49.4116L36.5488 49.8189C36.4455 49.6296 36.2764 49.4846 36.0732 49.4116C35.9839 49.3529 35.8819 49.3162 35.7756 49.3045C35.6696 49.2926 35.562 49.3061 35.4619 49.3435C35.3135 49.3735 35.1744 49.4386 35.0563 49.5331C34.9382 49.6274 34.8443 49.7488 34.7825 49.8868C34.682 50.0606 34.6236 50.2555 34.6118 50.4558C34.6001 50.6563 34.6352 50.8566 34.7145 51.041C34.7766 51.4513 34.9669 51.8316 35.258 52.1274C35.3795 52.2272 35.5224 52.2974 35.6758 52.3327C35.829 52.368 35.9884 52.3675 36.1412 52.331C36.3613 52.2568 36.5518 52.114 36.6848 51.9236C36.8421 51.7082 36.9147 51.4424 36.8886 51.1769H37.7717C37.7989 51.6422 37.6538 52.1013 37.3641 52.4669ZM40.8291 51.4484C40.746 51.1612 40.7003 50.8646 40.6932 50.5657C40.7398 50.099 40.8542 49.6416 41.033 49.2078C41.1688 48.6647 41.3048 48.3251 41.3048 48.1895C41.3316 47.9976 41.283 47.8027 41.1688 47.6462C41.1379 47.5772 41.091 47.5165 41.0319 47.4693C40.9729 47.4221 40.9033 47.3895 40.8291 47.3747C40.7633 47.3395 40.6875 47.3271 40.6138 47.3394C40.5402 47.3518 40.4726 47.3879 40.4216 47.4425C40.3426 47.4693 40.271 47.5138 40.2121 47.5728C40.1532 47.6316 40.1086 47.7032 40.0817 47.782C40.067 47.9731 40.1146 48.1637 40.2177 48.3251L39.4025 48.6647C39.2502 48.3224 39.2261 47.9369 39.3345 47.5784C39.4857 47.231 39.7487 46.9442 40.0817 46.7635C40.242 46.6626 40.4224 46.5981 40.6101 46.5746C40.7981 46.5512 40.9888 46.5693 41.1688 46.6277C41.4795 46.7041 41.7478 46.8992 41.9162 47.171L42.1201 47.7141C42.1311 47.9425 42.1084 48.1713 42.0521 48.393C42.0326 48.6528 41.9634 48.9062 41.8483 49.1399L41.6445 49.8189C41.6445 49.9547 41.5764 50.0226 41.5764 50.1584L43.0712 49.3435L43.4788 50.0226L40.8291 51.4484ZM44.7698 49.0721C44.4173 48.5486 44.1426 47.9769 43.9545 47.3747C43.7427 46.7392 43.6281 46.0753 43.6148 45.4056L42.1201 46.6277L41.6445 46.0166L43.8864 44.1834L44.2941 44.6587C44.2178 45.0884 44.241 45.5297 44.3621 45.9487C44.4346 46.4399 44.5716 46.9192 44.7698 47.3747C44.9247 47.7971 45.155 48.1881 45.4491 48.5289L44.7698 49.0721ZM48.3706 45.9487C48.2415 46.1065 48.073 46.2273 47.882 46.2989C47.6911 46.3705 47.4846 46.3903 47.2835 46.3562C46.6695 46.2705 46.1111 45.955 45.7209 45.4735C45.2116 45.0854 44.8517 44.534 44.7017 43.9119C44.6652 43.7272 44.6773 43.5363 44.7371 43.3578C44.7965 43.1793 44.9014 43.0192 45.0415 42.8934C45.1547 42.7355 45.3109 42.6131 45.4916 42.5409C45.6721 42.4687 45.8696 42.4496 46.0606 42.486C46.6796 42.6126 47.247 42.9198 47.6911 43.3687C48.2004 43.7568 48.5603 44.3083 48.7103 44.9304C48.735 45.1147 48.7172 45.3024 48.6583 45.4788C48.5994 45.6553 48.501 45.816 48.3706 45.9487ZM50.7485 42.8256C50.668 43.0098 50.5347 43.1662 50.3655 43.2751C50.1962 43.3837 49.9986 43.4399 49.7974 43.4366C49.1547 43.4481 48.5289 43.2315 48.0309 42.8256C47.482 42.5233 47.0511 42.0449 46.8079 41.4675C46.7446 41.2885 46.7237 41.097 46.7473 40.9083C46.771 40.7199 46.8381 40.5393 46.9438 40.3813C47.1685 40.061 47.51 39.8415 47.895 39.7702C48.5363 39.8248 49.1488 40.0603 49.6615 40.4492C50.2036 40.7505 50.6507 41.1974 50.9524 41.7392C51.0062 41.9235 51.0158 42.118 50.9803 42.3067C50.9449 42.4955 50.8655 42.6731 50.7485 42.8256ZM49.5255 38.2086C49.6648 38.6242 49.7338 39.0602 49.7293 39.4986L48.9821 39.1592C49.0235 38.8859 49.0002 38.6069 48.914 38.3444C48.8545 38.0448 48.6849 37.7784 48.4386 37.5975L48.7103 36.9185L52.8548 38.6838L52.515 39.4986L49.5255 38.2086ZM11.5467 38.8876C11.6147 39.0232 11.6826 39.0232 11.8185 39.0911H12.1582C12.2323 39.0763 12.3019 39.0438 12.3609 38.9965C12.42 38.9493 12.467 38.8886 12.4979 38.8196C12.5337 38.7577 12.5525 38.6874 12.5525 38.6159C12.5525 38.5445 12.5337 38.4742 12.4979 38.4122C12.4732 38.1966 12.4038 37.9885 12.2941 37.8011L12.0902 37.3938L10.9352 37.869L11.1391 38.3444C11.2174 38.5622 11.3594 38.7515 11.5467 38.8876Z" fill="#0B0C0D"/>
<path d="M19.9003 32.3028V30.3338H19.3569V29.9264H20.8515V30.3338H20.3081V32.3028H19.9003Z" fill="#0B0C0D"/>
<path d="M21.1261 29.927H21.466V31.5564C21.5337 31.6922 21.5337 31.7601 21.6018 31.828H22.0774L22.2132 31.6922V29.927H22.6208V31.1491C22.6444 31.3778 22.6214 31.6086 22.553 31.828C22.5588 31.8988 22.5421 31.9696 22.5056 32.0305C22.4692 32.0915 22.4144 32.1393 22.3492 32.1676L21.8735 32.3034H21.3979C21.33 32.1674 21.1942 32.0995 21.1942 31.9638C21.1257 31.7444 21.1025 31.5134 21.1261 31.2849V29.927ZM21.3979 29.7233V29.3158H21.7376V29.7233H21.3979ZM22.0094 29.7233V29.3158H22.2811V29.7233H22.0094Z" fill="#0B0C0D"/>
<path d="M23.5037 32.3028L22.8242 29.9264H23.2319L23.7076 31.6918L24.1832 29.9264H24.5908L23.9113 32.3028H23.5037Z" fill="#0B0C0D"/>
<path d="M25.5439 32.3028V29.9264H25.8836L26.6988 31.488V29.9264H27.0386V32.3028H26.6309L25.8836 30.7412V32.3028H25.5439Z" fill="#0B0C0D"/>
<path d="M27.3781 31.1491C27.3426 30.9138 27.3907 30.6736 27.514 30.4701C27.5287 30.3872 27.5605 30.3081 27.6073 30.238C27.6541 30.1679 27.7147 30.1082 27.7857 30.0628C27.9216 29.9593 28.0914 29.9109 28.2613 29.927C28.388 29.9162 28.5153 29.9352 28.6333 29.9822C28.7511 30.0295 28.8565 30.1034 28.9408 30.1985C29.1434 30.4458 29.2409 30.7628 29.2124 31.0812C29.2446 31.421 29.1477 31.7603 28.9408 32.0318C28.8565 32.1268 28.7511 32.2008 28.6333 32.248C28.5153 32.2952 28.388 32.3142 28.2613 32.3034C28.1446 32.3147 28.027 32.2956 27.9198 32.248C27.8127 32.2004 27.7197 32.1258 27.6498 32.0318C27.4473 31.7844 27.3497 31.4675 27.3781 31.1491ZM27.7857 31.0812C27.7857 31.3528 27.7857 31.5565 27.9217 31.6922C27.9498 31.7575 27.9978 31.8121 28.0588 31.8488C28.1197 31.8853 28.1905 31.9018 28.2613 31.8959C28.3409 31.8988 28.42 31.8818 28.4912 31.8462C28.5624 31.8106 28.6236 31.7577 28.669 31.6922C28.7613 31.502 28.8078 31.2927 28.8048 31.0812C28.8198 30.8903 28.7721 30.6996 28.669 30.538C28.6291 30.4674 28.5689 30.4103 28.4964 30.374C28.4237 30.3376 28.3419 30.3239 28.2613 30.3344C28.1905 30.3286 28.1197 30.3451 28.0588 30.3816C27.9978 30.4182 27.9498 30.4728 27.9217 30.538C27.7857 30.6058 27.7857 30.8097 27.7857 31.0812Z" fill="#0B0C0D"/>
<path d="M29.4814 32.3028V29.9264H30.7723L30.976 30.198C31.0408 30.2987 31.065 30.4199 31.044 30.5374C31.044 30.7412 31.044 30.877 30.9082 30.9449C30.88 31.0099 30.832 31.0648 30.7712 31.1013C30.7102 31.1378 30.6393 31.1543 30.5684 31.1485L30.7723 31.3522C30.8683 31.4721 30.9378 31.6109 30.976 31.7595L31.18 32.2349H30.7723L30.5006 31.6918L30.2968 31.3522H29.8892V32.3707L29.4814 32.3028ZM29.8892 30.9449H30.6364V30.6053L30.5006 30.4695H29.8892V30.9449Z" fill="#0B0C0D"/>
<path d="M31.3872 29.9264H32.5423L32.7461 30.1301L32.9499 30.5374C33.0112 30.7116 33.0343 30.8968 33.0177 31.0807C33.0334 31.2423 33.0102 31.4051 32.9499 31.5558L32.7461 31.9633L32.5423 32.1671H31.3872V29.9264ZM31.7948 30.3338V31.8955H32.4743L32.6101 31.6238V30.877L32.4743 30.6053L32.2704 30.4695H31.7948V30.3338Z" fill="#0B0C0D"/>
<path d="M34.1064 32.3028V29.9264H35.1255C35.2613 29.9264 35.3294 30.0622 35.3971 30.1301C35.4837 30.2738 35.5305 30.4378 35.5331 30.6053C35.5331 30.7412 35.4652 30.877 35.4652 31.0128C35.4652 31.1485 35.2613 31.2164 35.1934 31.2844H34.4461V32.1671L34.1064 32.3028ZM34.4461 30.3338V31.0128H35.0576C35.1016 30.954 35.1255 30.8826 35.1255 30.8091C35.1255 30.7356 35.1016 30.6641 35.0576 30.6053H34.4461V30.3338Z" fill="#0B0C0D"/>
<path d="M35.731 31.4198C35.7334 31.2522 35.7803 31.0882 35.8668 30.9446L36.0706 30.6729L36.4782 30.5371C36.5745 30.5363 36.6693 30.561 36.7527 30.6087C36.8363 30.6564 36.9057 30.7254 36.9539 30.8088C37.082 30.9873 37.1532 31.2001 37.1577 31.4198C37.1733 31.5814 37.15 31.7444 37.0897 31.8952C37.039 32.0349 36.9434 32.1541 36.8179 32.2346H36.4782C36.3787 32.2385 36.2793 32.2226 36.186 32.1877C36.0926 32.1526 36.0072 32.0993 35.9348 32.0309C35.8102 31.8507 35.7394 31.6387 35.731 31.4198ZM36.1387 31.4198C36.1387 31.6235 36.1387 31.7594 36.2065 31.8273L36.4782 31.9629L36.6821 31.8273C36.7313 31.772 36.7687 31.7075 36.7921 31.6374C36.8155 31.5675 36.8242 31.4933 36.8179 31.4198C36.8044 31.2755 36.7579 31.136 36.6821 31.0125H36.2065C36.152 31.1409 36.1286 31.2806 36.1387 31.4198Z" fill="#0B0C0D"/>
<path d="M37.4395 32.3028V29.9264H37.847V32.3028H37.4395Z" fill="#0B0C0D"/>
<path d="M38.0444 31.7593H38.452C38.452 31.8315 38.4807 31.9006 38.5315 31.9515C38.5827 32.0025 38.6517 32.031 38.7238 32.031H38.9275C38.9669 31.9962 38.9913 31.9475 38.9956 31.8951V31.6914H38.9275L38.3161 31.4199C38.2329 31.3258 38.1849 31.2058 38.1803 31.0804C38.1939 30.936 38.2404 30.7966 38.3161 30.673L38.7917 30.5372L39.1994 30.673C39.2967 30.7659 39.367 30.883 39.4032 31.0125H39.0635C38.9956 30.8766 38.9275 30.8087 38.7917 30.8087H38.5878C38.5199 30.8766 38.5199 30.8766 38.5199 30.9447C38.5199 31.0126 38.5199 31.0125 38.5878 31.0125L38.9275 31.1483L39.3353 31.352C39.3999 31.4526 39.4242 31.5739 39.4032 31.6914C39.3895 31.8358 39.3432 31.9752 39.2673 32.0989L38.7917 32.2347C38.7181 32.241 38.644 32.2321 38.5739 32.2086C38.5038 32.1853 38.4392 32.148 38.3841 32.0989C38.3075 32.0682 38.2378 32.0222 38.1794 31.9639C38.1211 31.9055 38.0751 31.836 38.0444 31.7593Z" fill="#0B0C0D"/>
<path d="M39.6689 32.3028V29.9264H40.0085V31.1485L40.4162 30.6053H40.8919L40.4162 31.2164L40.9596 32.3028H40.552L40.2124 31.488L40.0085 31.7595V32.3028H39.6689Z" fill="#0B0C0D"/>
<path d="M41.4375 31.0807H41.0978C41.092 31.0101 41.1086 30.9392 41.1452 30.8783C41.1817 30.8174 41.2364 30.7695 41.3017 30.7413C41.3568 30.6922 41.4214 30.6548 41.4915 30.6314C41.5615 30.6081 41.6357 30.5992 41.7093 30.6055H42.049L42.1848 30.8092C42.2528 30.8771 42.2528 31.0128 42.2528 31.2165V32.0314C42.2528 32.0992 42.3207 32.1671 42.3207 32.3028H41.9809V32.0992L41.7772 32.235H41.5733L41.2336 32.0992C41.1505 32.0051 41.1025 31.8852 41.0978 31.7598C41.0978 31.6238 41.1657 31.5561 41.1657 31.4882C41.1657 31.4202 41.2336 31.3523 41.3017 31.3523L41.6414 31.2165L41.9809 31.0807V31.0128H41.5733C41.4375 30.945 41.4375 31.0128 41.4375 31.0807ZM41.9132 31.4882H41.4375V31.6238C41.4344 31.6607 41.4389 31.6977 41.4505 31.7328C41.4622 31.7677 41.4809 31.8 41.5056 31.8276H41.7772C41.8451 31.7598 41.8451 31.7598 41.8451 31.6917C41.8451 31.6238 41.9132 31.5561 41.9132 31.4202V31.4882Z" fill="#0B0C0D"/>
<path d="M25.1377 35.0188H25.4774C25.5453 35.3584 25.6814 35.4942 25.953 35.4942H26.2248C26.2928 35.4261 26.2928 35.3584 26.2928 35.2225V35.0867H26.1567L25.8172 34.951L25.4774 34.8151L25.2735 34.5437C25.2057 34.4757 25.2057 34.4078 25.2057 34.2721C25.1847 34.1543 25.209 34.0332 25.2735 33.9324C25.3416 33.7967 25.4095 33.7288 25.5453 33.7288L25.8851 33.593C25.9859 33.5824 26.0877 33.5944 26.1833 33.628C26.2788 33.6619 26.3655 33.7164 26.4372 33.7881C26.509 33.8597 26.5635 33.9464 26.5973 34.0419C26.6312 34.1374 26.6432 34.2392 26.6324 34.34H26.2248C26.2248 34.204 26.1567 34.1361 26.1567 34.0684H25.6814L25.5453 34.204C25.5453 34.2721 25.6133 34.34 25.6133 34.4078L26.0209 34.5437L26.4287 34.6794L26.6324 34.951C26.6617 35.0627 26.6845 35.176 26.7004 35.2904C26.7044 35.3901 26.6884 35.4894 26.6534 35.5825C26.6183 35.6759 26.565 35.7613 26.4966 35.8337C26.4138 35.9074 26.317 35.9634 26.2118 35.9984C26.1067 36.0334 25.9954 36.0467 25.8851 36.0373C25.4774 35.8337 25.2057 35.5621 25.1377 35.0188Z" fill="#0B0C0D"/>
<path d="M26.9604 34.0671H27.3003V34.3388L27.504 34.135H27.7758C27.9329 34.1479 28.0789 34.2208 28.1834 34.3388C28.2813 34.5512 28.3278 34.7839 28.3193 35.0177C28.3286 35.128 28.3154 35.2392 28.2803 35.3442C28.2453 35.4493 28.1892 35.546 28.1154 35.6288C28.0995 35.7066 28.0569 35.7763 27.9949 35.8261C27.9327 35.8757 27.8553 35.9019 27.7758 35.9003H27.5719L27.368 35.6965V36.5115H26.9604V34.0671ZM27.368 34.8819C27.3526 35.0434 27.3758 35.2063 27.4361 35.3571H27.8437C27.9195 35.2336 27.966 35.0942 27.9795 34.9498C27.9858 34.8762 27.977 34.8021 27.9537 34.732C27.9304 34.6621 27.8929 34.5976 27.8437 34.5424L27.6399 34.4065L27.4361 34.5424C27.3716 34.643 27.3473 34.7642 27.368 34.8819Z" fill="#0B0C0D"/>
<path d="M28.5957 35.7661V35.3586H29.0034V35.7661H28.5957Z" fill="#0B0C0D"/>
<path d="M29.9609 35.7645V35.425L30.4366 34.6782C30.5238 34.633 30.5952 34.5619 30.6404 34.4745H30.029V34.0671H31.1159V34.4065L30.6404 35.1534L30.4366 35.425H31.1838V35.8325L29.9609 35.7645Z" fill="#0B0C0D"/>
<path d="M32.0698 34.883C32.0833 34.7386 32.1298 34.5993 32.2056 34.4757L32.4093 34.1363H32.817C32.9132 34.1353 33.0079 34.16 33.0915 34.2077C33.175 34.2554 33.2445 34.3244 33.2927 34.4076C33.3664 34.4904 33.4223 34.5873 33.4574 34.6923C33.4926 34.7975 33.5057 34.9085 33.4964 35.0188C33.5023 35.18 33.4792 35.341 33.4285 35.494C33.3606 35.63 33.2246 35.6978 33.1567 35.7657L32.817 35.9015C32.7105 35.9075 32.6044 35.8855 32.509 35.8379C32.4137 35.7903 32.3325 35.7186 32.2735 35.6298C32.1848 35.5291 32.1205 35.4095 32.0853 35.2799C32.05 35.1507 32.0447 35.0147 32.0698 34.883ZM32.4773 34.9509C32.4563 35.0686 32.4806 35.1898 32.5451 35.2903C32.6132 35.4263 32.6812 35.4263 32.817 35.4263C32.9528 35.4263 32.9528 35.4263 33.0208 35.2903C33.1039 35.1963 33.1519 35.0763 33.1567 34.9509C33.1628 34.8773 33.1541 34.8033 33.1308 34.7333C33.1075 34.6632 33.07 34.5987 33.0208 34.5436L32.817 34.4076C32.7643 34.4076 32.7123 34.42 32.665 34.4436C32.6178 34.4672 32.5769 34.5014 32.5451 34.5436C32.4773 34.6115 32.4773 34.7473 32.4773 34.9509Z" fill="#0B0C0D"/>
<path d="M33.7627 35.7661V35.3586H34.1703V35.7661H33.7627Z" fill="#0B0C0D"/>
<path d="M34.4443 34.8837C34.4343 34.7443 34.4576 34.6048 34.5122 34.4762L34.7839 34.1368H35.1238C35.2311 34.1227 35.34 34.1411 35.4369 34.1896C35.5338 34.238 35.614 34.3141 35.6672 34.4083C35.7409 34.4911 35.797 34.5879 35.832 34.6929C35.8672 34.798 35.8803 34.909 35.871 35.0195C35.8492 35.1837 35.8033 35.3439 35.7352 35.4947C35.6807 35.6152 35.584 35.7118 35.4633 35.7663L35.1238 35.902C35.0275 35.903 34.9326 35.8781 34.8491 35.8306C34.7655 35.7828 34.6961 35.7138 34.6481 35.6305C34.5596 35.5297 34.4951 35.41 34.4598 35.2806C34.4245 35.1512 34.4192 35.0154 34.4443 34.8837ZM34.7839 34.9516C34.7886 35.077 34.8366 35.1969 34.9199 35.291C34.9877 35.4268 35.0557 35.4269 35.1238 35.4269C35.1915 35.4269 35.3275 35.4268 35.3954 35.291C35.4599 35.1903 35.4842 35.0691 35.4633 34.9516C35.4633 34.7478 35.4633 34.612 35.3954 34.5442C35.3638 34.502 35.3227 34.4679 35.2755 34.4442C35.2284 34.4206 35.1764 34.4083 35.1238 34.4083L34.9199 34.5442C34.8707 34.5993 34.8333 34.6638 34.8099 34.7338C34.7865 34.804 34.7777 34.8779 34.7839 34.9516Z" fill="#0B0C0D"/>
<path d="M36.1372 35.7661V35.3586H36.477V35.7661H36.1372Z" fill="#0B0C0D"/>
</g>
</g>
</g>
<defs>
<clipPath id="clip0_289_5033">
<rect width="60" height="60" fill="white" transform="translate(0.666504 0.288452)"/>
</clipPath>
</defs>
</svg>
