<svg width="75" height="28" viewBox="0 0 75 28" fill="none" xmlns="http://www.w3.org/2000/svg">
<g clip-path="url(#clip0_268_9)">
<path fill-rule="evenodd" clip-rule="evenodd" d="M43.7194 16.6548C43.7194 22.1155 40.7123 22.7708 37.7053 22.7708C32.5345 22.7708 31.4343 20.1496 31.4343 16.4V5.82443H29.5273V4.80509H36.7518V5.82443H34.6982V16.0905C34.6982 19.7128 35.6516 21.5149 38.2737 21.5149C40.9507 21.5149 42.2525 20.2043 42.2525 16.4364V5.82443H40.3272V4.80509H45.4614V5.82443H43.7194V16.6548ZM48.6335 21.5512V5.82443H46.7632V4.80509H54.776C58.1866 4.80509 59.8734 6.71631 59.8734 8.95521C59.8734 11.3397 57.6916 12.6867 55.7478 13.0872C59.5251 13.433 60.5519 15.8358 60.5519 17.6013C60.5519 21.2054 57.4532 22.5705 54.4094 22.5705H46.6348V21.5512H48.6335ZM56.6097 9.15545C56.6097 7.49906 55.7478 5.82443 53.8593 5.82443H51.824V12.6503H53.6392C55.6378 12.6503 56.6097 10.9757 56.6097 9.15545ZM57.2514 17.6013C57.2514 15.235 56.2246 13.6514 53.8225 13.6514H51.824V21.5512H53.4376C55.9862 21.5512 57.2514 20.0586 57.2514 17.6013ZM68.5464 5.58778C66.6579 5.58778 65.4477 6.69814 65.4477 8.62758C65.4477 10.375 67.3546 11.2123 69.2065 11.8312C70.3067 12.2134 71.7002 12.7231 72.6537 13.6332C73.6989 14.6161 74.2673 15.9267 74.2305 17.5831C74.1573 20.6776 71.9752 22.7708 68.1247 22.789C66.6762 22.789 64.4208 22.4613 63.0639 21.6786L62.9172 17.0189H64.0541C64.1457 20.1496 65.631 21.7879 68.2347 21.7879C70.325 21.7879 71.4802 20.4045 71.4802 18.293C71.4802 16.4728 69.9584 15.6901 67.648 14.9255C66.8962 14.6708 65.411 14.1246 64.3658 13.1054C63.4307 12.177 62.9906 11.0121 62.9906 9.77433C62.9906 6.15207 65.5943 4.58667 68.8214 4.58667C70.105 4.58667 72.0303 5.04174 73.1488 5.67881L73.2587 9.71972H72.1219C71.8835 6.84374 70.6184 5.58778 68.5464 5.58778Z" fill="#0B0C0D"/>
<path fill-rule="evenodd" clip-rule="evenodd" d="M20.5978 8.39953L20.1199 8.79488L20.6243 10.429L19.1109 9.61192L18.6064 10.0073L20.2791 10.9033L18.5003 12.3265L18.0224 11.694L18.6597 11.1932L18.1817 10.6398L17.5446 11.1405L17.0667 10.5343L17.7039 10.0336L17.226 9.42746L13.9605 12.1157L17.0667 14.593L17.6242 13.9078C18.0224 13.9343 18.3144 14.2242 18.4737 14.593L17.9163 15.2784L18.2613 15.5417C19.0312 14.8566 20.0402 14.4086 21.0755 14.4086C23.2525 14.4086 24.9517 16.1744 24.9517 18.3354C24.9517 19.0471 24.7659 19.8116 24.3677 20.444L24.9517 20.8921C24.9251 21.3138 24.5269 21.7618 24.1287 21.8672L23.5711 21.4192C22.8013 22.1572 21.7924 22.5524 20.7304 22.5524C18.5535 22.5524 16.8543 20.8393 16.8543 18.6519C16.8543 17.9404 17.0667 17.2023 17.3853 16.596L17.0667 16.3062L16.5092 17.0441C16.1109 16.9914 15.7657 16.7278 15.6596 16.3062L16.2171 15.6473L13.5887 13.4861V16.9123L14.4648 16.9387C14.5711 17.0705 14.6508 17.2549 14.6508 17.4659C14.6508 17.6503 14.5711 17.8612 14.4914 18.0192H13.5887V18.441C15.5003 18.7573 17.0932 20.3648 17.0932 22.3152C17.0932 24.3446 15.5269 25.9522 13.5887 26.2685V26.9539C13.4029 27.0593 13.1639 27.1383 12.9516 27.1383C12.7127 27.1383 12.4471 27.0593 12.2347 26.9539V26.2685C10.2967 25.9522 8.78336 24.3446 8.78336 22.3152C8.78336 20.3648 10.2967 18.7573 12.2347 18.4672V18.0192H11.3321C11.2258 17.8612 11.1728 17.6503 11.1728 17.4659C11.1728 17.2549 11.2258 17.0705 11.3321 16.9123H12.2347V13.4861L9.57988 15.6473L10.1639 16.3062C10.0312 16.7278 9.68597 16.9914 9.28784 17.0441L8.7303 16.3062L8.38509 16.596C8.75683 17.2023 8.94265 17.9404 8.94265 18.6519C8.94265 20.8393 7.2435 22.5524 5.06654 22.5524C4.03104 22.5524 2.99565 22.1572 2.25233 21.4192L1.66826 21.8672C1.29652 21.7618 0.898263 21.3139 0.845215 20.8921L1.40274 20.444C1.05766 19.8116 0.845215 19.0471 0.845215 18.3354C0.845215 16.1744 2.54435 14.4086 4.72133 14.4086C5.78335 14.4086 6.79219 14.8566 7.56206 15.5417L7.88075 15.3047L7.32319 14.593C7.45595 14.2242 7.80104 13.9606 8.19931 13.9078L8.75683 14.593L11.8631 12.1157L8.59756 9.42746L8.1196 10.0336L8.75684 10.5343L8.27888 11.1406L7.64178 10.6398L7.16393 11.1932L7.77454 11.694L7.29669 12.3265L5.54438 10.9033L7.19047 10.0073L6.71252 9.61192L5.19931 10.429L5.70367 8.79488L5.22583 8.39953L4.6683 10.1917L2.88943 8.76855L3.36739 8.18876L3.97797 8.68944L4.48247 8.10964L3.84523 7.55617L4.32316 7.00269L4.96031 7.47717L5.41161 6.92368L4.03104 5.84308C4.16378 5.39507 4.45592 5.02604 4.8806 4.76248L12.2347 10.7189V6.73913H11.4914V7.50349H10.748V6.73913H9.978V7.50349H9.20813V5.26328L10.9603 6.00119V5.36873L9.3409 4.7098L10.9603 4.07721V3.47108L9.20813 4.15634V1.88979H9.978V2.70682H10.748V1.88979H11.4914V2.70682H12.2347V0.914605C12.4471 0.835507 12.6861 0.782837 12.925 0.782837C13.1375 0.782837 13.3764 0.835507 13.5887 0.914605V10.7189L20.9429 4.76247C21.3411 5.02603 21.6331 5.39507 21.7924 5.84308L20.3853 6.92367L20.8631 7.47715L21.5003 7.00267L21.9783 7.55616L21.3411 8.10962L21.8189 8.68942L22.4562 8.18876L22.9341 8.76855L21.1552 10.1917L20.5978 8.39953ZM5.57088 19.1789C5.57088 19.8116 6.04885 20.2069 6.6064 20.2596L5.67711 20.9711C5.03999 20.7338 4.45592 19.9696 4.45592 19.3107C4.45592 19.0999 4.50898 18.9681 4.56203 18.8099C4.48246 18.8099 4.42929 18.8363 4.37624 18.8363C3.52666 18.8363 2.80983 18.0456 2.65058 17.2285L3.60637 16.4907C3.5797 16.596 3.5797 16.6751 3.5797 16.7543C3.5797 17.2814 4.08421 17.7557 4.6152 17.7557C5.17275 17.7557 5.70364 17.2814 5.70364 16.7278C5.70364 16.0426 5.17275 15.5947 4.50898 15.5947C3.20808 15.5947 1.93375 16.8335 1.93375 18.4672C1.93375 18.9417 2.03984 19.3897 2.25231 19.7851L2.83637 19.3371C3.23462 19.5215 3.5532 19.9168 3.65941 20.3648L3.07536 20.8129C3.63288 21.2873 4.32316 21.4983 5.03999 21.4983C6.52668 21.4983 7.72147 20.3122 7.72147 19.2579C7.72147 18.6519 7.29668 18.1248 6.65944 18.1248C6.07538 18.1248 5.57088 18.5728 5.57088 19.1789ZM13.456 21.4456C13.456 22.0254 13.9338 22.4996 14.4914 22.4996C14.8896 22.4996 15.0489 22.3416 15.341 22.1044V23.2903C15.0489 23.4486 14.7569 23.5275 14.4383 23.5275C13.8012 23.5275 13.2701 23.3431 12.925 22.7897C12.5533 23.3431 12.0224 23.5275 11.3851 23.5275C11.0931 23.5275 10.7745 23.4486 10.4825 23.2903V22.1044C10.748 22.3678 10.9604 22.4996 11.3321 22.4996C11.9161 22.4996 12.3674 22.0254 12.3674 21.4456C12.3674 20.8921 11.9958 20.3914 11.3851 20.3914C10.2967 20.3914 9.84538 21.4191 9.84538 22.3678C9.84538 23.7648 10.8808 24.9507 12.2347 25.188V24.4764C12.4471 24.3708 12.6861 24.3446 12.8985 24.3446C13.1375 24.3446 13.3764 24.3708 13.5887 24.4764V25.188C14.8367 25.0035 15.9781 23.6857 15.9781 22.3678C15.9781 21.3927 15.5799 20.3914 14.4383 20.3914C13.8543 20.3914 13.456 20.8921 13.456 21.4456ZM20.0667 16.7278C20.0667 17.2549 20.6243 17.7557 21.1818 17.7557C21.7127 17.7557 22.2171 17.2814 22.2171 16.7543C22.2171 16.6751 22.1906 16.596 22.1906 16.4907L23.1199 17.2285C22.9605 18.1248 22.1642 18.9153 21.2349 18.8099C21.2879 18.9681 21.3146 19.0999 21.3146 19.3107C21.3146 19.9696 20.7303 20.7338 20.0933 20.9711L19.164 20.2596C19.7482 20.2069 20.226 19.8116 20.226 19.1789C20.226 18.5728 19.6951 18.1248 19.1109 18.1248C18.5003 18.1248 18.049 18.6519 18.049 19.2845C18.049 20.0487 18.9781 21.4983 20.757 21.4983C21.4738 21.4983 22.1642 21.2873 22.6951 20.8129L22.1109 20.3648C22.2437 19.9169 22.5092 19.5215 22.934 19.3371L23.5181 19.7851C23.7305 19.3897 23.8632 18.9417 23.8632 18.4672C23.8632 17.2023 22.881 15.5947 21.3146 15.5947C20.6509 15.5947 20.0667 16.0426 20.0667 16.7278Z" fill="#0B0C0D"/>
</g>
<defs>
<clipPath id="clip0_268_9">
<rect width="75" height="27.0492" fill="white" transform="translate(0 0.475464)"/>
</clipPath>
</defs>
</svg>
