<svg xmlns="http://www.w3.org/2000/svg" xmlns:xlink="http://www.w3.org/1999/xlink" width="120px" height="26px" viewBox="0 0 119 26" version="1.1">
<g id="surface1">
<path style=" stroke:none;fill-rule:nonzero;fill:#0b0c0d;fill-opacity:1;" d="M 22.15625 7.855469 C 23.285156 7.855469 24.230469 6.925781 24.230469 5.902344 C 24.230469 4.554688 23.832031 3.28125 22.300781 3.28125 C 21.265625 3.28125 19.480469 4.445312 19.480469 5.449219 C 19.480469 6.632812 20.773438 7.855469 22.15625 7.855469 Z M 55.046875 8.382812 C 55.046875 8 54.21875 7.265625 53.148438 7.042969 C 52.492188 6.90625 51.773438 6.902344 51.050781 6.902344 C 51.085938 6.390625 51.035156 5.410156 51.050781 4.554688 C 51.050781 4.425781 51.105469 4.1875 51.105469 3.898438 C 51.105469 3.605469 51.050781 3.277344 50.851562 2.988281 C 50.925781 2.785156 50.960938 2.605469 50.960938 2.476562 C 50.960938 1.785156 49.921875 1.511719 48.957031 1.511719 C 48.121094 1.511719 47.320312 1.820312 47.046875 2.734375 C 46.59375 4.355469 46.464844 5.046875 46.355469 6.742188 C 45.335938 6.796875 43.351562 6.820312 43.394531 7.441406 C 43.507812 9.0625 45.078125 9.585938 46.1875 9.621094 C 46.054688 14.0625 42.347656 21.265625 41.183594 21.265625 C 40.964844 21.265625 40.875 20.917969 40.875 20.171875 C 40.875 18.714844 41.183594 16.761719 41.183594 14.6875 C 41.183594 13.414062 41.054688 12.246094 40.65625 11.5 C 40.164062 10.609375 38.527344 10.171875 37.25 10.171875 C 36.757812 10.171875 36.339844 10.226562 36.03125 10.351562 C 33.898438 11.210938 32.113281 16.054688 31.441406 17.128906 C 31.769531 14.199219 32.242188 11.917969 32.242188 10.71875 C 32.242188 10.042969 31.644531 9.441406 30.96875 9.441406 C 30.714844 9.441406 30.476562 9.53125 30.257812 9.734375 C 29.292969 10.078125 28.015625 9.734375 27.800781 11.101562 C 27.742188 11.464844 27.667969 11.902344 27.636719 12.394531 C 27.398438 15.949219 23.84375 22.542969 22.027344 22.542969 C 21.574219 22.542969 21.480469 21.960938 21.480469 21.214844 C 21.480469 18.734375 22.757812 13.523438 22.792969 12.46875 C 22.867188 12.304688 22.902344 12.121094 22.902344 11.957031 C 22.902344 10.972656 21.738281 10.007812 20.535156 10.007812 C 20.1875 10.007812 19.933594 9.933594 19.660156 9.933594 C 19.480469 9.933594 19.296875 9.96875 19.097656 10.097656 C 17.769531 10.9375 16.601562 15.78125 16.601562 18.75 C 16.601562 22.03125 18.515625 24.65625 21.539062 24.65625 C 23.703125 24.65625 25.542969 22.671875 27.109375 19.933594 C 27.109375 20.355469 27.019531 22.414062 27.109375 23.578125 C 27.164062 24.382812 28 24.035156 29.003906 24.4375 C 29.382812 24.765625 29.730469 24.910156 30.039062 24.910156 C 30.550781 24.910156 30.949219 24.457031 31.242188 23.671875 C 32.441406 20.390625 35.320312 13.03125 36.136719 13.03125 C 36.757812 13.03125 36.121094 17.769531 36.121094 20.117188 C 36.121094 21.464844 36.25 22.613281 36.71875 23.105469 C 37.578125 24.015625 38.503906 24.453125 39.449219 24.453125 C 41.582031 24.453125 43.820312 22.175781 45.660156 17.949219 C 45.550781 19.753906 45.53125 20.320312 45.53125 20.9375 C 45.53125 21.996094 45.585938 23.160156 45.730469 24 C 45.820312 24.402344 45.859375 24.691406 46.222656 24.964844 C 46.714844 25.238281 47.171875 25.402344 47.425781 25.585938 C 47.992188 25.859375 47.953125 26.003906 48.738281 26.003906 C 49.011719 26.003906 49.390625 25.75 49.445312 25.113281 C 50.140625 18.1875 50.867188 9.644531 50.867188 9.644531 C 51.339844 9.625 52.652344 9.285156 53.890625 9.148438 C 54.417969 9.089844 55.046875 8.769531 55.046875 8.382812 Z M 16.132812 0 C 15.855469 0 15.511719 0.234375 14.617188 1.019531 C 14.292969 1.128906 13.945312 1.058594 13.542969 1.675781 C 11.25 4.992188 9.449219 17.363281 7.917969 20.933594 C 7.609375 19.386719 6.972656 9.328125 6.71875 6.578125 C 6.679688 6.066406 6.753906 5.429688 6.753906 5.046875 C 6.753906 2.511719 6.207031 1.21875 3.660156 1.21875 C 2.382812 1.21875 1.109375 1.695312 0.4375 2.53125 C 0.109375 2.96875 0 3.296875 0 4.082031 C 0 9.34375 1.253906 17.964844 2.65625 23.59375 C 3.09375 25.359375 4.660156 25.691406 6.152344 25.691406 C 6.84375 25.691406 7.554688 25.601562 8.539062 25.105469 C 11.980469 23.429688 12.890625 18.855469 13.78125 14.410156 C 13.945312 13.609375 14.75 9.730469 15.128906 7.6875 C 15.640625 4.902344 16.222656 1.746094 16.570312 0.601562 C 16.679688 0.253906 16.460938 0 16.132812 0 Z M 112.070312 8.5625 C 108.3125 8.5625 105.050781 11.425781 105.050781 16.65625 C 105.050781 21.886719 108.140625 24.75 112.070312 24.75 C 115.996094 24.75 119 21.886719 119 16.65625 C 119 11.425781 115.765625 8.5625 112.070312 8.5625 Z M 112.070312 22.207031 C 109.640625 22.207031 107.824219 20.324219 107.824219 16.65625 C 107.824219 12.984375 109.640625 11.136719 112.070312 11.136719 C 114.496094 11.136719 116.226562 13.074219 116.226562 16.65625 C 116.226562 20.238281 114.4375 22.207031 112.070312 22.207031 Z M 79.179688 0.417969 C 78.488281 0.417969 77.667969 0.765625 77.15625 1.203125 C 76.539062 1.058594 75.738281 1.53125 75.628906 2.078125 C 75.101562 4.539062 74.863281 7.109375 74.570312 9.222656 C 71.039062 9.550781 68.363281 11.5 67.054688 14.6875 C 66.835938 15.214844 66.582031 15.726562 66.289062 16.21875 C 64.433594 19.390625 62.101562 21.230469 59.808594 21.230469 C 58.132812 21.230469 57.167969 20.046875 57.058594 18.441406 C 57.65625 18.589844 58.222656 18.660156 58.75 18.660156 C 62.535156 18.660156 64.464844 15.074219 64.464844 12.648438 C 64.464844 10.222656 62.902344 9.113281 60.570312 9.113281 C 56.308594 9.148438 52.777344 14.214844 52.777344 18.84375 C 52.777344 22.140625 54.253906 24.746094 57.601562 24.746094 C 60.1875 24.746094 63.773438 23.324219 66.214844 19.644531 C 66.050781 22.25 66.742188 24.804688 68.964844 25.054688 C 70.21875 25.164062 72.496094 24.382812 74.003906 21.304688 C 74.113281 23.871094 74.933594 25.109375 75.589844 25.109375 C 76.773438 25.109375 77.519531 24.691406 78.429688 24.636719 C 78.722656 24.617188 78.8125 24.363281 78.8125 24.125 C 78.8125 23.746094 78.375 22.339844 78.375 20.335938 C 78.375 17.257812 78.992188 12.449219 80.285156 2.644531 C 80.324219 2.425781 80.414062 1.933594 80.414062 1.570312 C 80.414062 0.949219 80.03125 0.417969 79.175781 0.417969 Z M 61.375 11.351562 C 61.699219 11.351562 61.867188 11.554688 61.828125 12.046875 C 61.71875 13.59375 60.570312 16.164062 57.222656 16.507812 C 57.675781 14.46875 59.625 11.351562 61.375 11.351562 Z M 70.273438 22.03125 C 69.710938 22.03125 69.417969 21.375 69.417969 20.574219 C 69.417969 18.296875 70.964844 13.722656 74.5 12.589844 C 74.027344 16.070312 72.257812 22.03125 70.273438 22.03125 Z M 95.496094 16.429688 L 100.359375 16.429688 C 100.390625 19.902344 98.425781 21.929688 95.226562 21.929688 C 92.027344 21.929688 89.339844 19.328125 89.339844 13.496094 C 89.339844 8.085938 92.085938 5.550781 95.226562 5.550781 C 98.367188 5.550781 99.605469 7.753906 100.117188 10.292969 L 103.199219 9.75 C 102.535156 5.519531 99.394531 2.710938 95.195312 2.710938 C 90.605469 2.710938 86.199219 6.335938 86.199219 13.5 C 86.199219 21.566406 90.425781 24.769531 95.226562 24.769531 C 100.027344 24.769531 103.316406 21.597656 103.316406 16.035156 L 103.316406 13.738281 L 95.496094 13.738281 Z M 95.496094 16.429688 "/>
</g>
</svg>