<svg width="40" height="40" viewBox="0 0 40 40" fill="none" xmlns="http://www.w3.org/2000/svg">
<g clip-path="url(#clip0_268_58)">
<mask id="mask0_268_58" style="mask-type:luminance" maskUnits="userSpaceOnUse" x="0" y="0" width="40" height="40">
<path d="M39.2157 0H0V40H39.2157V0Z" fill="white"/>
</mask>
<g mask="url(#mask0_268_58)">
<mask id="mask1_268_58" style="mask-type:luminance" maskUnits="userSpaceOnUse" x="0" y="0" width="40" height="40">
<path d="M39.2157 0H0V40H39.2157V0Z" fill="white"/>
</mask>
<g mask="url(#mask1_268_58)">
<path d="M19.6201 38.1558C9.84666 38.1558 1.85694 29.9564 1.85694 19.9876C1.85694 17.7445 2.24787 15.6262 2.98087 13.6324L13.3651 34.9407C13.4873 35.215 13.6827 35.4642 14.0004 35.4642C14.318 35.4642 14.5135 35.215 14.6356 34.9407L19.4246 24.025C19.4735 23.9003 19.5467 23.7757 19.6689 23.7757C19.791 23.7757 19.8156 23.9003 19.9133 24.025L24.7022 34.9407C24.8244 35.215 25.0199 35.4642 25.3375 35.4642C25.6552 35.4642 25.8506 35.215 25.9727 34.9407L36.3569 13.6324C37.1144 15.6262 37.4809 17.7445 37.4809 19.9876C37.3832 29.9564 29.369 38.1558 19.6201 38.1558ZM19.6201 15.8754C19.4979 15.8754 19.4735 15.7507 19.3758 15.6262L13.8048 2.84113C15.6129 2.16823 17.5677 1.79439 19.6201 1.79439C21.6724 1.79439 23.6272 2.14331 25.4353 2.84113L19.8399 15.6511C19.7666 15.8006 19.7178 15.8754 19.6201 15.8754ZM13.9271 29.0343C13.8048 29.0343 13.7804 28.9097 13.6827 28.7851L4.66679 10.243C6.2794 7.72586 8.42957 5.60747 11.0683 4.11215L17.5677 18.866C17.6409 19.1153 17.8364 19.19 18.0319 19.19H21.1594C21.4037 19.19 21.5503 19.1401 21.6724 18.866L28.1718 4.11215C30.7617 5.60747 32.9607 7.72586 34.5734 10.243L25.4841 28.81C25.4353 28.9346 25.3619 29.0593 25.2398 29.0593C25.1176 29.0593 25.0932 28.9346 24.9955 28.81L21.5747 20.8847C21.4525 20.6106 21.306 20.5607 21.0617 20.5607H17.9586C17.7143 20.5607 17.5677 20.6106 17.4455 20.8847L14.1469 28.81C14.1225 28.9097 14.0493 29.0343 13.9271 29.0343ZM19.6201 40C30.4929 40 39.2402 31.0779 39.2402 19.9876C39.2402 8.89718 30.4685 0 19.6201 0C8.77161 0 0 8.92212 0 20.0124C0 31.1028 8.74714 40 19.6201 40Z" fill="#0B0C0D"/>
</g>
</g>
</g>
<defs>
<clipPath id="clip0_268_58">
<rect width="40" height="40" fill="white"/>
</clipPath>
</defs>
</svg>
