<svg width="140" height="17" viewBox="0 0 140 17" fill="none" xmlns="http://www.w3.org/2000/svg">
<g clip-path="url(#clip0_2969_2732)">
<path fill-rule="evenodd" clip-rule="evenodd" d="M25.5938 1.23438L17.6365 16.7899H10.1625L13.4925 10.343H13.3431C10.5958 13.9094 6.49679 16.2572 0.65625 16.7899V10.4323C0.65625 10.4323 4.39261 10.2116 6.58905 7.90226H0.65625V1.23449H7.32405V6.71868L7.47368 6.7181L10.1984 1.23449H15.2411V6.68388L15.3908 6.68368L18.2177 1.23438H25.5938Z" fill="#0B0C0D"/>
<path d="M30.3466 4.05057H34.1814C34.8593 4.05057 35.4552 4.18795 35.9692 4.4626C36.4876 4.73735 36.8863 5.1206 37.1655 5.61235C37.449 6.1042 37.5909 6.66245 37.5909 7.2872C37.5909 7.91632 37.449 8.47681 37.1655 8.96866C36.8863 9.45603 36.4876 9.83928 35.9692 10.1184C35.4508 10.3931 34.8505 10.5304 34.1681 10.5304H31.5496V8.98188H33.9222C34.2855 8.98188 34.5979 8.911 34.8593 8.76925C35.1251 8.6275 35.3268 8.43034 35.4641 8.17775C35.6059 7.92517 35.679 7.63496 35.6834 7.30713C35.6834 6.97482 35.6125 6.68238 35.4707 6.42979C35.3334 6.17284 35.1296 5.97567 34.8593 5.83829C34.5934 5.69654 34.2789 5.62567 33.9156 5.62567H32.1743V13.8734H30.3466V4.05057ZM38.7538 6.46304H40.442V7.97174L40.196 8.00499C40.2759 7.66384 40.4176 7.36692 40.6214 7.11434C40.8296 6.85738 41.0777 6.66245 41.3658 6.52954C41.6582 6.39217 41.9728 6.32353 42.3096 6.32353C42.3671 6.32353 42.4225 6.32567 42.4757 6.33014C42.5333 6.33461 42.5842 6.34122 42.6285 6.35007V8.0116C42.5887 7.99828 42.5244 7.9872 42.4358 7.97835C42.3472 7.96503 42.2607 7.95842 42.1766 7.95842C41.8399 7.95404 41.5452 8.01821 41.2927 8.15121C41.0401 8.27964 40.843 8.47243 40.7012 8.72939C40.5638 8.98188 40.4952 9.2854 40.4952 9.63988V13.8734H38.7538V6.46304ZM46.9684 14.0396C46.2285 14.0396 45.575 13.88 45.0079 13.561C44.4451 13.2421 44.0065 12.7901 43.6919 12.2053C43.3773 11.6204 43.22 10.9447 43.22 10.1782C43.22 9.44271 43.3796 8.78257 43.6986 8.19768C44.0176 7.60842 44.4562 7.14982 45.0145 6.82199C45.5772 6.48968 46.2108 6.32353 46.9153 6.32353C47.6641 6.32353 48.3264 6.48968 48.9024 6.82199C49.4784 7.15429 49.917 7.64604 50.2183 8.29734C50.5196 8.94425 50.637 9.71746 50.5705 10.6169H43.9777V9.44047L49.2347 9.42054L48.7562 9.62656C48.7473 9.25439 48.6676 8.92432 48.5169 8.63635C48.3663 8.34838 48.1536 8.12457 47.8789 7.96503C47.6086 7.80559 47.2985 7.72586 46.9485 7.72586C46.5807 7.72586 46.2507 7.81443 45.9582 7.99167C45.6658 8.16891 45.4353 8.41702 45.2671 8.736C45.103 9.05499 45.0233 9.41393 45.0278 9.81264V10.4706C45.0233 10.9005 45.103 11.2792 45.2671 11.6071C45.4353 11.9305 45.668 12.1831 45.9648 12.3647C46.2617 12.542 46.5984 12.6306 46.9751 12.6306C47.2498 12.6262 47.5023 12.5797 47.7327 12.491C47.9675 12.398 48.1647 12.2695 48.3242 12.1055C48.4837 11.9372 48.5989 11.7444 48.6698 11.5273H50.4908C50.3889 12.0192 50.1741 12.4556 49.8461 12.8366C49.5227 13.2177 49.1106 13.5146 48.6099 13.7272C48.1093 13.9354 47.5621 14.0396 46.9684 14.0396ZM51.8599 6.46304H53.5679V8.18436L53.2822 8.10464C53.3487 7.75902 53.5015 7.45111 53.7407 7.18084C53.98 6.90618 54.2746 6.69346 54.6247 6.54286C54.9747 6.38779 55.3446 6.31245 55.7346 6.31682C56.1378 6.31245 56.5011 6.38556 56.8245 6.53616C57.1524 6.68685 57.416 6.89947 57.6153 7.17422C57.8147 7.4445 57.9433 7.75464 58.0008 8.10464L57.6353 8.0781C57.7151 7.74579 57.8745 7.4445 58.1138 7.17422C58.3531 6.90395 58.65 6.69346 59.0044 6.54286C59.3588 6.38779 59.7465 6.31245 60.1674 6.31682C60.6637 6.31682 61.1023 6.42318 61.4834 6.6359C61.8688 6.84415 62.1657 7.14759 62.374 7.54639C62.5866 7.94072 62.693 8.40817 62.693 8.94872V13.8734H60.9251V9.21453C60.9251 8.91324 60.8675 8.65852 60.7523 8.45027C60.6416 8.24202 60.4843 8.08471 60.2804 7.97835C60.0766 7.87199 59.8418 7.81891 59.5759 7.81891C59.3013 7.81891 59.0554 7.88093 58.8382 8.00499C58.6256 8.12904 58.4594 8.30628 58.3398 8.5366C58.2202 8.76264 58.1604 9.01736 58.1604 9.30096V13.8734H56.3859V9.13481C56.3859 8.87338 56.3305 8.64296 56.2197 8.44356C56.1134 8.24425 55.9605 8.09132 55.7611 7.98506C55.5662 7.87422 55.3402 7.81891 55.0832 7.81891C54.8085 7.81891 54.5604 7.88754 54.3389 8.02492C54.1174 8.15782 53.9423 8.34838 53.8139 8.59649C53.6853 8.84013 53.6211 9.11488 53.6211 9.42054V13.8734H51.8599V6.46304ZM64.2814 6.46304H66.0426V13.8734H64.2814V6.46304ZM64.2415 3.63184H66.1223V5.45952H64.2415V3.63184ZM72.3696 6.46304H74.1441V13.8734H72.4095V12.3448L72.7019 12.2318C72.6177 12.5818 72.456 12.8942 72.2168 13.1689C71.9775 13.4436 71.6828 13.6563 71.3328 13.8069C70.9828 13.9531 70.6107 14.024 70.2163 14.0196C69.6935 14.0196 69.2349 13.9089 68.8405 13.6873C68.4462 13.4614 68.1405 13.1379 67.9234 12.717C67.7107 12.2961 67.6043 11.8021 67.6043 11.2349V6.46304H69.3788V10.8827C69.3788 11.215 69.4343 11.5008 69.545 11.7401C69.6558 11.9793 69.8153 12.1609 70.0235 12.285C70.2318 12.4091 70.4821 12.4711 70.7746 12.4711C71.0759 12.4711 71.3461 12.398 71.5854 12.2518C71.8247 12.1055 72.0151 11.8995 72.157 11.6337C72.2987 11.3634 72.3696 11.0577 72.3696 10.7165V6.46304ZM75.7857 6.46304H77.4937V8.18436L77.208 8.10464C77.2744 7.75902 77.4273 7.45111 77.6665 7.18084C77.9058 6.90618 78.2004 6.69346 78.5504 6.54286C78.9005 6.38779 79.2704 6.31245 79.6603 6.31682C80.0636 6.31245 80.4269 6.38556 80.7502 6.53616C81.0782 6.68685 81.3417 6.89947 81.5412 7.17422C81.7406 7.4445 81.8691 7.75464 81.9266 8.10464L81.5611 8.0781C81.6408 7.74579 81.8003 7.4445 82.0396 7.17422C82.2789 6.90395 82.5757 6.69346 82.9302 6.54286C83.2846 6.38779 83.6724 6.31245 84.0932 6.31682C84.5895 6.31682 85.0281 6.42318 85.4091 6.6359C85.7946 6.84415 86.0914 7.14759 86.2997 7.54639C86.5124 7.94072 86.6188 8.40817 86.6188 8.94872V13.8734H84.8509V9.21453C84.8509 8.91324 84.7933 8.65852 84.6781 8.45027C84.5673 8.24202 84.4101 8.08471 84.2062 7.97835C84.0024 7.87199 83.7675 7.81891 83.5017 7.81891C83.2271 7.81891 82.9811 7.88093 82.764 8.00499C82.5514 8.12904 82.3852 8.30628 82.2655 8.5366C82.146 8.76264 82.0862 9.01736 82.0862 9.30096V13.8734H80.3117V9.13481C80.3117 8.87338 80.2563 8.64296 80.1455 8.44356C80.0392 8.24425 79.8863 8.09132 79.6869 7.98506C79.492 7.87422 79.266 7.81891 79.009 7.81891C78.7343 7.81891 78.4862 7.88754 78.2647 8.02492C78.0431 8.15782 77.8681 8.34838 77.7397 8.59649C77.6111 8.84013 77.5469 9.11488 77.5469 9.42054V13.8734H75.7857V6.46304ZM91.49 4.05057H95.3254C96.0031 4.05057 96.599 4.18795 97.1133 4.4626C97.6315 4.73735 98.0301 5.1206 98.3092 5.61235C98.593 6.1042 98.734 6.66245 98.734 7.2872C98.734 7.91632 98.593 8.47681 98.3092 8.96866C98.0301 9.45603 97.6315 9.83928 97.1133 10.1184C96.5942 10.3931 95.9943 10.5304 95.3118 10.5304H92.6936V8.98188H95.0658C95.4294 8.98188 95.7415 8.911 96.0031 8.76925C96.2685 8.6275 96.4707 8.43034 96.6078 8.17775C96.7497 7.92517 96.8226 7.63496 96.8275 7.30713C96.8275 6.97482 96.7565 6.68238 96.6146 6.42979C96.4775 6.17284 96.2733 5.97567 96.0031 5.83829C95.7367 5.69654 95.4226 5.62567 95.059 5.62567H93.3178V13.8734H91.49V4.05057ZM102.828 14.013C102.186 14.013 101.612 13.8513 101.107 13.5278C100.602 13.2 100.206 12.7458 99.9172 12.1654C99.6294 11.5805 99.4875 10.9093 99.4924 10.1517C99.4924 9.38953 99.6362 8.71831 99.924 8.13789C100.217 7.55747 100.617 7.10996 101.127 6.79535C101.637 6.47636 102.215 6.31906 102.862 6.32353C103.292 6.31906 103.69 6.39878 104.058 6.56279C104.425 6.72224 104.729 6.93934 104.969 7.21409C105.212 7.48874 105.369 7.78789 105.44 8.11125L105.122 8.09803V6.46304H106.889V13.8734H105.141V12.4246L105.467 12.2318C105.361 12.5598 105.179 12.8588 104.922 13.1291C104.665 13.3994 104.352 13.6142 103.985 13.7738C103.621 13.9332 103.236 14.013 102.828 14.013ZM103.2 12.5043C103.582 12.5043 103.923 12.4068 104.224 12.2119C104.526 12.0125 104.758 11.7356 104.922 11.3811C105.09 11.0223 105.175 10.6124 105.175 10.1517C105.179 9.69082 105.097 9.28317 104.929 8.92879C104.76 8.57432 104.526 8.29957 104.224 8.10464C103.928 7.90971 103.586 7.8122 103.2 7.8122C102.824 7.8122 102.494 7.90971 102.211 8.10464C101.927 8.29957 101.707 8.57656 101.552 8.9354C101.397 9.28988 101.32 9.6953 101.32 10.1517C101.32 10.6124 101.397 11.02 101.552 11.3745C101.707 11.729 101.927 12.0059 102.211 12.2053C102.498 12.4047 102.828 12.5043 103.2 12.5043ZM108.511 6.46304H110.198V7.97174L109.953 8.00499C110.033 7.66384 110.174 7.36692 110.378 7.11434C110.586 6.85738 110.834 6.66245 111.123 6.52954C111.415 6.39217 111.73 6.32353 112.066 6.32353C112.124 6.32353 112.18 6.32567 112.232 6.33014C112.291 6.33461 112.341 6.34122 112.385 6.35007V8.0116C112.345 7.99828 112.281 7.9872 112.192 7.97835C112.104 7.96503 112.017 7.95842 111.934 7.95842C111.597 7.95404 111.302 8.01821 111.049 8.15121C110.797 8.27964 110.6 8.47243 110.458 8.72939C110.321 8.98188 110.252 9.2854 110.252 9.63988V13.8734H108.511V6.46304ZM114.665 4.662H116.42V13.8734H114.665V4.662ZM113.322 6.46304H117.769V7.91195H113.322V6.46304ZM120.573 13.8734H118.799V6.46304H120.533V7.99167L120.242 8.10464C120.325 7.75464 120.487 7.44227 120.727 7.16752C120.966 6.89286 121.26 6.68238 121.61 6.53616C121.96 6.38556 122.333 6.31245 122.727 6.31682C123.25 6.31682 123.708 6.42979 124.102 6.65584C124.497 6.87731 124.8 7.19853 125.013 7.6195C125.23 8.04038 125.339 8.53446 125.339 9.10156V13.8734H123.565V9.45379C123.565 9.12149 123.509 8.83575 123.398 8.59649C123.287 8.35722 123.128 8.17552 122.919 8.05146C122.711 7.9274 122.461 7.86538 122.168 7.86538C121.867 7.86538 121.597 7.93849 121.358 8.08471C121.118 8.23093 120.928 8.43918 120.786 8.70946C120.644 8.97527 120.573 9.27879 120.573 9.61995V13.8734ZM130.323 14.0396C129.584 14.0396 128.929 13.88 128.362 13.561C127.8 13.2421 127.361 12.7901 127.047 12.2053C126.732 11.6204 126.575 10.9447 126.575 10.1782C126.575 9.44271 126.734 8.78257 127.053 8.19768C127.373 7.60842 127.811 7.14982 128.369 6.82199C128.932 6.48968 129.565 6.32353 130.27 6.32353C131.019 6.32353 131.682 6.48968 132.257 6.82199C132.833 7.15429 133.272 7.64604 133.573 8.29734C133.874 8.94425 133.992 9.71746 133.926 10.6169H127.333V9.44047L132.59 9.42054L132.111 9.62656C132.102 9.25439 132.022 8.92432 131.871 8.63635C131.722 8.34838 131.509 8.12457 131.233 7.96503C130.963 7.80559 130.653 7.72586 130.303 7.72586C129.936 7.72586 129.605 7.81443 129.313 7.99167C129.021 8.16891 128.79 8.41702 128.622 8.736C128.458 9.05499 128.378 9.41393 128.383 9.81264V10.4706C128.378 10.9005 128.458 11.2792 128.622 11.6071C128.79 11.9305 129.023 12.1831 129.319 12.3647C129.617 12.542 129.953 12.6306 130.33 12.6306C130.604 12.6262 130.857 12.5797 131.088 12.491C131.322 12.398 131.519 12.2695 131.679 12.1055C131.838 11.9372 131.954 11.7444 132.025 11.5273H133.846C133.744 12.0192 133.529 12.4556 133.201 12.8366C132.877 13.2177 132.465 13.5146 131.965 13.7272C131.464 13.9354 130.917 14.0396 130.323 14.0396ZM135.215 6.46304H136.902V7.97174L136.657 8.00499C136.736 7.66384 136.878 7.36692 137.082 7.11434C137.29 6.85738 137.538 6.66245 137.826 6.52954C138.119 6.39217 138.434 6.32353 138.77 6.32353C138.827 6.32353 138.883 6.32567 138.936 6.33014C138.994 6.33461 139.045 6.34122 139.089 6.35007V8.0116C139.049 7.99828 138.985 7.9872 138.897 7.97835C138.808 7.96503 138.722 7.95842 138.637 7.95842C138.301 7.95404 138.006 8.01821 137.753 8.15121C137.501 8.27964 137.304 8.47243 137.162 8.72939C137.025 8.98188 136.956 9.2854 136.956 9.63988V13.8734H135.215V6.46304Z" fill="#0B0C0D"/>
</g>
<defs>
<clipPath id="clip0_2969_2732">
<rect width="140" height="16.5278" fill="white" transform="translate(0 0.410156)"/>
</clipPath>
</defs>
</svg>
