<svg width="81" height="38" viewBox="0 0 81 38" fill="none" xmlns="http://www.w3.org/2000/svg">
<g clip-path="url(#clip0_268_32)">
<path d="M14.3808 30.839L15.0042 27.6182C25.186 34.0597 38.2769 34.0597 48.4587 27.6182L49.0821 30.839C38.9003 38.839 24.5626 38.839 14.3808 30.839ZM54.6925 15.9818C55.8353 16.1896 57.0821 16.0857 58.121 15.4623C58.9522 14.9428 59.4717 14.1117 59.6795 13.1766C59.8873 12.2415 59.9912 11.4104 60.0951 10.4753H64.0431C64.0431 10.8909 64.0431 11.4104 64.0431 11.9299C63.9392 13.1766 63.6275 14.3195 63.108 15.3584C62.6925 16.1896 61.9652 16.9169 61.2379 17.4364C61.0301 17.5403 60.8223 17.748 60.6145 17.8519C60.8223 18.1636 61.0301 18.5792 61.134 18.8909C62.173 20.761 63.2119 22.5273 64.3548 24.3974C64.4587 24.6052 64.5626 24.813 64.6665 25.0208C64.7704 25.2286 64.7704 25.4364 64.7704 25.6442H60.4067L56.9782 19.4104L54.6925 19.6182V25.748H50.4327V5.17661H54.6925V15.9818ZM13.3418 10.3714C13.3418 10.5792 13.2379 10.787 13.134 11.0987C12.4068 12.3454 11.6795 13.5922 10.9522 14.839C9.60157 17.1247 8.25092 19.4104 7.00416 21.6961C7.00416 21.8 6.90027 21.9039 6.90027 22.0078C8.04312 22.0078 9.08209 22.0078 10.121 22.0078C11.16 22.0078 12.199 22.0078 13.3418 22.0078V25.748H0.666504C0.666504 25.5403 0.7704 25.3325 0.874296 25.1247C1.49767 23.9818 2.12105 22.9429 2.74443 21.9039C3.3678 20.8649 3.88728 19.9299 4.51066 18.8909C5.34183 17.4364 6.173 15.9818 7.00416 14.6312C7.10806 14.5273 7.10806 14.4234 7.21196 14.2156C6.69248 14.2156 6.173 14.2156 5.65352 14.2156C5.13404 14.2156 4.61455 14.2156 4.19897 14.2156H1.18598V10.3714H13.3418ZM7.41975 8.91687C6.79637 9.02077 6.27689 8.81297 5.86131 8.39739C5.23793 7.87791 4.92624 6.94284 5.23793 6.11167C5.44572 5.3844 6.173 4.76102 7.00416 4.65713C7.73144 4.44934 8.56261 4.76102 9.08209 5.2805C9.70546 5.90388 9.80936 6.73505 9.60157 7.56622C9.28988 8.39739 8.56261 8.91687 7.73144 8.91687C7.62754 9.02077 7.52364 9.02077 7.41975 8.91687ZM47.4197 15.1506C47.0042 13.6961 46.173 12.3454 44.9262 11.4104C43.7834 10.5792 42.5366 10.1636 41.186 10.1636C40.0431 10.0597 38.7964 10.2675 37.6535 10.6831C37.5496 10.6831 37.3418 10.787 37.2379 10.787V5.17661H32.9782V24.813C33.6016 25.0208 34.2249 25.1247 34.8483 25.2286C35.8873 25.5403 36.9262 25.748 38.0691 25.9558C39.7314 26.1636 41.3938 25.9558 43.0561 25.4364C45.5496 24.7091 47.4197 22.6312 47.7314 20.0338C47.9392 18.4753 47.9392 16.7091 47.4197 15.1506ZM43.3678 20.2416C43.0561 21.2805 42.2249 22.1117 41.186 22.3195C39.9392 22.6312 38.5886 22.5273 37.4457 22.1117C37.4457 22.1117 37.3418 22.1117 37.3418 22.0078V14.4234C38.7964 13.3844 40.7704 13.3844 42.2249 14.3195C42.7444 14.7351 43.0561 15.2545 43.2639 15.8779C43.6795 17.2286 43.7834 18.787 43.3678 20.2416ZM29.0301 11.4104C27.9912 10.9948 26.8483 10.6831 25.7055 10.4753C24.147 10.1636 22.5886 10.0597 21.0301 10.1636C19.6795 10.2675 18.3288 10.8909 17.2899 11.9299C16.3548 12.9688 15.6275 14.2156 15.4197 15.5662C15.212 16.6052 15.1081 17.6441 15.1081 18.6831C15.1081 20.0338 15.4197 21.2805 16.0431 22.4234C16.5626 23.3584 17.2899 24.1896 18.2249 24.7091C20.3029 25.8519 22.6925 26.2675 24.9782 25.8519C26.6405 25.6442 28.199 25.1247 29.8613 24.813V11.826C29.6535 11.7221 29.3418 11.5143 29.0301 11.4104ZM25.7055 22.1117C24.2509 22.6312 22.6925 22.7351 21.2379 22.1117C20.5107 21.8 19.9912 21.2805 19.6795 20.4493C19.16 18.787 19.16 17.1247 19.7834 15.4623C20.199 14.4234 21.2379 13.6961 22.2769 13.5922C23.3158 13.4883 24.4587 13.5922 25.3938 14.1117C25.4977 14.1117 25.4977 14.2156 25.6016 14.2156L25.7055 22.1117ZM79.2119 11.2026C77.9652 10.787 76.7184 10.4753 75.3678 10.2675C74.121 10.0597 72.7704 10.0597 71.4197 10.2675C69.0301 10.6831 67.16 12.4493 66.4327 14.7351C65.9132 16.5013 65.7054 18.3714 66.0171 20.2416C66.2249 21.9039 67.0561 23.4623 68.4067 24.5013C68.7184 24.7091 69.134 25.0208 69.4457 25.1247C70.2769 25.5403 71.3158 25.8519 72.2509 25.9558C73.3938 26.1636 74.5366 26.1636 75.6795 25.9558C77.3418 25.6442 79.0041 25.2286 80.5626 24.9169V11.826C80.147 11.6182 79.7314 11.4104 79.2119 11.2026ZM76.5106 22.1117C76.3028 22.2156 76.1989 22.2156 75.9912 22.2156C75.16 22.4234 74.3288 22.5273 73.3938 22.5273C72.3548 22.5273 71.4197 22.0078 70.7963 21.1766C70.4847 20.761 70.2769 20.2416 70.173 19.7221C69.9652 18.4753 69.9652 17.2286 70.3808 15.9818C70.6925 14.7351 71.8353 13.8 73.0821 13.6961C74.2249 13.4883 75.3678 13.6961 76.4067 14.3195L76.5106 22.1117Z" fill="#0B0C0D"/>
</g>
<defs>
<clipPath id="clip0_268_32">
<rect width="80" height="37.0769" fill="white" transform="translate(0.666504 0.5802)"/>
</clipPath>
</defs>
</svg>
